<svg width="76" height="76" viewBox="0 0 76 76" fill="none" xmlns="http://www.w3.org/2000/svg">
<path d="M6.85 13.7C10.6332 13.7 13.7 10.6332 13.7 6.85C13.7 3.06685 10.6332 0 6.85 0C3.06685 0 0 3.06685 0 6.85C0 10.6332 3.06685 13.7 6.85 13.7Z" fill="#FBBF24"/>
<path opacity="0.8" d="M6.85 54.8C10.6332 54.8 13.7 51.7331 13.7 47.95C13.7 44.1668 10.6332 41.1 6.85 41.1C3.06685 41.1 0 44.1668 0 47.95C0 51.7331 3.06685 54.8 6.85 54.8Z" fill="#FBBF24"/>
<path d="M6.85 34.25C10.6332 34.25 13.7 31.1832 13.7 27.4C13.7 23.6169 10.6332 20.55 6.85 20.55C3.06685 20.55 0 23.6169 0 27.4C0 31.1832 3.06685 34.25 6.85 34.25Z" fill="#FBBF24"/>
<path opacity="0.6" d="M6.85 75.35C10.6332 75.35 13.7 72.2832 13.7 68.5C13.7 64.7169 10.6332 61.65 6.85 61.65C3.06685 61.65 0 64.7169 0 68.5C0 72.2832 3.06685 75.35 6.85 75.35Z" fill="#FBBF24"/>
<path d="M27.4 13.7C31.1832 13.7 34.25 10.6332 34.25 6.85C34.25 3.06685 31.1832 0 27.4 0C23.6169 0 20.55 3.06685 20.55 6.85C20.55 10.6332 23.6169 13.7 27.4 13.7Z" fill="#FBBF24"/>
<path opacity="0.6" d="M27.4 54.8C31.1832 54.8 34.25 51.7331 34.25 47.95C34.25 44.1668 31.1832 41.1 27.4 41.1C23.6169 41.1 20.55 44.1668 20.55 47.95C20.55 51.7331 23.6169 54.8 27.4 54.8Z" fill="#FBBF24"/>
<path opacity="0.8" d="M27.4 34.25C31.1832 34.25 34.25 31.1832 34.25 27.4C34.25 23.6169 31.1832 20.55 27.4 20.55C23.6169 20.55 20.55 23.6169 20.55 27.4C20.55 31.1832 23.6169 34.25 27.4 34.25Z" fill="#FBBF24"/>
<path opacity="0.4" d="M27.4 75.35C31.1832 75.35 34.25 72.2832 34.25 68.5C34.25 64.7169 31.1832 61.65 27.4 61.65C23.6169 61.65 20.55 64.7169 20.55 68.5C20.55 72.2832 23.6169 75.35 27.4 75.35Z" fill="#FBBF24"/>
<path opacity="0.8" d="M47.9501 13.7C51.7332 13.7 54.8001 10.6332 54.8001 6.85C54.8001 3.06685 51.7332 0 47.9501 0C44.1669 0 41.1001 3.06685 41.1001 6.85C41.1001 10.6332 44.1669 13.7 47.9501 13.7Z" fill="#FBBF24"/>
<path opacity="0.4" d="M47.9501 54.8C51.7332 54.8 54.8001 51.7331 54.8001 47.95C54.8001 44.1668 51.7332 41.1 47.9501 41.1C44.1669 41.1 41.1001 44.1668 41.1001 47.95C41.1001 51.7331 44.1669 54.8 47.9501 54.8Z" fill="#FBBF24"/>
<path opacity="0.6" d="M47.9501 34.25C51.7332 34.25 54.8001 31.1832 54.8001 27.4C54.8001 23.6169 51.7332 20.55 47.9501 20.55C44.1669 20.55 41.1001 23.6169 41.1001 27.4C41.1001 31.1832 44.1669 34.25 47.9501 34.25Z" fill="#FBBF24"/>
<path opacity="0.2" d="M47.9501 75.35C51.7332 75.35 54.8001 72.2832 54.8001 68.5C54.8001 64.7169 51.7332 61.65 47.9501 61.65C44.1669 61.65 41.1001 64.7169 41.1001 68.5C41.1001 72.2832 44.1669 75.35 47.9501 75.35Z" fill="#FBBF24"/>
<path opacity="0.6" d="M68.5001 13.7C72.2833 13.7 75.3501 10.6332 75.3501 6.85C75.3501 3.06685 72.2833 0 68.5001 0C64.717 0 61.6501 3.06685 61.6501 6.85C61.6501 10.6332 64.717 13.7 68.5001 13.7Z" fill="#FBBF24"/>
<path opacity="0.2" d="M68.5001 54.8C72.2833 54.8 75.3501 51.7331 75.3501 47.95C75.3501 44.1668 72.2833 41.1 68.5001 41.1C64.717 41.1 61.6501 44.1668 61.6501 47.95C61.6501 51.7331 64.717 54.8 68.5001 54.8Z" fill="#FBBF24"/>
<path opacity="0.4" d="M68.5001 34.25C72.2833 34.25 75.3501 31.1832 75.3501 27.4C75.3501 23.6169 72.2833 20.55 68.5001 20.55C64.717 20.55 61.6501 23.6169 61.6501 27.4C61.6501 31.1832 64.717 34.25 68.5001 34.25Z" fill="#FBBF24"/>
<path opacity="0.05" d="M68.5001 75.35C72.2833 75.35 75.3501 72.2832 75.3501 68.5C75.3501 64.7169 72.2833 61.65 68.5001 61.65C64.717 61.65 61.6501 64.7169 61.6501 68.5C61.6501 72.2832 64.717 75.35 68.5001 75.35Z" fill="#FBBF24"/>
</svg>
