<svg width="513" height="369" viewBox="0 0 513 369" fill="none" xmlns="http://www.w3.org/2000/svg">
<path d="M6.85 73.7C10.6332 73.7 13.7 70.6332 13.7 66.85C13.7 63.0668 10.6332 60 6.85 60C3.06685 60 0 63.0668 0 66.85C0 70.6332 3.06685 73.7 6.85 73.7Z" fill="#FBBF24"/>
<path opacity="0.8" d="M6.85 114.8C10.6332 114.8 13.7 111.733 13.7 107.95C13.7 104.167 10.6332 101.1 6.85 101.1C3.06685 101.1 0 104.167 0 107.95C0 111.733 3.06685 114.8 6.85 114.8Z" fill="#FBBF24"/>
<path d="M6.85 94.25C10.6332 94.25 13.7 91.1832 13.7 87.4C13.7 83.6169 10.6332 80.55 6.85 80.55C3.06685 80.55 0 83.6169 0 87.4C0 91.1832 3.06685 94.25 6.85 94.25Z" fill="#FBBF24"/>
<path opacity="0.6" d="M6.85 135.35C10.6332 135.35 13.7 132.283 13.7 128.5C13.7 124.717 10.6332 121.65 6.85 121.65C3.06685 121.65 0 124.717 0 128.5C0 132.283 3.06685 135.35 6.85 135.35Z" fill="#FBBF24"/>
<path d="M27.4 73.7C31.1832 73.7 34.25 70.6332 34.25 66.85C34.25 63.0668 31.1832 60 27.4 60C23.6169 60 20.55 63.0668 20.55 66.85C20.55 70.6332 23.6169 73.7 27.4 73.7Z" fill="#FBBF24"/>
<path opacity="0.6" d="M27.4 114.8C31.1832 114.8 34.25 111.733 34.25 107.95C34.25 104.167 31.1832 101.1 27.4 101.1C23.6169 101.1 20.55 104.167 20.55 107.95C20.55 111.733 23.6169 114.8 27.4 114.8Z" fill="#FBBF24"/>
<path opacity="0.8" d="M27.4 94.25C31.1832 94.25 34.25 91.1832 34.25 87.4C34.25 83.6169 31.1832 80.55 27.4 80.55C23.6169 80.55 20.55 83.6169 20.55 87.4C20.55 91.1832 23.6169 94.25 27.4 94.25Z" fill="#FBBF24"/>
<path opacity="0.4" d="M27.4 135.35C31.1832 135.35 34.25 132.283 34.25 128.5C34.25 124.717 31.1832 121.65 27.4 121.65C23.6169 121.65 20.55 124.717 20.55 128.5C20.55 132.283 23.6169 135.35 27.4 135.35Z" fill="#FBBF24"/>
<path opacity="0.8" d="M47.9501 73.7C51.7332 73.7 54.8001 70.6332 54.8001 66.85C54.8001 63.0668 51.7332 60 47.9501 60C44.1669 60 41.1001 63.0668 41.1001 66.85C41.1001 70.6332 44.1669 73.7 47.9501 73.7Z" fill="#FBBF24"/>
<path opacity="0.4" d="M47.9501 114.8C51.7332 114.8 54.8001 111.733 54.8001 107.95C54.8001 104.167 51.7332 101.1 47.9501 101.1C44.1669 101.1 41.1001 104.167 41.1001 107.95C41.1001 111.733 44.1669 114.8 47.9501 114.8Z" fill="#FBBF24"/>
<path opacity="0.6" d="M47.9501 94.25C51.7332 94.25 54.8001 91.1832 54.8001 87.4C54.8001 83.6169 51.7332 80.55 47.9501 80.55C44.1669 80.55 41.1001 83.6169 41.1001 87.4C41.1001 91.1832 44.1669 94.25 47.9501 94.25Z" fill="#FBBF24"/>
<path opacity="0.2" d="M47.9501 135.35C51.7332 135.35 54.8001 132.283 54.8001 128.5C54.8001 124.717 51.7332 121.65 47.9501 121.65C44.1669 121.65 41.1001 124.717 41.1001 128.5C41.1001 132.283 44.1669 135.35 47.9501 135.35Z" fill="#FBBF24"/>
<path opacity="0.6" d="M68.5001 73.7C72.2833 73.7 75.3501 70.6332 75.3501 66.85C75.3501 63.0668 72.2833 60 68.5001 60C64.717 60 61.6501 63.0668 61.6501 66.85C61.6501 70.6332 64.717 73.7 68.5001 73.7Z" fill="#FBBF24"/>
<path opacity="0.2" d="M68.5001 114.8C72.2833 114.8 75.3501 111.733 75.3501 107.95C75.3501 104.167 72.2833 101.1 68.5001 101.1C64.717 101.1 61.6501 104.167 61.6501 107.95C61.6501 111.733 64.717 114.8 68.5001 114.8Z" fill="#FBBF24"/>
<path opacity="0.4" d="M68.5001 94.25C72.2833 94.25 75.3501 91.1832 75.3501 87.4C75.3501 83.6169 72.2833 80.55 68.5001 80.55C64.717 80.55 61.6501 83.6169 61.6501 87.4C61.6501 91.1832 64.717 94.25 68.5001 94.25Z" fill="#FBBF24"/>
<path opacity="0.05" d="M68.5001 135.35C72.2833 135.35 75.3501 132.283 75.3501 128.5C75.3501 124.717 72.2833 121.65 68.5001 121.65C64.717 121.65 61.6501 124.717 61.6501 128.5C61.6501 132.283 64.717 135.35 68.5001 135.35Z" fill="#FBBF24"/>
<path d="M428.85 254.7C432.633 254.7 435.7 251.633 435.7 247.85C435.7 244.067 432.633 241 428.85 241C425.067 241 422 244.067 422 247.85C422 251.633 425.067 254.7 428.85 254.7Z" fill="#FBBF24"/>
<path opacity="0.8" d="M428.85 295.8C432.633 295.8 435.7 292.733 435.7 288.95C435.7 285.167 432.633 282.1 428.85 282.1C425.067 282.1 422 285.167 422 288.95C422 292.733 425.067 295.8 428.85 295.8Z" fill="#FBBF24"/>
<path d="M428.85 275.25C432.633 275.25 435.7 272.183 435.7 268.4C435.7 264.617 432.633 261.55 428.85 261.55C425.067 261.55 422 264.617 422 268.4C422 272.183 425.067 275.25 428.85 275.25Z" fill="#FBBF24"/>
<path opacity="0.6" d="M428.85 316.35C432.633 316.35 435.7 313.283 435.7 309.5C435.7 305.717 432.633 302.65 428.85 302.65C425.067 302.65 422 305.717 422 309.5C422 313.283 425.067 316.35 428.85 316.35Z" fill="#FBBF24"/>
<path d="M449.4 254.7C453.183 254.7 456.25 251.633 456.25 247.85C456.25 244.067 453.183 241 449.4 241C445.617 241 442.55 244.067 442.55 247.85C442.55 251.633 445.617 254.7 449.4 254.7Z" fill="#FBBF24"/>
<path opacity="0.6" d="M449.4 295.8C453.183 295.8 456.25 292.733 456.25 288.95C456.25 285.167 453.183 282.1 449.4 282.1C445.617 282.1 442.55 285.167 442.55 288.95C442.55 292.733 445.617 295.8 449.4 295.8Z" fill="#FBBF24"/>
<path opacity="0.8" d="M449.4 275.25C453.183 275.25 456.25 272.183 456.25 268.4C456.25 264.617 453.183 261.55 449.4 261.55C445.617 261.55 442.55 264.617 442.55 268.4C442.55 272.183 445.617 275.25 449.4 275.25Z" fill="#FBBF24"/>
<path opacity="0.4" d="M449.4 316.35C453.183 316.35 456.25 313.283 456.25 309.5C456.25 305.717 453.183 302.65 449.4 302.65C445.617 302.65 442.55 305.717 442.55 309.5C442.55 313.283 445.617 316.35 449.4 316.35Z" fill="#FBBF24"/>
<path opacity="0.8" d="M469.95 254.7C473.733 254.7 476.8 251.633 476.8 247.85C476.8 244.067 473.733 241 469.95 241C466.167 241 463.1 244.067 463.1 247.85C463.1 251.633 466.167 254.7 469.95 254.7Z" fill="#FBBF24"/>
<path opacity="0.4" d="M469.95 295.8C473.733 295.8 476.8 292.733 476.8 288.95C476.8 285.167 473.733 282.1 469.95 282.1C466.167 282.1 463.1 285.167 463.1 288.95C463.1 292.733 466.167 295.8 469.95 295.8Z" fill="#FBBF24"/>
<path opacity="0.6" d="M469.95 275.25C473.733 275.25 476.8 272.183 476.8 268.4C476.8 264.617 473.733 261.55 469.95 261.55C466.167 261.55 463.1 264.617 463.1 268.4C463.1 272.183 466.167 275.25 469.95 275.25Z" fill="#FBBF24"/>
<path opacity="0.2" d="M469.95 316.35C473.733 316.35 476.8 313.283 476.8 309.5C476.8 305.717 473.733 302.65 469.95 302.65C466.167 302.65 463.1 305.717 463.1 309.5C463.1 313.283 466.167 316.35 469.95 316.35Z" fill="#FBBF24"/>
<path opacity="0.6" d="M490.5 254.7C494.283 254.7 497.35 251.633 497.35 247.85C497.35 244.067 494.283 241 490.5 241C486.717 241 483.65 244.067 483.65 247.85C483.65 251.633 486.717 254.7 490.5 254.7Z" fill="#FBBF24"/>
<path opacity="0.2" d="M490.5 295.8C494.283 295.8 497.35 292.733 497.35 288.95C497.35 285.167 494.283 282.1 490.5 282.1C486.717 282.1 483.65 285.167 483.65 288.95C483.65 292.733 486.717 295.8 490.5 295.8Z" fill="#FBBF24"/>
<path opacity="0.4" d="M490.5 275.25C494.283 275.25 497.35 272.183 497.35 268.4C497.35 264.617 494.283 261.55 490.5 261.55C486.717 261.55 483.65 264.617 483.65 268.4C483.65 272.183 486.717 275.25 490.5 275.25Z" fill="#FBBF24"/>
<path opacity="0.05" d="M490.5 316.35C494.283 316.35 497.35 313.283 497.35 309.5C497.35 305.717 494.283 302.65 490.5 302.65C486.717 302.65 483.65 305.717 483.65 309.5C483.65 313.283 486.717 316.35 490.5 316.35Z" fill="#FBBF24"/>
<g filter="url(#filter0_d_48_71)">
<rect x="109.178" y="1.69863" width="402.123" height="245.959" rx="23.3014" fill="white" stroke="black" stroke-width="2.60274"/>
<rect x="137.808" y="100.329" width="62.4657" height="47.0679" rx="10.411" fill="black" stroke="black" stroke-width="2.60274"/>
<rect x="137.808" y="97.3492" width="62.4657" height="47.0679" rx="10.411" fill="white" stroke="black" stroke-width="2.60274"/>
<rect x="164.63" y="133.986" width="26.7029" height="8.32479" rx="4.1624" transform="rotate(-90 164.63 133.986)" stroke="black" stroke-width="2.60274"/>
<path d="M173.76 114.426H201.575" stroke="black" stroke-width="2.60274"/>
<path d="M173.76 125.85H201.575" stroke="black" stroke-width="2.60274"/>
<path d="M137.003 114.674H163.826" stroke="black" stroke-width="2.60274"/>
<path d="M137.003 125.85H163.826" stroke="black" stroke-width="2.60274"/>
<path d="M144.64 44.7603C143.929 44.7603 143.269 44.6518 142.662 44.4349C142.055 44.2094 141.526 43.8883 141.074 43.4719C140.623 43.0468 140.272 42.5479 140.02 41.9753C139.769 41.3941 139.643 40.7564 139.643 40.0623C139.643 39.3943 139.773 38.7783 140.033 38.2144C140.302 37.6418 140.667 37.1472 141.127 36.7308C141.586 36.3057 142.12 35.9804 142.727 35.7548C143.335 35.5205 143.985 35.4034 144.679 35.4034C145.2 35.4034 145.703 35.4728 146.189 35.6116C146.675 35.7418 147.117 35.924 147.516 36.1582C147.915 36.3838 148.245 36.6354 148.505 36.913L147.477 38.2144C147.217 37.9715 146.939 37.7632 146.644 37.5897C146.349 37.4075 146.033 37.2687 145.694 37.1733C145.356 37.0778 144.992 37.0301 144.601 37.0301C144.176 37.0301 143.768 37.1039 143.378 37.2514C142.996 37.3902 142.653 37.5941 142.35 37.863C142.055 38.1233 141.816 38.4399 141.634 38.813C141.461 39.1861 141.374 39.6068 141.374 40.0753C141.374 40.5612 141.461 40.995 141.634 41.3767C141.816 41.7498 142.068 42.0708 142.389 42.3397C142.71 42.6 143.074 42.7995 143.482 42.9383C143.898 43.0772 144.337 43.1466 144.796 43.1466C145.222 43.1466 145.603 43.0945 145.942 42.9904C146.28 42.8776 146.584 42.7345 146.853 42.5609C147.13 42.3874 147.382 42.2096 147.607 42.0274L148.427 43.3808C148.193 43.5977 147.881 43.8146 147.49 44.0315C147.1 44.2397 146.657 44.4132 146.163 44.552C145.677 44.6909 145.169 44.7603 144.64 44.7603ZM150.256 44.6301L154.316 35.5205H156.021L160.068 44.6301H158.286L155.787 39.0082C155.718 38.8694 155.644 38.7046 155.566 38.5137C155.496 38.3228 155.423 38.1276 155.345 37.9281C155.266 37.7199 155.193 37.5203 155.123 37.3294C155.054 37.1299 154.993 36.952 154.941 36.7959L155.332 36.7829C155.271 36.9651 155.206 37.1559 155.136 37.3555C155.067 37.5463 154.993 37.7415 154.915 37.9411C154.837 38.1406 154.759 38.3315 154.681 38.5137C154.603 38.6959 154.529 38.8737 154.46 39.0472L151.974 44.6301H150.256ZM152.078 42.626L152.677 41.1555H157.544L157.96 42.626H152.078ZM162.61 44.6301V35.5205H167.321C167.902 35.5205 168.423 35.6463 168.883 35.8979C169.343 36.1409 169.707 36.4792 169.976 36.913C170.254 37.3468 170.392 37.8413 170.392 38.3966C170.392 38.9345 170.249 39.429 169.963 39.8801C169.677 40.3226 169.295 40.674 168.818 40.9342C168.34 41.1945 167.811 41.3246 167.23 41.3246H164.263V44.6301H162.61ZM168.818 44.6301L166.059 40.5178L167.829 40.1925L170.848 44.6431L168.818 44.6301ZM164.263 39.8541H167.152C167.43 39.8541 167.681 39.7934 167.907 39.6719C168.132 39.5418 168.31 39.3683 168.44 39.1514C168.579 38.9345 168.648 38.6915 168.648 38.4226C168.648 38.1536 168.575 37.9194 168.427 37.7199C168.28 37.5116 168.08 37.3468 167.829 37.2253C167.586 37.1039 167.308 37.0431 166.996 37.0431H164.263V39.8541ZM173.984 44.6301V35.5205H178.227C178.99 35.5205 179.671 35.6377 180.27 35.8719C180.869 36.0975 181.376 36.4185 181.793 36.8349C182.209 37.2514 182.521 37.7372 182.73 38.2925C182.947 38.839 183.055 39.4333 183.055 40.0753C183.055 40.726 182.947 41.329 182.73 41.8842C182.521 42.4308 182.209 42.9123 181.793 43.3288C181.376 43.7365 180.869 44.0575 180.27 44.2918C179.671 44.5173 178.99 44.6301 178.227 44.6301H173.984ZM175.676 43.3157L175.546 43.0685H178.162C178.691 43.0685 179.151 42.9947 179.541 42.8472C179.94 42.6911 180.27 42.4785 180.53 42.2096C180.791 41.9406 180.981 41.6283 181.103 41.2726C181.233 40.9082 181.298 40.5091 181.298 40.0753C181.298 39.6502 181.233 39.2598 181.103 38.9041C180.981 38.5397 180.786 38.223 180.517 37.9541C180.257 37.6765 179.932 37.4639 179.541 37.3164C179.151 37.1603 178.691 37.0822 178.162 37.0822H175.507L175.676 36.8609V43.3157ZM191.408 44.6301V35.5205H193.009L199.307 42.639L199.099 42.6911C199.056 42.4221 199.021 42.1488 198.995 41.8712C198.969 41.5936 198.943 41.3073 198.917 41.0123C198.9 40.7173 198.882 40.418 198.865 40.1144C198.856 39.8107 198.848 39.5071 198.839 39.2034C198.839 38.8911 198.839 38.5744 198.839 38.2534V35.5205H200.518V44.6301H198.891L192.566 37.6157L192.827 37.5246C192.853 37.8283 192.879 38.1103 192.905 38.3705C192.931 38.6221 192.952 38.8694 192.97 39.1123C192.996 39.3552 193.017 39.5895 193.035 39.8151C193.052 40.032 193.065 40.2488 193.074 40.4657C193.082 40.6826 193.087 40.8952 193.087 41.1034V44.6301H191.408ZM208.331 44.7082C207.498 44.7082 206.761 44.5347 206.119 44.1877C205.477 43.832 204.974 43.3461 204.609 42.7301C204.254 42.1141 204.076 41.4201 204.076 40.6479V35.5075H205.781V40.5699C205.781 41.0644 205.893 41.5068 206.119 41.8972C206.345 42.279 206.653 42.5826 207.043 42.8082C207.433 43.0251 207.863 43.1336 208.331 43.1336C208.835 43.1336 209.286 43.0251 209.685 42.8082C210.084 42.5826 210.396 42.279 210.622 41.8972C210.847 41.5068 210.96 41.0644 210.96 40.5699V35.5075H212.6V40.6479C212.6 41.4201 212.418 42.1141 212.053 42.7301C211.698 43.3461 211.199 43.832 210.557 44.1877C209.923 44.5347 209.182 44.7082 208.331 44.7082ZM216.152 44.6301V35.5205H217.753L221.54 40.7781L220.694 40.7651L224.494 35.5205H226.068V44.6301H224.39V41.1294C224.39 40.3833 224.407 39.6979 224.442 39.0733C224.476 38.4399 224.546 37.8023 224.65 37.1603L224.832 37.7589L221.513 42.1575H220.655L217.388 37.7589L217.57 37.1603C217.674 37.7849 217.744 38.4096 217.779 39.0342C217.813 39.6589 217.831 40.3573 217.831 41.1294V44.6301H216.152ZM229.737 44.6301V35.5205H234.266C234.969 35.5205 235.559 35.6116 236.036 35.7938C236.513 35.9673 236.873 36.2233 237.116 36.5616C237.359 36.9 237.481 37.3121 237.481 37.7979C237.481 38.2925 237.333 38.7132 237.038 39.0603C236.743 39.4073 236.314 39.6546 235.75 39.802L235.789 39.5418C236.188 39.6285 236.552 39.776 236.882 39.9842C237.212 40.1838 237.472 40.4484 237.663 40.7781C237.862 41.0991 237.962 41.4808 237.962 41.9233C237.962 42.4178 237.867 42.8386 237.676 43.1856C237.494 43.5326 237.238 43.8103 236.908 44.0185C236.587 44.2267 236.218 44.3829 235.802 44.487C235.394 44.5824 234.965 44.6301 234.513 44.6301H229.737ZM231.39 43.1075H234.513C234.869 43.1075 235.177 43.0641 235.437 42.9774C235.698 42.882 235.897 42.7431 236.036 42.5609C236.184 42.3701 236.257 42.1402 236.257 41.8712C236.257 41.5849 236.171 41.355 235.997 41.1815C235.824 41.008 235.598 40.8822 235.32 40.8041C235.043 40.7173 234.752 40.674 234.448 40.674H231.39V43.1075ZM231.39 39.2164H234.305C234.583 39.2164 234.834 39.173 235.06 39.0863C235.286 38.9909 235.459 38.8607 235.581 38.6959C235.711 38.531 235.776 38.3358 235.776 38.1103C235.776 37.7546 235.628 37.4899 235.333 37.3164C235.038 37.1342 234.652 37.0431 234.175 37.0431H231.39V39.2164ZM240.985 44.6301V35.5205H247.96V37.0562H242.65V43.0945H248.012V44.6301H240.985ZM241.844 40.726V39.2164H247.296V40.726H241.844ZM251.368 44.6301V35.5205H256.079C256.66 35.5205 257.18 35.6463 257.64 35.8979C258.1 36.1409 258.464 36.4792 258.733 36.913C259.011 37.3468 259.15 37.8413 259.15 38.3966C259.15 38.9345 259.007 39.429 258.72 39.8801C258.434 40.3226 258.052 40.674 257.575 40.9342C257.098 41.1945 256.569 41.3246 255.987 41.3246H253.02V44.6301H251.368ZM257.575 44.6301L254.816 40.5178L256.586 40.1925L259.605 44.6431L257.575 44.6301ZM253.02 39.8541H255.909C256.187 39.8541 256.439 39.7934 256.664 39.6719C256.89 39.5418 257.068 39.3683 257.198 39.1514C257.337 38.9345 257.406 38.6915 257.406 38.4226C257.406 38.1536 257.332 37.9194 257.185 37.7199C257.037 37.5116 256.838 37.3468 256.586 37.2253C256.343 37.1039 256.066 37.0431 255.753 37.0431H253.02V39.8541Z" fill="black"/>
<path d="M145.011 74.9391V60.8947L145.975 62.1804L141.896 64.2327L141.055 61.0183L145.778 58.5952H148.671V74.9391H145.011ZM141.426 76.1506V72.8126H151.934V76.1506H141.426ZM156.776 76.1506L155.911 73.9253L161.202 68.8565C161.614 68.4608 162.034 68.0487 162.463 67.6202C162.908 67.1916 163.312 66.7547 163.675 66.3097C164.054 65.8646 164.351 65.436 164.565 65.0239C164.796 64.5953 164.911 64.1915 164.911 63.8123C164.911 63.4002 164.82 63.0458 164.639 62.7491C164.474 62.4524 164.21 62.2299 163.848 62.0815C163.485 61.9167 163.048 61.8343 162.537 61.8343C162.043 61.8343 161.556 61.9414 161.078 62.1557C160.6 62.3535 160.139 62.6667 159.694 63.0953C159.265 63.5074 158.87 64.0431 158.507 64.7025L155.762 63.0706C156.224 62.1804 156.801 61.3974 157.493 60.7216C158.202 60.0293 159.018 59.4853 159.941 59.0897C160.881 58.6941 161.878 58.4962 162.933 58.4962C164.054 58.4962 165.043 58.7105 165.9 59.1391C166.757 59.5512 167.417 60.1199 167.878 60.8452C168.356 61.5705 168.595 62.4112 168.595 63.3673C168.595 63.8618 168.513 64.3481 168.348 64.8261C168.2 65.3041 167.985 65.7822 167.705 66.2602C167.425 66.7218 167.087 67.1833 166.691 67.6449C166.312 68.1064 165.9 68.5762 165.455 69.0543C165.01 69.5158 164.54 69.9774 164.046 70.4389L159.743 74.5187L159.471 72.8126H169.312V76.1506H156.776ZM179.247 76.3979C177.681 76.3979 176.338 76.0682 175.217 75.4089C174.096 74.7495 173.123 73.8017 172.299 72.5654L175.019 70.6367C175.349 71.0983 175.72 71.5351 176.132 71.9472C176.544 72.3428 177.014 72.6643 177.541 72.9115C178.069 73.1588 178.654 73.2824 179.297 73.2824C179.907 73.2824 180.484 73.1835 181.028 72.9857C181.571 72.7879 182.017 72.4912 182.363 72.0956C182.725 71.6835 182.907 71.1725 182.907 70.5626C182.907 69.9856 182.75 69.5158 182.437 69.1532C182.124 68.7905 181.72 68.5268 181.225 68.3619C180.731 68.1971 180.212 68.1147 179.668 68.1147C179.387 68.1147 179.099 68.1394 178.802 68.1889C178.522 68.2218 178.258 68.2795 178.011 68.3619C177.764 68.4279 177.516 68.502 177.269 68.5845L176.305 66.458L181.571 61.315L182.091 62.0321L173.437 61.9332V58.7435H185.231L185.923 60.598L179.494 66.8289L178.629 65.4195C178.81 65.3536 179.091 65.2959 179.47 65.2465C179.849 65.197 180.228 65.1723 180.607 65.1723C181.382 65.1723 182.107 65.3124 182.783 65.5926C183.475 65.8564 184.085 66.2273 184.613 66.7053C185.157 67.1668 185.577 67.7191 185.874 68.3619C186.187 69.0048 186.344 69.6971 186.344 70.4389C186.344 71.6093 186.022 72.6478 185.379 73.5544C184.753 74.4445 183.904 75.1451 182.833 75.6561C181.778 76.1506 180.582 76.3979 179.247 76.3979ZM198.215 76.1506V60.9441L200.441 60.9689L192.479 70.2906L192.157 69.079H205.213V72.1697H190.773L189.264 69.3015L198.561 58.7435H201.8V76.1506H198.215ZM225.122 76.3237C223.803 76.3237 222.584 76.0682 221.463 75.5572C220.342 75.0297 219.402 74.3292 218.644 73.4555L220.597 71.0323C221.306 71.7247 222.031 72.2522 222.773 72.6148C223.515 72.961 224.265 73.1341 225.023 73.1341C225.732 73.1341 226.358 73.0187 226.902 72.7879C227.446 72.5406 227.867 72.1945 228.163 71.7494C228.477 71.3043 228.633 70.7933 228.633 70.2164C228.633 69.6724 228.477 69.1861 228.163 68.7576C227.85 68.329 227.43 67.991 226.902 67.7438C226.391 67.48 225.798 67.3482 225.122 67.3482C224.529 67.3482 223.993 67.4059 223.515 67.5213C223.053 67.6202 222.625 67.752 222.229 67.9169C221.834 68.0817 221.471 68.2548 221.141 68.4361L219.46 66.2849L220.523 58.7435H230.809V61.9332H222.402L223.268 60.8452L222.452 66.3344L221.314 65.7657C221.578 65.5349 221.957 65.3206 222.452 65.1228C222.946 64.925 223.49 64.7602 224.084 64.6283C224.677 64.4964 225.262 64.4305 225.839 64.4305C226.993 64.4305 228.04 64.6778 228.979 65.1723C229.919 65.6503 230.669 66.3262 231.229 67.1998C231.806 68.0735 232.095 69.0955 232.095 70.2658C232.095 71.4032 231.782 72.4335 231.155 73.3566C230.545 74.2632 229.713 74.9885 228.658 75.5325C227.603 76.06 226.424 76.3237 225.122 76.3237ZM242.686 76.1506C241.746 76.1506 240.856 76.0023 240.016 75.7056C239.191 75.3924 238.466 74.9555 237.84 74.3951C237.213 73.8346 236.719 73.1835 236.356 72.4417C236.01 71.6835 235.837 70.851 235.837 69.9444C235.837 69.2356 235.927 68.5597 236.109 67.9169C236.29 67.274 236.537 66.6476 236.851 66.0377C237.164 65.4278 237.526 64.8261 237.939 64.2327C238.351 63.6228 238.796 63.0046 239.274 62.3782L242.191 58.5704H245.974L246.073 58.8177L241.944 63.8865C241.45 64.5294 240.988 65.1723 240.559 65.8152C240.147 66.4415 239.776 67.0844 239.447 67.7438C239.134 68.3867 238.87 69.046 238.656 69.7219L237.395 68.1641C237.625 67.6037 237.947 67.0762 238.359 66.5817C238.787 66.0871 239.282 65.6586 239.842 65.2959C240.403 64.9168 241.013 64.6201 241.672 64.4058C242.332 64.175 243.007 64.0596 243.7 64.0596C244.788 64.0596 245.777 64.3151 246.667 64.8261C247.557 65.3206 248.274 65.9965 248.818 66.8536C249.362 67.7108 249.634 68.6669 249.634 69.7219C249.634 70.9087 249.337 71.9884 248.744 72.961C248.167 73.9335 247.351 74.7083 246.296 75.2852C245.257 75.8622 244.054 76.1506 242.686 76.1506ZM242.735 73.0104C243.411 73.0104 244.021 72.8868 244.565 72.6395C245.109 72.3923 245.538 72.0461 245.851 71.601C246.164 71.1395 246.321 70.5955 246.321 69.9691C246.321 69.4581 246.164 68.9801 245.851 68.535C245.554 68.0899 245.134 67.7273 244.59 67.4471C244.062 67.1504 243.452 67.002 242.76 67.002C242.035 67.002 241.408 67.1339 240.881 67.3976C240.353 67.6614 239.941 68.024 239.645 68.4856C239.348 68.9306 239.2 69.4169 239.2 69.9444C239.2 70.5213 239.348 71.0406 239.645 71.5021C239.941 71.9637 240.345 72.3346 240.856 72.6148C241.384 72.8786 242.01 73.0104 242.735 73.0104ZM255.076 76.1506L262.074 60.4249L262.964 62.0321H253.049V58.7435H265.115L265.486 60.6474L258.859 76.1506H255.076ZM275.579 76.2248C274.244 76.2248 273.057 75.994 272.019 75.5325C270.98 75.0544 270.156 74.4198 269.546 73.6286C268.953 72.8209 268.656 71.9307 268.656 70.9582C268.656 70.2823 268.755 69.6971 268.953 69.2026C269.167 68.7081 269.455 68.2795 269.818 67.9169C270.197 67.5542 270.626 67.2493 271.104 67.002C271.582 66.7547 272.076 66.5405 272.587 66.3591L272.34 67.4718C271.961 67.307 271.59 67.1009 271.227 66.8536C270.865 66.5899 270.543 66.2932 270.263 65.9635C269.983 65.6173 269.76 65.2382 269.596 64.8261C269.431 64.3975 269.348 63.936 269.348 63.4415C269.348 62.5348 269.62 61.7271 270.164 61.0183C270.725 60.293 271.475 59.7161 272.414 59.2875C273.354 58.8589 274.409 58.6446 275.579 58.6446C276.733 58.6446 277.772 58.8589 278.695 59.2875C279.634 59.7161 280.376 60.293 280.92 61.0183C281.464 61.7271 281.736 62.5348 281.736 63.4415C281.736 63.9525 281.654 64.4223 281.489 64.8508C281.324 65.2794 281.093 65.6586 280.796 65.9882C280.516 66.3179 280.195 66.6064 279.832 66.8536C279.486 67.1009 279.132 67.307 278.769 67.4718L278.596 66.4333C279.14 66.5981 279.643 66.8207 280.104 67.1009C280.582 67.3647 281.002 67.6861 281.365 68.0652C281.728 68.4444 282.008 68.8729 282.206 69.351C282.404 69.829 282.503 70.3647 282.503 70.9582C282.503 71.9472 282.198 72.8456 281.588 73.6533C280.978 74.4445 280.154 75.0709 279.115 75.5325C278.077 75.994 276.898 76.2248 275.579 76.2248ZM275.579 73.1835C276.222 73.1835 276.799 73.0846 277.31 72.8868C277.821 72.689 278.225 72.4088 278.522 72.0461C278.818 71.6835 278.967 71.2714 278.967 70.8098C278.967 70.3483 278.818 69.9444 278.522 69.5982C278.225 69.2356 277.821 68.9554 277.31 68.7576C276.799 68.5433 276.222 68.4361 275.579 68.4361C274.903 68.4361 274.31 68.5433 273.799 68.7576C273.288 68.9554 272.884 69.2356 272.587 69.5982C272.291 69.9444 272.142 70.3483 272.142 70.8098C272.142 71.2549 272.282 71.6587 272.563 72.0214C272.859 72.384 273.263 72.6725 273.774 72.8868C274.302 73.0846 274.903 73.1835 275.579 73.1835ZM275.579 65.5679C276.107 65.5679 276.585 65.4855 277.013 65.3206C277.442 65.1393 277.78 64.892 278.027 64.5789C278.274 64.2492 278.398 63.87 278.398 63.4415C278.398 63.0623 278.274 62.7326 278.027 62.4524C277.796 62.1557 277.467 61.9249 277.038 61.7601C276.61 61.5788 276.123 61.4881 275.579 61.4881C275.002 61.4881 274.491 61.5788 274.046 61.7601C273.618 61.9249 273.28 62.1557 273.032 62.4524C272.802 62.7326 272.686 63.0623 272.686 63.4415C272.686 63.87 272.81 64.2492 273.057 64.5789C273.304 64.892 273.642 65.1393 274.071 65.3206C274.516 65.4855 275.019 65.5679 275.579 65.5679ZM304.571 76.3979C302.89 76.3979 301.456 76.027 300.269 75.2852C299.099 74.5434 298.208 73.5132 297.599 72.1945C297.005 70.8593 296.708 69.2933 296.708 67.4965C296.708 65.6998 297.005 64.142 297.599 62.8233C298.208 61.4881 299.099 60.4496 300.269 59.7078C301.456 58.966 302.89 58.5952 304.571 58.5952C306.236 58.5952 307.646 58.966 308.799 59.7078C309.953 60.4496 310.827 61.4881 311.42 62.8233C312.014 64.142 312.311 65.6998 312.311 67.4965C312.311 69.2933 312.014 70.8593 311.42 72.1945C310.827 73.5132 309.953 74.5434 308.799 75.2852C307.646 76.027 306.236 76.3979 304.571 76.3979ZM304.571 73.2082C305.89 73.2082 306.912 72.7137 307.637 71.7247C308.379 70.7356 308.75 69.3263 308.75 67.4965C308.75 65.6338 308.379 64.1997 307.637 63.1942C306.912 62.1887 305.89 61.6859 304.571 61.6859C303.203 61.6859 302.14 62.1887 301.382 63.1942C300.623 64.1997 300.244 65.6338 300.244 67.4965C300.244 69.3263 300.623 70.7356 301.382 71.7247C302.14 72.7137 303.203 73.2082 304.571 73.2082ZM323.744 76.3979C322.062 76.3979 320.628 76.027 319.441 75.2852C318.271 74.5434 317.381 73.5132 316.771 72.1945C316.177 70.8593 315.881 69.2933 315.881 67.4965C315.881 65.6998 316.177 64.142 316.771 62.8233C317.381 61.4881 318.271 60.4496 319.441 59.7078C320.628 58.966 322.062 58.5952 323.744 58.5952C325.409 58.5952 326.818 58.966 327.972 59.7078C329.126 60.4496 329.999 61.4881 330.593 62.8233C331.186 64.142 331.483 65.6998 331.483 67.4965C331.483 69.2933 331.186 70.8593 330.593 72.1945C329.999 73.5132 329.126 74.5434 327.972 75.2852C326.818 76.027 325.409 76.3979 323.744 76.3979ZM323.744 73.2082C325.062 73.2082 326.084 72.7137 326.81 71.7247C327.551 70.7356 327.922 69.3263 327.922 67.4965C327.922 65.6338 327.551 64.1997 326.81 63.1942C326.084 62.1887 325.062 61.6859 323.744 61.6859C322.375 61.6859 321.312 62.1887 320.554 63.1942C319.796 64.1997 319.417 65.6338 319.417 67.4965C319.417 69.3263 319.796 70.7356 320.554 71.7247C321.312 72.7137 322.375 73.2082 323.744 73.2082ZM342.916 76.3979C341.235 76.3979 339.8 76.027 338.614 75.2852C337.443 74.5434 336.553 73.5132 335.943 72.1945C335.35 70.8593 335.053 69.2933 335.053 67.4965C335.053 65.6998 335.35 64.142 335.943 62.8233C336.553 61.4881 337.443 60.4496 338.614 59.7078C339.8 58.966 341.235 58.5952 342.916 58.5952C344.581 58.5952 345.99 58.966 347.144 59.7078C348.298 60.4496 349.172 61.4881 349.765 62.8233C350.358 64.142 350.655 65.6998 350.655 67.4965C350.655 69.2933 350.358 70.8593 349.765 72.1945C349.172 73.5132 348.298 74.5434 347.144 75.2852C345.99 76.027 344.581 76.3979 342.916 76.3979ZM342.916 73.2082C344.235 73.2082 345.257 72.7137 345.982 71.7247C346.724 70.7356 347.095 69.3263 347.095 67.4965C347.095 65.6338 346.724 64.1997 345.982 63.1942C345.257 62.1887 344.235 61.6859 342.916 61.6859C341.548 61.6859 340.485 62.1887 339.726 63.1942C338.968 64.1997 338.589 65.6338 338.589 67.4965C338.589 69.3263 338.968 70.7356 339.726 71.7247C340.485 72.7137 341.548 73.2082 342.916 73.2082ZM362.088 76.3979C360.407 76.3979 358.973 76.027 357.786 75.2852C356.616 74.5434 355.725 73.5132 355.116 72.1945C354.522 70.8593 354.225 69.2933 354.225 67.4965C354.225 65.6998 354.522 64.142 355.116 62.8233C355.725 61.4881 356.616 60.4496 357.786 59.7078C358.973 58.966 360.407 58.5952 362.088 58.5952C363.753 58.5952 365.163 58.966 366.316 59.7078C367.47 60.4496 368.344 61.4881 368.937 62.8233C369.531 64.142 369.828 65.6998 369.828 67.4965C369.828 69.2933 369.531 70.8593 368.937 72.1945C368.344 73.5132 367.47 74.5434 366.316 75.2852C365.163 76.027 363.753 76.3979 362.088 76.3979ZM362.088 73.2082C363.407 73.2082 364.429 72.7137 365.154 71.7247C365.896 70.7356 366.267 69.3263 366.267 67.4965C366.267 65.6338 365.896 64.1997 365.154 63.1942C364.429 62.1887 363.407 61.6859 362.088 61.6859C360.72 61.6859 359.657 62.1887 358.899 63.1942C358.14 64.1997 357.761 65.6338 357.761 67.4965C357.761 69.3263 358.14 70.7356 358.899 71.7247C359.657 72.7137 360.72 73.2082 362.088 73.2082ZM391.692 76.3979C390.011 76.3979 388.576 76.027 387.39 75.2852C386.219 74.5434 385.329 73.5132 384.719 72.1945C384.126 70.8593 383.829 69.2933 383.829 67.4965C383.829 65.6998 384.126 64.142 384.719 62.8233C385.329 61.4881 386.219 60.4496 387.39 59.7078C388.576 58.966 390.011 58.5952 391.692 58.5952C393.357 58.5952 394.766 58.966 395.92 59.7078C397.074 60.4496 397.948 61.4881 398.541 62.8233C399.134 64.142 399.431 65.6998 399.431 67.4965C399.431 69.2933 399.134 70.8593 398.541 72.1945C397.948 73.5132 397.074 74.5434 395.92 75.2852C394.766 76.027 393.357 76.3979 391.692 76.3979ZM391.692 73.2082C393.011 73.2082 394.033 72.7137 394.758 71.7247C395.5 70.7356 395.871 69.3263 395.871 67.4965C395.871 65.6338 395.5 64.1997 394.758 63.1942C394.033 62.1887 393.011 61.6859 391.692 61.6859C390.324 61.6859 389.261 62.1887 388.502 63.1942C387.744 64.1997 387.365 65.6338 387.365 67.4965C387.365 69.3263 387.744 70.7356 388.502 71.7247C389.261 72.7137 390.324 73.2082 391.692 73.2082ZM410.864 76.3979C409.183 76.3979 407.749 76.027 406.562 75.2852C405.392 74.5434 404.501 73.5132 403.892 72.1945C403.298 70.8593 403.001 69.2933 403.001 67.4965C403.001 65.6998 403.298 64.142 403.892 62.8233C404.501 61.4881 405.392 60.4496 406.562 59.7078C407.749 58.966 409.183 58.5952 410.864 58.5952C412.529 58.5952 413.939 58.966 415.092 59.7078C416.246 60.4496 417.12 61.4881 417.713 62.8233C418.307 64.142 418.603 65.6998 418.603 67.4965C418.603 69.2933 418.307 70.8593 417.713 72.1945C417.12 73.5132 416.246 74.5434 415.092 75.2852C413.939 76.027 412.529 76.3979 410.864 76.3979ZM410.864 73.2082C412.183 73.2082 413.205 72.7137 413.93 71.7247C414.672 70.7356 415.043 69.3263 415.043 67.4965C415.043 65.6338 414.672 64.1997 413.93 63.1942C413.205 62.1887 412.183 61.6859 410.864 61.6859C409.496 61.6859 408.433 62.1887 407.675 63.1942C406.916 64.1997 406.537 65.6338 406.537 67.4965C406.537 69.3263 406.916 70.7356 407.675 71.7247C408.433 72.7137 409.496 73.2082 410.864 73.2082ZM430.037 76.3979C428.355 76.3979 426.921 76.027 425.734 75.2852C424.564 74.5434 423.674 73.5132 423.064 72.1945C422.47 70.8593 422.174 69.2933 422.174 67.4965C422.174 65.6998 422.47 64.142 423.064 62.8233C423.674 61.4881 424.564 60.4496 425.734 59.7078C426.921 58.966 428.355 58.5952 430.037 58.5952C431.701 58.5952 433.111 58.966 434.265 59.7078C435.419 60.4496 436.292 61.4881 436.886 62.8233C437.479 64.142 437.776 65.6998 437.776 67.4965C437.776 69.2933 437.479 70.8593 436.886 72.1945C436.292 73.5132 435.419 74.5434 434.265 75.2852C433.111 76.027 431.701 76.3979 430.037 76.3979ZM430.037 73.2082C431.355 73.2082 432.377 72.7137 433.103 71.7247C433.844 70.7356 434.215 69.3263 434.215 67.4965C434.215 65.6338 433.844 64.1997 433.103 63.1942C432.377 62.1887 431.355 61.6859 430.037 61.6859C428.668 61.6859 427.605 62.1887 426.847 63.1942C426.089 64.1997 425.71 65.6338 425.71 67.4965C425.71 69.3263 426.089 70.7356 426.847 71.7247C427.605 72.7137 428.668 73.2082 430.037 73.2082ZM449.209 76.3979C447.528 76.3979 446.093 76.027 444.907 75.2852C443.736 74.5434 442.846 73.5132 442.236 72.1945C441.643 70.8593 441.346 69.2933 441.346 67.4965C441.346 65.6998 441.643 64.142 442.236 62.8233C442.846 61.4881 443.736 60.4496 444.907 59.7078C446.093 58.966 447.528 58.5952 449.209 58.5952C450.874 58.5952 452.283 58.966 453.437 59.7078C454.591 60.4496 455.465 61.4881 456.058 62.8233C456.651 64.142 456.948 65.6998 456.948 67.4965C456.948 69.2933 456.651 70.8593 456.058 72.1945C455.465 73.5132 454.591 74.5434 453.437 75.2852C452.283 76.027 450.874 76.3979 449.209 76.3979ZM449.209 73.2082C450.528 73.2082 451.55 72.7137 452.275 71.7247C453.017 70.7356 453.388 69.3263 453.388 67.4965C453.388 65.6338 453.017 64.1997 452.275 63.1942C451.55 62.1887 450.528 61.6859 449.209 61.6859C447.841 61.6859 446.778 62.1887 446.019 63.1942C445.261 64.1997 444.882 65.6338 444.882 67.4965C444.882 69.3263 445.261 70.7356 446.019 71.7247C446.778 72.7137 447.841 73.2082 449.209 73.2082Z" fill="black"/>
<path d="M148.621 218.247C147.401 218.247 146.28 218.124 145.258 217.876C144.236 217.613 143.313 217.242 142.489 216.764C141.665 216.286 140.931 215.709 140.288 215.033L142.316 212.189C143.387 213.261 144.459 214.011 145.53 214.439C146.602 214.868 147.706 215.082 148.844 215.082C149.421 215.082 149.981 215.008 150.525 214.86C151.086 214.711 151.539 214.497 151.885 214.217C152.248 213.92 152.429 213.541 152.429 213.08C152.429 212.783 152.338 212.527 152.157 212.313C151.976 212.099 151.737 211.917 151.44 211.769C151.143 211.621 150.797 211.497 150.401 211.398C150.006 211.283 149.585 211.192 149.14 211.126C148.712 211.044 148.267 210.978 147.805 210.928C146.767 210.764 145.835 210.541 145.011 210.261C144.203 209.981 143.511 209.626 142.934 209.198C142.357 208.752 141.92 208.241 141.624 207.665C141.343 207.071 141.203 206.395 141.203 205.637C141.203 204.829 141.393 204.096 141.772 203.436C142.151 202.777 142.679 202.217 143.354 201.755C144.03 201.293 144.813 200.947 145.703 200.717C146.61 200.469 147.583 200.346 148.621 200.346C149.759 200.346 150.772 200.461 151.662 200.692C152.553 200.923 153.344 201.252 154.036 201.681C154.728 202.093 155.297 202.587 155.742 203.164L153.616 205.612C153.204 205.184 152.717 204.813 152.157 204.5C151.613 204.186 151.036 203.947 150.426 203.783C149.816 203.618 149.198 203.535 148.572 203.535C147.879 203.535 147.269 203.609 146.742 203.758C146.231 203.89 145.819 204.096 145.506 204.376C145.209 204.64 145.061 204.978 145.061 205.39C145.061 205.719 145.176 206.008 145.407 206.255C145.638 206.502 145.942 206.708 146.322 206.873C146.701 207.022 147.138 207.154 147.632 207.269C148.127 207.368 148.646 207.458 149.19 207.541C150.146 207.689 151.053 207.879 151.91 208.11C152.767 208.324 153.525 208.621 154.184 209C154.844 209.362 155.355 209.84 155.718 210.434C156.08 211.011 156.261 211.736 156.261 212.61C156.261 213.78 155.932 214.786 155.272 215.626C154.63 216.467 153.739 217.118 152.602 217.58C151.465 218.025 150.138 218.247 148.621 218.247ZM159.517 218L167.256 200.692H170.792L178.531 218H174.674L170.149 207.838C170.001 207.541 169.852 207.211 169.704 206.849C169.572 206.486 169.432 206.123 169.284 205.761C169.152 205.398 169.02 205.035 168.888 204.673C168.773 204.294 168.666 203.947 168.567 203.634L169.358 203.609C169.243 203.989 169.119 204.359 168.987 204.722C168.872 205.068 168.74 205.423 168.591 205.785C168.46 206.148 168.319 206.502 168.171 206.849C168.023 207.195 167.874 207.549 167.726 207.912L163.226 218H159.517ZM163.053 214.514L164.289 211.522H173.586L174.427 214.514H163.053ZM191.187 218.247C189.802 218.247 188.508 218.041 187.305 217.629C186.101 217.217 185.063 216.632 184.189 215.874C183.315 215.099 182.631 214.159 182.137 213.055C181.642 211.95 181.395 210.698 181.395 209.296C181.395 208.027 181.642 206.857 182.137 205.785C182.648 204.697 183.357 203.758 184.263 202.967C185.186 202.159 186.266 201.532 187.502 201.087C188.755 200.642 190.115 200.42 191.582 200.42C192.703 200.42 193.75 200.552 194.722 200.815C195.711 201.079 196.585 201.425 197.343 201.854C198.118 202.282 198.745 202.761 199.223 203.288L196.923 205.785C196.445 205.39 195.926 205.044 195.365 204.747C194.805 204.434 194.203 204.195 193.56 204.03C192.934 203.848 192.266 203.758 191.558 203.758C190.667 203.758 189.835 203.898 189.06 204.178C188.302 204.458 187.634 204.846 187.057 205.34C186.48 205.835 186.035 206.42 185.722 207.096C185.409 207.772 185.252 208.505 185.252 209.296C185.252 210.203 185.417 211.011 185.747 211.72C186.093 212.412 186.555 212.997 187.132 213.475C187.725 213.937 188.393 214.291 189.134 214.538C189.893 214.769 190.7 214.885 191.558 214.885C192.299 214.885 193 214.802 193.659 214.637C194.319 214.472 194.887 214.233 195.365 213.92C195.86 213.607 196.247 213.244 196.527 212.832C196.808 212.404 196.94 211.942 196.923 211.448L196.898 210.953L197.418 211.744H191.286V208.703H200.533C200.55 208.917 200.566 209.148 200.583 209.395C200.599 209.643 200.615 209.873 200.632 210.088C200.648 210.302 200.657 210.459 200.657 210.557C200.657 211.777 200.426 212.865 199.964 213.821C199.503 214.761 198.852 215.56 198.011 216.22C197.17 216.879 196.173 217.382 195.019 217.728C193.865 218.074 192.588 218.247 191.187 218.247ZM203.633 218L211.372 200.692H214.908L222.647 218H218.79L214.265 207.838C214.117 207.541 213.968 207.211 213.82 206.849C213.688 206.486 213.548 206.123 213.399 205.761C213.268 205.398 213.136 205.035 213.004 204.673C212.888 204.294 212.781 203.947 212.682 203.634L213.474 203.609C213.358 203.989 213.235 204.359 213.103 204.722C212.987 205.068 212.855 205.423 212.707 205.785C212.575 206.148 212.435 206.502 212.287 206.849C212.138 207.195 211.99 207.549 211.842 207.912L207.342 218H203.633ZM207.169 214.514L208.405 211.522H217.702L218.542 214.514H207.169ZM227.181 218V200.692H236.181C237.351 200.692 238.39 200.931 239.296 201.409C240.219 201.87 240.936 202.513 241.447 203.337C241.958 204.162 242.214 205.109 242.214 206.181C242.214 207.252 241.942 208.217 241.398 209.074C240.854 209.931 240.121 210.615 239.197 211.126C238.274 211.621 237.244 211.868 236.107 211.868H230.766V218H227.181ZM238.752 218L233.51 210.187L237.368 209.568L243.104 218.025L238.752 218ZM230.766 208.851H235.785C236.296 208.851 236.75 208.744 237.145 208.53C237.541 208.299 237.854 207.994 238.085 207.615C238.332 207.236 238.456 206.807 238.456 206.329C238.456 205.835 238.324 205.406 238.06 205.044C237.813 204.681 237.467 204.401 237.022 204.203C236.593 204.005 236.107 203.906 235.563 203.906H230.766V208.851Z" fill="black"/>
<path d="M146.072 179.661C144.744 179.661 143.612 179.368 142.675 178.783C141.751 178.197 141.048 177.384 140.567 176.343C140.098 175.288 139.864 174.052 139.864 172.634C139.864 171.215 140.098 169.985 140.567 168.944C141.048 167.89 141.751 167.07 142.675 166.485C143.612 165.899 144.744 165.606 146.072 165.606C147.386 165.606 148.499 165.899 149.41 166.485C150.321 167.07 151.01 167.89 151.479 168.944C151.947 169.985 152.182 171.215 152.182 172.634C152.182 174.052 151.947 175.288 151.479 176.343C151.01 177.384 150.321 178.197 149.41 178.783C148.499 179.368 147.386 179.661 146.072 179.661ZM146.072 177.143C147.113 177.143 147.92 176.752 148.492 175.972C149.078 175.191 149.371 174.078 149.371 172.634C149.371 171.163 149.078 170.031 148.492 169.237C147.92 168.443 147.113 168.046 146.072 168.046C144.992 168.046 144.152 168.443 143.554 169.237C142.955 170.031 142.656 171.163 142.656 172.634C142.656 174.078 142.955 175.191 143.554 175.972C144.152 176.752 144.992 177.143 146.072 177.143ZM160.154 179.602C159.113 179.602 158.15 179.401 157.265 178.997C156.38 178.581 155.638 178.028 155.039 177.338L156.581 175.425C157.141 175.972 157.714 176.388 158.299 176.674C158.885 176.948 159.477 177.084 160.076 177.084C160.635 177.084 161.13 176.993 161.559 176.811C161.989 176.616 162.32 176.343 162.555 175.991C162.802 175.64 162.926 175.236 162.926 174.781C162.926 174.351 162.802 173.968 162.555 173.629C162.307 173.291 161.976 173.024 161.559 172.829C161.156 172.621 160.687 172.517 160.154 172.517C159.685 172.517 159.262 172.562 158.885 172.653C158.52 172.731 158.182 172.835 157.87 172.965C157.557 173.096 157.271 173.232 157.011 173.375L155.683 171.677L156.523 165.723H164.643V168.242H158.006L158.69 167.383L158.045 171.716L157.148 171.267C157.356 171.085 157.655 170.916 158.045 170.76C158.436 170.603 158.865 170.473 159.334 170.369C159.802 170.265 160.264 170.213 160.72 170.213C161.631 170.213 162.457 170.408 163.199 170.799C163.941 171.176 164.533 171.71 164.975 172.399C165.431 173.089 165.658 173.896 165.658 174.82C165.658 175.718 165.411 176.531 164.917 177.26C164.435 177.976 163.778 178.548 162.945 178.978C162.112 179.394 161.182 179.602 160.154 179.602ZM167.597 182.179L175.698 165.801H178.802L170.72 182.179H167.597ZM181.877 179.466L181.193 177.709L185.371 173.707C185.696 173.395 186.028 173.07 186.366 172.731C186.718 172.393 187.036 172.048 187.323 171.697C187.622 171.345 187.856 171.007 188.026 170.682C188.208 170.343 188.299 170.024 188.299 169.725C188.299 169.4 188.227 169.12 188.084 168.886C187.954 168.651 187.746 168.476 187.459 168.359C187.173 168.228 186.828 168.163 186.425 168.163C186.034 168.163 185.651 168.248 185.273 168.417C184.896 168.573 184.531 168.821 184.18 169.159C183.842 169.484 183.529 169.907 183.243 170.428L181.076 169.139C181.441 168.437 181.896 167.819 182.443 167.285C183.002 166.738 183.646 166.309 184.375 165.997C185.117 165.684 185.904 165.528 186.737 165.528C187.622 165.528 188.403 165.697 189.08 166.036C189.756 166.361 190.277 166.81 190.641 167.383C191.019 167.955 191.207 168.619 191.207 169.374C191.207 169.764 191.142 170.148 191.012 170.525C190.895 170.903 190.726 171.28 190.505 171.658C190.283 172.022 190.017 172.386 189.704 172.751C189.405 173.115 189.08 173.486 188.728 173.863C188.377 174.228 188.006 174.592 187.616 174.957L184.219 178.177L184.004 176.831H191.773V179.466H181.877ZM199.5 179.602C198.459 179.602 197.496 179.401 196.611 178.997C195.726 178.581 194.984 178.028 194.385 177.338L195.928 175.425C196.487 175.972 197.06 176.388 197.645 176.674C198.231 176.948 198.823 177.084 199.422 177.084C199.981 177.084 200.476 176.993 200.905 176.811C201.335 176.616 201.667 176.343 201.901 175.991C202.148 175.64 202.272 175.236 202.272 174.781C202.272 174.351 202.148 173.968 201.901 173.629C201.654 173.291 201.322 173.024 200.905 172.829C200.502 172.621 200.033 172.517 199.5 172.517C199.031 172.517 198.608 172.562 198.231 172.653C197.867 172.731 197.528 172.835 197.216 172.965C196.904 173.096 196.617 173.232 196.357 173.375L195.03 171.677L195.869 165.723H203.99V168.242H197.353L198.036 167.383L197.392 171.716L196.494 171.267C196.702 171.085 197.001 170.916 197.392 170.76C197.782 170.603 198.211 170.473 198.68 170.369C199.148 170.265 199.61 170.213 200.066 170.213C200.977 170.213 201.803 170.408 202.545 170.799C203.287 171.176 203.879 171.71 204.321 172.399C204.777 173.089 205.005 173.896 205.005 174.82C205.005 175.718 204.757 176.531 204.263 177.26C203.781 177.976 203.124 178.548 202.291 178.978C201.458 179.394 200.528 179.602 199.5 179.602Z" fill="black"/>
<path d="M323.956 179.602C322.915 179.602 321.952 179.401 321.067 178.997C320.182 178.581 319.44 178.028 318.842 177.338L320.384 175.425C320.943 175.972 321.516 176.388 322.101 176.674C322.687 176.948 323.279 177.084 323.878 177.084C324.437 177.084 324.932 176.993 325.361 176.811C325.791 176.616 326.123 176.343 326.357 175.991C326.604 175.64 326.728 175.236 326.728 174.781C326.728 174.351 326.604 173.968 326.357 173.629C326.11 173.291 325.778 173.024 325.361 172.829C324.958 172.621 324.49 172.517 323.956 172.517C323.487 172.517 323.065 172.562 322.687 172.653C322.323 172.731 321.984 172.835 321.672 172.965C321.36 173.096 321.073 173.232 320.813 173.375L319.486 171.677L320.325 165.723H328.446V168.242H321.809L322.492 167.383L321.848 171.716L320.95 171.267C321.158 171.085 321.457 170.916 321.848 170.76C322.238 170.603 322.668 170.473 323.136 170.369C323.605 170.265 324.067 170.213 324.522 170.213C325.433 170.213 326.259 170.408 327.001 170.799C327.743 171.176 328.335 171.71 328.778 172.399C329.233 173.089 329.461 173.896 329.461 174.82C329.461 175.718 329.213 176.531 328.719 177.26C328.237 177.976 327.58 178.548 326.747 178.978C325.915 179.394 324.984 179.602 323.956 179.602ZM338.017 179.524C336.963 179.524 336.026 179.342 335.206 178.978C334.386 178.6 333.736 178.099 333.254 177.475C332.786 176.837 332.552 176.134 332.552 175.367C332.552 174.833 332.63 174.371 332.786 173.981C332.955 173.59 333.183 173.252 333.469 172.965C333.768 172.679 334.107 172.438 334.484 172.243C334.861 172.048 335.252 171.879 335.655 171.736L335.46 172.614C335.161 172.484 334.868 172.321 334.582 172.126C334.295 171.918 334.042 171.684 333.82 171.423C333.599 171.15 333.423 170.851 333.293 170.525C333.163 170.187 333.098 169.823 333.098 169.432C333.098 168.717 333.313 168.079 333.742 167.519C334.185 166.947 334.777 166.491 335.519 166.153C336.26 165.814 337.093 165.645 338.017 165.645C338.928 165.645 339.748 165.814 340.477 166.153C341.219 166.491 341.804 166.947 342.234 167.519C342.663 168.079 342.878 168.717 342.878 169.432C342.878 169.836 342.813 170.207 342.683 170.545C342.553 170.883 342.37 171.183 342.136 171.443C341.915 171.703 341.661 171.931 341.375 172.126C341.102 172.321 340.822 172.484 340.535 172.614L340.399 171.794C340.828 171.924 341.225 172.1 341.59 172.321C341.967 172.53 342.299 172.783 342.585 173.083C342.871 173.382 343.093 173.72 343.249 174.098C343.405 174.475 343.483 174.898 343.483 175.367C343.483 176.147 343.242 176.857 342.761 177.494C342.279 178.119 341.629 178.613 340.809 178.978C339.989 179.342 339.058 179.524 338.017 179.524ZM338.017 177.123C338.525 177.123 338.98 177.045 339.384 176.889C339.787 176.733 340.106 176.512 340.34 176.225C340.574 175.939 340.692 175.614 340.692 175.249C340.692 174.885 340.574 174.566 340.34 174.293C340.106 174.007 339.787 173.785 339.384 173.629C338.98 173.46 338.525 173.375 338.017 173.375C337.484 173.375 337.015 173.46 336.612 173.629C336.208 173.785 335.89 174.007 335.655 174.293C335.421 174.566 335.304 174.885 335.304 175.249C335.304 175.601 335.415 175.92 335.636 176.206C335.87 176.492 336.189 176.72 336.592 176.889C337.009 177.045 337.484 177.123 338.017 177.123ZM338.017 171.111C338.434 171.111 338.811 171.046 339.149 170.916C339.488 170.773 339.755 170.577 339.95 170.33C340.145 170.07 340.243 169.771 340.243 169.432C340.243 169.133 340.145 168.873 339.95 168.651C339.768 168.417 339.507 168.235 339.169 168.105C338.831 167.962 338.447 167.89 338.017 167.89C337.562 167.89 337.158 167.962 336.807 168.105C336.469 168.235 336.202 168.417 336.007 168.651C335.824 168.873 335.733 169.133 335.733 169.432C335.733 169.771 335.831 170.07 336.026 170.33C336.221 170.577 336.488 170.773 336.827 170.916C337.178 171.046 337.575 171.111 338.017 171.111ZM352.983 179.466V167.461L354.74 167.48L348.454 174.839L348.2 173.883H358.507V176.323H347.107L345.916 174.059L353.256 165.723H355.813V179.466H352.983Z" fill="black"/>
</g>
<g filter="url(#filter1_d_48_71)">
<rect x="33.6988" y="94.7465" width="402.123" height="245.959" rx="23.3014" fill="#FBBF24" stroke="black" stroke-width="2.60274"/>
<rect x="62.3288" y="193.378" width="62.4657" height="47.0679" rx="10.411" fill="black" stroke="black" stroke-width="2.60274"/>
<rect x="62.3289" y="190.397" width="62.4657" height="47.0679" rx="10.411" fill="white" stroke="black" stroke-width="2.60274"/>
<rect x="89.151" y="227.034" width="26.7029" height="8.32479" rx="4.1624" transform="rotate(-90 89.151 227.034)" stroke="black" stroke-width="2.60274"/>
<path d="M98.2805 207.474H126.096" stroke="black" stroke-width="2.60274"/>
<path d="M98.2805 218.898H126.096" stroke="black" stroke-width="2.60274"/>
<path d="M61.5241 207.722H88.3462" stroke="black" stroke-width="2.60274"/>
<path d="M61.5241 218.898H88.3462" stroke="black" stroke-width="2.60274"/>
<path d="M69.1612 137.808C68.4498 137.808 67.7904 137.7 67.1831 137.483C66.5758 137.257 66.0466 136.936 65.5954 136.52C65.1443 136.095 64.7929 135.596 64.5413 135.023C64.2897 134.442 64.1639 133.804 64.1639 133.11C64.1639 132.442 64.2941 131.826 64.5543 131.262C64.8233 130.69 65.1877 130.195 65.6475 129.779C66.1073 129.354 66.6409 129.028 67.2482 128.803C67.8555 128.568 68.5062 128.451 69.2002 128.451C69.7208 128.451 70.224 128.521 70.7098 128.659C71.1957 128.79 71.6381 128.972 72.0372 129.206C72.4363 129.432 72.766 129.683 73.0263 129.961L71.9982 131.262C71.7379 131.019 71.4603 130.811 71.1653 130.638C70.8703 130.455 70.5536 130.317 70.2153 130.221C69.8769 130.126 69.5126 130.078 69.1221 130.078C68.697 130.078 68.2893 130.152 67.8989 130.299C67.5171 130.438 67.1744 130.642 66.8708 130.911C66.5758 131.171 66.3372 131.488 66.155 131.861C65.9815 132.234 65.8947 132.655 65.8947 133.123C65.8947 133.609 65.9815 134.043 66.155 134.425C66.3372 134.798 66.5888 135.119 66.9098 135.388C67.2308 135.648 67.5952 135.847 68.003 135.986C68.4194 136.125 68.8575 136.194 69.3173 136.194C69.7425 136.194 70.1242 136.142 70.4626 136.038C70.8009 135.925 71.1046 135.782 71.3735 135.609C71.6511 135.435 71.9027 135.257 72.1283 135.075L72.9482 136.429C72.7139 136.646 72.4016 136.862 72.0112 137.079C71.6208 137.288 71.1783 137.461 70.6838 137.6C70.1979 137.739 69.6904 137.808 69.1612 137.808ZM74.7771 137.678L78.8374 128.568H80.5422L84.5894 137.678H82.8066L80.3079 132.056C80.2385 131.917 80.1648 131.752 80.0867 131.562C80.0173 131.371 79.9435 131.175 79.8655 130.976C79.7874 130.768 79.7136 130.568 79.6442 130.377C79.5748 130.178 79.5141 130 79.462 129.844L79.8524 129.831C79.7917 130.013 79.7266 130.204 79.6572 130.403C79.5878 130.594 79.5141 130.789 79.436 130.989C79.3579 131.188 79.2798 131.379 79.2018 131.562C79.1237 131.744 79.0499 131.922 78.9805 132.095L76.4949 137.678H74.7771ZM76.599 135.674L77.1977 134.203H82.0648L82.4812 135.674H76.599ZM87.1311 137.678V128.568H91.842C92.4233 128.568 92.9439 128.694 93.4037 128.946C93.8635 129.189 94.2279 129.527 94.4968 129.961C94.7744 130.395 94.9133 130.889 94.9133 131.444C94.9133 131.982 94.7701 132.477 94.4838 132.928C94.1975 133.37 93.8158 133.722 93.3386 133.982C92.8614 134.242 92.3322 134.372 91.7509 134.372H88.7838V137.678H87.1311ZM93.3386 137.678L90.5797 133.566L92.3496 133.24L95.3687 137.691L93.3386 137.678ZM88.7838 132.902H91.6728C91.9505 132.902 92.2021 132.841 92.4276 132.72C92.6532 132.59 92.8311 132.416 92.9612 132.199C93.1 131.982 93.1694 131.739 93.1694 131.47C93.1694 131.201 93.0957 130.967 92.9482 130.768C92.8007 130.559 92.6012 130.395 92.3496 130.273C92.1066 130.152 91.829 130.091 91.5167 130.091H88.7838V132.902ZM98.5053 137.678V128.568H102.748C103.511 128.568 104.192 128.686 104.791 128.92C105.39 129.145 105.897 129.466 106.314 129.883C106.73 130.299 107.042 130.785 107.251 131.34C107.467 131.887 107.576 132.481 107.576 133.123C107.576 133.774 107.467 134.377 107.251 134.932C107.042 135.479 106.73 135.96 106.314 136.377C105.897 136.784 105.39 137.105 104.791 137.34C104.192 137.565 103.511 137.678 102.748 137.678H98.5053ZM100.197 136.364L100.067 136.116H102.683C103.212 136.116 103.672 136.043 104.062 135.895C104.461 135.739 104.791 135.526 105.051 135.257C105.312 134.988 105.502 134.676 105.624 134.32C105.754 133.956 105.819 133.557 105.819 133.123C105.819 132.698 105.754 132.308 105.624 131.952C105.502 131.588 105.307 131.271 105.038 131.002C104.778 130.724 104.453 130.512 104.062 130.364C103.672 130.208 103.212 130.13 102.683 130.13H100.028L100.197 129.909V136.364ZM115.929 137.678V128.568H117.53L123.828 135.687L123.62 135.739C123.577 135.47 123.542 135.197 123.516 134.919C123.49 134.641 123.464 134.355 123.438 134.06C123.421 133.765 123.403 133.466 123.386 133.162C123.377 132.859 123.368 132.555 123.36 132.251C123.36 131.939 123.36 131.622 123.36 131.301V128.568H125.039V137.678H123.412L117.087 130.664L117.347 130.572C117.373 130.876 117.4 131.158 117.426 131.418C117.452 131.67 117.473 131.917 117.491 132.16C117.517 132.403 117.538 132.637 117.556 132.863C117.573 133.08 117.586 133.297 117.595 133.514C117.603 133.73 117.608 133.943 117.608 134.151V137.678H115.929ZM132.852 137.756C132.019 137.756 131.282 137.583 130.64 137.236C129.998 136.88 129.495 136.394 129.13 135.778C128.775 135.162 128.597 134.468 128.597 133.696V128.555H130.302V133.618C130.302 134.112 130.414 134.555 130.64 134.945C130.866 135.327 131.173 135.63 131.564 135.856C131.954 136.073 132.384 136.181 132.852 136.181C133.355 136.181 133.807 136.073 134.206 135.856C134.605 135.63 134.917 135.327 135.143 134.945C135.368 134.555 135.481 134.112 135.481 133.618V128.555H137.121V133.696C137.121 134.468 136.939 135.162 136.574 135.778C136.218 136.394 135.72 136.88 135.078 137.236C134.444 137.583 133.702 137.756 132.852 137.756ZM140.673 137.678V128.568H142.273L146.06 133.826L145.215 133.813L149.015 128.568H150.589V137.678H148.91V134.177C148.91 133.431 148.928 132.746 148.963 132.121C148.997 131.488 149.067 130.85 149.171 130.208L149.353 130.807L146.034 135.205H145.176L141.909 130.807L142.091 130.208C142.195 130.833 142.265 131.457 142.299 132.082C142.334 132.707 142.352 133.405 142.352 134.177V137.678H140.673ZM154.258 137.678V128.568H158.787C159.49 128.568 160.08 128.659 160.557 128.842C161.034 129.015 161.394 129.271 161.637 129.609C161.88 129.948 162.002 130.36 162.002 130.846C162.002 131.34 161.854 131.761 161.559 132.108C161.264 132.455 160.835 132.702 160.271 132.85L160.31 132.59C160.709 132.676 161.073 132.824 161.403 133.032C161.733 133.232 161.993 133.496 162.184 133.826C162.383 134.147 162.483 134.529 162.483 134.971C162.483 135.466 162.388 135.886 162.197 136.233C162.015 136.58 161.759 136.858 161.429 137.066C161.108 137.275 160.739 137.431 160.323 137.535C159.915 137.63 159.486 137.678 159.034 137.678H154.258ZM155.911 136.155H159.034C159.39 136.155 159.698 136.112 159.958 136.025C160.219 135.93 160.418 135.791 160.557 135.609C160.704 135.418 160.778 135.188 160.778 134.919C160.778 134.633 160.691 134.403 160.518 134.229C160.344 134.056 160.119 133.93 159.841 133.852C159.564 133.765 159.273 133.722 158.969 133.722H155.911V136.155ZM155.911 132.264H158.826C159.104 132.264 159.355 132.221 159.581 132.134C159.807 132.039 159.98 131.909 160.102 131.744C160.232 131.579 160.297 131.384 160.297 131.158C160.297 130.802 160.149 130.538 159.854 130.364C159.559 130.182 159.173 130.091 158.696 130.091H155.911V132.264ZM165.506 137.678V128.568H172.481V130.104H167.171V136.142H172.533V137.678H165.506ZM166.364 133.774V132.264H171.817V133.774H166.364ZM175.889 137.678V128.568H180.6C181.181 128.568 181.701 128.694 182.161 128.946C182.621 129.189 182.985 129.527 183.254 129.961C183.532 130.395 183.671 130.889 183.671 131.444C183.671 131.982 183.528 132.477 183.241 132.928C182.955 133.37 182.573 133.722 182.096 133.982C181.619 134.242 181.09 134.372 180.508 134.372H177.541V137.678H175.889ZM182.096 137.678L179.337 133.566L181.107 133.24L184.126 137.691L182.096 137.678ZM177.541 132.902H180.43C180.708 132.902 180.96 132.841 181.185 132.72C181.411 132.59 181.589 132.416 181.719 132.199C181.858 131.982 181.927 131.739 181.927 131.47C181.927 131.201 181.853 130.967 181.706 130.768C181.558 130.559 181.359 130.395 181.107 130.273C180.864 130.152 180.587 130.091 180.274 130.091H177.541V132.902Z" fill="black"/>
<path d="M69.5321 167.987V153.943L70.4964 155.228L66.4166 157.281L65.5759 154.066L70.2986 151.643H73.1915V167.987H69.5321ZM65.9468 169.198V165.86H76.4554V169.198H65.9468ZM81.297 169.198L80.4316 166.973L85.723 161.904C86.1351 161.509 86.5554 161.097 86.984 160.668C87.4291 160.239 87.8329 159.803 88.1956 159.358C88.5747 158.912 88.8714 158.484 89.0857 158.072C89.3165 157.643 89.4319 157.239 89.4319 156.86C89.4319 156.448 89.3412 156.094 89.1599 155.797C88.9951 155.5 88.7313 155.278 88.3687 155.129C88.006 154.965 87.5692 154.882 87.0582 154.882C86.5637 154.882 86.0774 154.989 85.5994 155.204C85.1213 155.401 84.6598 155.715 84.2147 156.143C83.7861 156.555 83.3905 157.091 83.0278 157.75L80.2833 156.118C80.7448 155.228 81.3218 154.445 82.0141 153.769C82.7229 153.077 83.5389 152.533 84.462 152.138C85.4015 151.742 86.3988 151.544 87.4538 151.544C88.5747 151.544 89.5638 151.758 90.4209 152.187C91.2781 152.599 91.9375 153.168 92.399 153.893C92.8771 154.618 93.1161 155.459 93.1161 156.415C93.1161 156.91 93.0337 157.396 92.8688 157.874C92.7205 158.352 92.5062 158.83 92.2259 159.308C91.9457 159.77 91.6078 160.231 91.2122 160.693C90.833 161.154 90.4209 161.624 89.9759 162.102C89.5308 162.564 89.061 163.025 88.5665 163.487L84.2642 167.567L83.9922 165.86H93.8331V169.198H81.297ZM103.768 169.446C102.202 169.446 100.859 169.116 99.7378 168.457C98.6169 167.797 97.6443 166.85 96.8201 165.613L99.54 163.685C99.8697 164.146 100.241 164.583 100.653 164.995C101.065 165.391 101.535 165.712 102.062 165.959C102.59 166.207 103.175 166.33 103.818 166.33C104.428 166.33 105.004 166.231 105.548 166.034C106.092 165.836 106.537 165.539 106.884 165.143C107.246 164.731 107.428 164.22 107.428 163.61C107.428 163.033 107.271 162.564 106.958 162.201C106.645 161.838 106.241 161.575 105.746 161.41C105.252 161.245 104.732 161.163 104.189 161.163C103.908 161.163 103.62 161.187 103.323 161.237C103.043 161.27 102.779 161.327 102.532 161.41C102.285 161.476 102.037 161.55 101.79 161.632L100.826 159.506L106.092 154.363L106.612 155.08L97.9575 154.981V151.791H109.752L110.444 153.646L104.015 159.877L103.15 158.467C103.331 158.401 103.612 158.344 103.991 158.294C104.37 158.245 104.749 158.22 105.128 158.22C105.903 158.22 106.628 158.36 107.304 158.64C107.996 158.904 108.606 159.275 109.134 159.753C109.678 160.215 110.098 160.767 110.395 161.41C110.708 162.053 110.865 162.745 110.865 163.487C110.865 164.657 110.543 165.696 109.9 166.602C109.274 167.492 108.425 168.193 107.353 168.704C106.298 169.198 105.103 169.446 103.768 169.446ZM122.736 169.198V153.992L124.961 154.017L117 163.338L116.678 162.127H129.734V165.218H115.294L113.785 162.349L123.082 151.791H126.321V169.198H122.736ZM149.643 169.372C148.324 169.372 147.105 169.116 145.984 168.605C144.863 168.078 143.923 167.377 143.165 166.503L145.118 164.08C145.827 164.773 146.552 165.3 147.294 165.663C148.036 166.009 148.786 166.182 149.544 166.182C150.253 166.182 150.879 166.067 151.423 165.836C151.967 165.588 152.388 165.242 152.684 164.797C152.998 164.352 153.154 163.841 153.154 163.264C153.154 162.72 152.998 162.234 152.684 161.805C152.371 161.377 151.951 161.039 151.423 160.792C150.912 160.528 150.319 160.396 149.643 160.396C149.05 160.396 148.514 160.454 148.036 160.569C147.574 160.668 147.146 160.8 146.75 160.965C146.354 161.13 145.992 161.303 145.662 161.484L143.981 159.333L145.044 151.791H155.33V154.981H146.923L147.789 153.893L146.973 159.382L145.835 158.814C146.099 158.583 146.478 158.368 146.973 158.171C147.467 157.973 148.011 157.808 148.605 157.676C149.198 157.544 149.783 157.478 150.36 157.478C151.514 157.478 152.561 157.726 153.5 158.22C154.44 158.698 155.19 159.374 155.75 160.248C156.327 161.121 156.616 162.143 156.616 163.314C156.616 164.451 156.303 165.481 155.676 166.404C155.066 167.311 154.234 168.036 153.179 168.58C152.124 169.108 150.945 169.372 149.643 169.372ZM167.207 169.198C166.267 169.198 165.377 169.05 164.536 168.753C163.712 168.44 162.987 168.003 162.361 167.443C161.734 166.882 161.24 166.231 160.877 165.49C160.531 164.731 160.358 163.899 160.358 162.992C160.358 162.283 160.448 161.608 160.63 160.965C160.811 160.322 161.058 159.695 161.372 159.086C161.685 158.476 162.047 157.874 162.459 157.281C162.872 156.671 163.317 156.052 163.795 155.426L166.712 151.618H170.495L170.594 151.866L166.465 156.934C165.971 157.577 165.509 158.22 165.08 158.863C164.668 159.489 164.297 160.132 163.968 160.792C163.655 161.435 163.391 162.094 163.177 162.77L161.915 161.212C162.146 160.652 162.468 160.124 162.88 159.63C163.308 159.135 163.803 158.706 164.363 158.344C164.924 157.965 165.534 157.668 166.193 157.454C166.852 157.223 167.528 157.107 168.221 157.107C169.309 157.107 170.298 157.363 171.188 157.874C172.078 158.368 172.795 159.044 173.339 159.901C173.883 160.759 174.155 161.715 174.155 162.77C174.155 163.957 173.858 165.036 173.265 166.009C172.688 166.981 171.872 167.756 170.817 168.333C169.778 168.91 168.575 169.198 167.207 169.198ZM167.256 166.058C167.932 166.058 168.542 165.935 169.086 165.687C169.63 165.44 170.059 165.094 170.372 164.649C170.685 164.187 170.842 163.643 170.842 163.017C170.842 162.506 170.685 162.028 170.372 161.583C170.075 161.138 169.655 160.775 169.111 160.495C168.583 160.198 167.973 160.05 167.281 160.05C166.556 160.05 165.929 160.182 165.402 160.445C164.874 160.709 164.462 161.072 164.166 161.533C163.869 161.978 163.72 162.465 163.72 162.992C163.72 163.569 163.869 164.088 164.166 164.55C164.462 165.012 164.866 165.382 165.377 165.663C165.905 165.926 166.531 166.058 167.256 166.058ZM179.597 169.198L186.595 153.473L187.485 155.08H177.57V151.791H189.636L190.007 153.695L183.38 169.198H179.597ZM200.1 169.273C198.765 169.273 197.578 169.042 196.54 168.58C195.501 168.102 194.677 167.468 194.067 166.676C193.474 165.869 193.177 164.979 193.177 164.006C193.177 163.33 193.276 162.745 193.474 162.25C193.688 161.756 193.976 161.327 194.339 160.965C194.718 160.602 195.147 160.297 195.625 160.05C196.103 159.803 196.597 159.588 197.108 159.407L196.861 160.52C196.482 160.355 196.111 160.149 195.748 159.901C195.386 159.638 195.064 159.341 194.784 159.011C194.504 158.665 194.281 158.286 194.116 157.874C193.952 157.445 193.869 156.984 193.869 156.489C193.869 155.583 194.141 154.775 194.685 154.066C195.246 153.341 195.996 152.764 196.935 152.335C197.875 151.907 198.93 151.692 200.1 151.692C201.254 151.692 202.293 151.907 203.216 152.335C204.155 152.764 204.897 153.341 205.441 154.066C205.985 154.775 206.257 155.583 206.257 156.489C206.257 157 206.175 157.47 206.01 157.899C205.845 158.327 205.614 158.706 205.317 159.036C205.037 159.366 204.716 159.654 204.353 159.901C204.007 160.149 203.652 160.355 203.29 160.52L203.117 159.481C203.661 159.646 204.164 159.869 204.625 160.149C205.103 160.413 205.523 160.734 205.886 161.113C206.249 161.492 206.529 161.921 206.727 162.399C206.925 162.877 207.023 163.413 207.023 164.006C207.023 164.995 206.719 165.893 206.109 166.701C205.499 167.492 204.675 168.119 203.636 168.58C202.598 169.042 201.419 169.273 200.1 169.273ZM200.1 166.231C200.743 166.231 201.32 166.132 201.831 165.935C202.342 165.737 202.746 165.457 203.043 165.094C203.339 164.731 203.488 164.319 203.488 163.858C203.488 163.396 203.339 162.992 203.043 162.646C202.746 162.283 202.342 162.003 201.831 161.805C201.32 161.591 200.743 161.484 200.1 161.484C199.424 161.484 198.831 161.591 198.32 161.805C197.809 162.003 197.405 162.283 197.108 162.646C196.812 162.992 196.663 163.396 196.663 163.858C196.663 164.303 196.803 164.707 197.084 165.069C197.38 165.432 197.784 165.72 198.295 165.935C198.823 166.132 199.424 166.231 200.1 166.231ZM200.1 158.616C200.628 158.616 201.106 158.533 201.534 158.368C201.963 158.187 202.301 157.94 202.548 157.627C202.795 157.297 202.919 156.918 202.919 156.489C202.919 156.11 202.795 155.78 202.548 155.5C202.317 155.204 201.988 154.973 201.559 154.808C201.13 154.627 200.644 154.536 200.1 154.536C199.523 154.536 199.012 154.627 198.567 154.808C198.139 154.973 197.801 155.204 197.553 155.5C197.323 155.78 197.207 156.11 197.207 156.489C197.207 156.918 197.331 157.297 197.578 157.627C197.825 157.94 198.163 158.187 198.592 158.368C199.037 158.533 199.54 158.616 200.1 158.616ZM229.092 169.446C227.411 169.446 225.977 169.075 224.79 168.333C223.62 167.591 222.729 166.561 222.119 165.242C221.526 163.907 221.229 162.341 221.229 160.544C221.229 158.748 221.526 157.19 222.119 155.871C222.729 154.536 223.62 153.497 224.79 152.756C225.977 152.014 227.411 151.643 229.092 151.643C230.757 151.643 232.167 152.014 233.32 152.756C234.474 153.497 235.348 154.536 235.941 155.871C236.535 157.19 236.831 158.748 236.831 160.544C236.831 162.341 236.535 163.907 235.941 165.242C235.348 166.561 234.474 167.591 233.32 168.333C232.167 169.075 230.757 169.446 229.092 169.446ZM229.092 166.256C230.411 166.256 231.433 165.762 232.158 164.773C232.9 163.783 233.271 162.374 233.271 160.544C233.271 158.682 232.9 157.248 232.158 156.242C231.433 155.237 230.411 154.734 229.092 154.734C227.724 154.734 226.661 155.237 225.903 156.242C225.144 157.248 224.765 158.682 224.765 160.544C224.765 162.374 225.144 163.783 225.903 164.773C226.661 165.762 227.724 166.256 229.092 166.256ZM248.265 169.446C246.583 169.446 245.149 169.075 243.962 168.333C242.792 167.591 241.902 166.561 241.292 165.242C240.698 163.907 240.402 162.341 240.402 160.544C240.402 158.748 240.698 157.19 241.292 155.871C241.902 154.536 242.792 153.497 243.962 152.756C245.149 152.014 246.583 151.643 248.265 151.643C249.929 151.643 251.339 152.014 252.493 152.756C253.647 153.497 254.52 154.536 255.114 155.871C255.707 157.19 256.004 158.748 256.004 160.544C256.004 162.341 255.707 163.907 255.114 165.242C254.52 166.561 253.647 167.591 252.493 168.333C251.339 169.075 249.929 169.446 248.265 169.446ZM248.265 166.256C249.583 166.256 250.605 165.762 251.331 164.773C252.072 163.783 252.443 162.374 252.443 160.544C252.443 158.682 252.072 157.248 251.331 156.242C250.605 155.237 249.583 154.734 248.265 154.734C246.896 154.734 245.833 155.237 245.075 156.242C244.317 157.248 243.938 158.682 243.938 160.544C243.938 162.374 244.317 163.783 245.075 164.773C245.833 165.762 246.896 166.256 248.265 166.256ZM267.437 169.446C265.756 169.446 264.321 169.075 263.135 168.333C261.964 167.591 261.074 166.561 260.464 165.242C259.871 163.907 259.574 162.341 259.574 160.544C259.574 158.748 259.871 157.19 260.464 155.871C261.074 154.536 261.964 153.497 263.135 152.756C264.321 152.014 265.756 151.643 267.437 151.643C269.102 151.643 270.511 152.014 271.665 152.756C272.819 153.497 273.693 154.536 274.286 155.871C274.879 157.19 275.176 158.748 275.176 160.544C275.176 162.341 274.879 163.907 274.286 165.242C273.693 166.561 272.819 167.591 271.665 168.333C270.511 169.075 269.102 169.446 267.437 169.446ZM267.437 166.256C268.756 166.256 269.778 165.762 270.503 164.773C271.245 163.783 271.616 162.374 271.616 160.544C271.616 158.682 271.245 157.248 270.503 156.242C269.778 155.237 268.756 154.734 267.437 154.734C266.069 154.734 265.006 155.237 264.247 156.242C263.489 157.248 263.11 158.682 263.11 160.544C263.11 162.374 263.489 163.783 264.247 164.773C265.006 165.762 266.069 166.256 267.437 166.256ZM286.609 169.446C284.928 169.446 283.494 169.075 282.307 168.333C281.137 167.591 280.246 166.561 279.636 165.242C279.043 163.907 278.746 162.341 278.746 160.544C278.746 158.748 279.043 157.19 279.636 155.871C280.246 154.536 281.137 153.497 282.307 152.756C283.494 152.014 284.928 151.643 286.609 151.643C288.274 151.643 289.684 152.014 290.837 152.756C291.991 153.497 292.865 154.536 293.458 155.871C294.052 157.19 294.348 158.748 294.348 160.544C294.348 162.341 294.052 163.907 293.458 165.242C292.865 166.561 291.991 167.591 290.837 168.333C289.684 169.075 288.274 169.446 286.609 169.446ZM286.609 166.256C287.928 166.256 288.95 165.762 289.675 164.773C290.417 163.783 290.788 162.374 290.788 160.544C290.788 158.682 290.417 157.248 289.675 156.242C288.95 155.237 287.928 154.734 286.609 154.734C285.241 154.734 284.178 155.237 283.42 156.242C282.661 157.248 282.282 158.682 282.282 160.544C282.282 162.374 282.661 163.783 283.42 164.773C284.178 165.762 285.241 166.256 286.609 166.256ZM316.213 169.446C314.531 169.446 313.097 169.075 311.911 168.333C310.74 167.591 309.85 166.561 309.24 165.242C308.647 163.907 308.35 162.341 308.35 160.544C308.35 158.748 308.647 157.19 309.24 155.871C309.85 154.536 310.74 153.497 311.911 152.756C313.097 152.014 314.531 151.643 316.213 151.643C317.878 151.643 319.287 152.014 320.441 152.756C321.595 153.497 322.469 154.536 323.062 155.871C323.655 157.19 323.952 158.748 323.952 160.544C323.952 162.341 323.655 163.907 323.062 165.242C322.469 166.561 321.595 167.591 320.441 168.333C319.287 169.075 317.878 169.446 316.213 169.446ZM316.213 166.256C317.532 166.256 318.554 165.762 319.279 164.773C320.021 163.783 320.392 162.374 320.392 160.544C320.392 158.682 320.021 157.248 319.279 156.242C318.554 155.237 317.532 154.734 316.213 154.734C314.845 154.734 313.781 155.237 313.023 156.242C312.265 157.248 311.886 158.682 311.886 160.544C311.886 162.374 312.265 163.783 313.023 164.773C313.781 165.762 314.845 166.256 316.213 166.256ZM335.385 169.446C333.704 169.446 332.27 169.075 331.083 168.333C329.912 167.591 329.022 166.561 328.412 165.242C327.819 163.907 327.522 162.341 327.522 160.544C327.522 158.748 327.819 157.19 328.412 155.871C329.022 154.536 329.912 153.497 331.083 152.756C332.27 152.014 333.704 151.643 335.385 151.643C337.05 151.643 338.459 152.014 339.613 152.756C340.767 153.497 341.641 154.536 342.234 155.871C342.828 157.19 343.124 158.748 343.124 160.544C343.124 162.341 342.828 163.907 342.234 165.242C341.641 166.561 340.767 167.591 339.613 168.333C338.459 169.075 337.05 169.446 335.385 169.446ZM335.385 166.256C336.704 166.256 337.726 165.762 338.451 164.773C339.193 163.783 339.564 162.374 339.564 160.544C339.564 158.682 339.193 157.248 338.451 156.242C337.726 155.237 336.704 154.734 335.385 154.734C334.017 154.734 332.954 155.237 332.196 156.242C331.437 157.248 331.058 158.682 331.058 160.544C331.058 162.374 331.437 163.783 332.196 164.773C332.954 165.762 334.017 166.256 335.385 166.256ZM354.558 169.446C352.876 169.446 351.442 169.075 350.255 168.333C349.085 167.591 348.195 166.561 347.585 165.242C346.991 163.907 346.695 162.341 346.695 160.544C346.695 158.748 346.991 157.19 347.585 155.871C348.195 154.536 349.085 153.497 350.255 152.756C351.442 152.014 352.876 151.643 354.558 151.643C356.222 151.643 357.632 152.014 358.786 152.756C359.94 153.497 360.813 154.536 361.407 155.871C362 157.19 362.297 158.748 362.297 160.544C362.297 162.341 362 163.907 361.407 165.242C360.813 166.561 359.94 167.591 358.786 168.333C357.632 169.075 356.222 169.446 354.558 169.446ZM354.558 166.256C355.876 166.256 356.898 165.762 357.624 164.773C358.365 163.783 358.736 162.374 358.736 160.544C358.736 158.682 358.365 157.248 357.624 156.242C356.898 155.237 355.876 154.734 354.558 154.734C353.189 154.734 352.126 155.237 351.368 156.242C350.61 157.248 350.23 158.682 350.23 160.544C350.23 162.374 350.61 163.783 351.368 164.773C352.126 165.762 353.189 166.256 354.558 166.256ZM373.73 169.446C372.048 169.446 370.614 169.075 369.428 168.333C368.257 167.591 367.367 166.561 366.757 165.242C366.164 163.907 365.867 162.341 365.867 160.544C365.867 158.748 366.164 157.19 366.757 155.871C367.367 154.536 368.257 153.497 369.428 152.756C370.614 152.014 372.048 151.643 373.73 151.643C375.395 151.643 376.804 152.014 377.958 152.756C379.112 153.497 379.986 154.536 380.579 155.871C381.172 157.19 381.469 158.748 381.469 160.544C381.469 162.341 381.172 163.907 380.579 165.242C379.986 166.561 379.112 167.591 377.958 168.333C376.804 169.075 375.395 169.446 373.73 169.446ZM373.73 166.256C375.049 166.256 376.071 165.762 376.796 164.773C377.538 163.783 377.909 162.374 377.909 160.544C377.909 158.682 377.538 157.248 376.796 156.242C376.071 155.237 375.049 154.734 373.73 154.734C372.362 154.734 371.298 155.237 370.54 156.242C369.782 157.248 369.403 158.682 369.403 160.544C369.403 162.374 369.782 163.783 370.54 164.773C371.298 165.762 372.362 166.256 373.73 166.256Z" fill="black"/>
<path d="M73.1421 311.295C71.9223 311.295 70.8013 311.171 69.7793 310.924C68.7573 310.66 67.8342 310.29 67.01 309.812C66.1858 309.334 65.4523 308.757 64.8094 308.081L66.8369 305.237C67.9084 306.309 68.9799 307.059 70.0513 307.487C71.1228 307.916 72.2272 308.13 73.3646 308.13C73.9415 308.13 74.502 308.056 75.046 307.908C75.6064 307.759 76.0597 307.545 76.4059 307.265C76.7686 306.968 76.9499 306.589 76.9499 306.127C76.9499 305.831 76.8592 305.575 76.6779 305.361C76.4966 305.147 76.2576 304.965 75.9608 304.817C75.6641 304.669 75.318 304.545 74.9223 304.446C74.5267 304.331 74.1064 304.24 73.6613 304.174C73.2327 304.092 72.7877 304.026 72.3261 303.976C71.2876 303.811 70.3563 303.589 69.5321 303.309C68.7244 303.028 68.032 302.674 67.4551 302.245C66.8781 301.8 66.4413 301.289 66.1446 300.712C65.8644 300.119 65.7243 299.443 65.7243 298.685C65.7243 297.877 65.9138 297.144 66.293 296.484C66.6721 295.825 67.1996 295.264 67.8754 294.803C68.5513 294.341 69.3343 293.995 70.2244 293.764C71.131 293.517 72.1036 293.393 73.1421 293.393C74.2795 293.393 75.2932 293.509 76.1834 293.74C77.0735 293.97 77.8647 294.3 78.5571 294.729C79.2494 295.141 79.8181 295.635 80.2632 296.212L78.1367 298.66C77.7246 298.232 77.2384 297.861 76.6779 297.547C76.1339 297.234 75.557 296.995 74.9471 296.83C74.3372 296.666 73.719 296.583 73.0926 296.583C72.4003 296.583 71.7904 296.657 71.2629 296.806C70.7519 296.938 70.3398 297.144 70.0266 297.424C69.7299 297.688 69.5815 298.025 69.5815 298.438C69.5815 298.767 69.6969 299.056 69.9277 299.303C70.1585 299.55 70.4634 299.756 70.8426 299.921C71.2217 300.069 71.6585 300.201 72.153 300.317C72.6476 300.416 73.1668 300.506 73.7108 300.589C74.6668 300.737 75.5735 300.927 76.4306 301.157C77.2878 301.372 78.0461 301.668 78.7054 302.048C79.3648 302.41 79.8758 302.888 80.2384 303.482C80.6011 304.059 80.7824 304.784 80.7824 305.658C80.7824 306.828 80.4527 307.833 79.7934 308.674C79.1505 309.515 78.2604 310.166 77.123 310.628C75.9856 311.073 74.6586 311.295 73.1421 311.295ZM84.0379 311.048L91.7772 293.74H95.313L103.052 311.048H99.195L94.6701 300.885C94.5218 300.589 94.3734 300.259 94.2251 299.896C94.0932 299.534 93.9531 299.171 93.8047 298.808C93.6729 298.446 93.541 298.083 93.4091 297.721C93.2937 297.341 93.1866 296.995 93.0877 296.682L93.8789 296.657C93.7635 297.036 93.6399 297.407 93.508 297.77C93.3926 298.116 93.2608 298.471 93.1124 298.833C92.9805 299.196 92.8404 299.55 92.6921 299.896C92.5437 300.243 92.3953 300.597 92.247 300.96L87.7469 311.048H84.0379ZM87.5738 307.561L88.8101 304.57H98.1071L98.9477 307.561H87.5738ZM115.708 311.295C114.323 311.295 113.029 311.089 111.826 310.677C110.622 310.265 109.584 309.68 108.71 308.921C107.836 308.147 107.152 307.207 106.658 306.103C106.163 304.998 105.916 303.745 105.916 302.344C105.916 301.075 106.163 299.905 106.658 298.833C107.169 297.745 107.878 296.806 108.784 296.014C109.707 295.207 110.787 294.58 112.023 294.135C113.276 293.69 114.636 293.468 116.103 293.468C117.224 293.468 118.271 293.6 119.243 293.863C120.232 294.127 121.106 294.473 121.864 294.902C122.639 295.33 123.265 295.808 123.744 296.336L121.444 298.833C120.966 298.438 120.447 298.091 119.886 297.795C119.326 297.482 118.724 297.242 118.081 297.078C117.455 296.896 116.787 296.806 116.078 296.806C115.188 296.806 114.356 296.946 113.581 297.226C112.823 297.506 112.155 297.894 111.578 298.388C111.001 298.883 110.556 299.468 110.243 300.144C109.93 300.82 109.773 301.553 109.773 302.344C109.773 303.251 109.938 304.059 110.268 304.767C110.614 305.46 111.076 306.045 111.652 306.523C112.246 306.985 112.914 307.339 113.655 307.586C114.414 307.817 115.221 307.932 116.078 307.932C116.82 307.932 117.521 307.85 118.18 307.685C118.84 307.52 119.408 307.281 119.886 306.968C120.381 306.655 120.768 306.292 121.048 305.88C121.329 305.452 121.46 304.99 121.444 304.495L121.419 304.001L121.939 304.792H115.806V301.751H125.054C125.07 301.965 125.087 302.196 125.103 302.443C125.12 302.69 125.136 302.921 125.153 303.136C125.169 303.35 125.178 303.506 125.178 303.605C125.178 304.825 124.947 305.913 124.485 306.869C124.024 307.809 123.373 308.608 122.532 309.268C121.691 309.927 120.694 310.43 119.54 310.776C118.386 311.122 117.109 311.295 115.708 311.295ZM128.154 311.048L135.893 293.74H139.429L147.168 311.048H143.311L138.786 300.885C138.637 300.589 138.489 300.259 138.341 299.896C138.209 299.534 138.069 299.171 137.92 298.808C137.789 298.446 137.657 298.083 137.525 297.721C137.409 297.341 137.302 296.995 137.203 296.682L137.995 296.657C137.879 297.036 137.756 297.407 137.624 297.77C137.508 298.116 137.376 298.471 137.228 298.833C137.096 299.196 136.956 299.55 136.808 299.896C136.659 300.243 136.511 300.597 136.363 300.96L131.863 311.048H128.154ZM131.689 307.561L132.926 304.57H142.223L143.063 307.561H131.689ZM151.701 311.048V293.74H160.702C161.872 293.74 162.911 293.979 163.817 294.457C164.74 294.918 165.457 295.561 165.968 296.385C166.479 297.21 166.735 298.157 166.735 299.229C166.735 300.3 166.463 301.265 165.919 302.122C165.375 302.979 164.641 303.663 163.718 304.174C162.795 304.669 161.765 304.916 160.628 304.916H155.287V311.048H151.701ZM163.273 311.048L158.031 303.234L161.889 302.616L167.625 311.073L163.273 311.048ZM155.287 301.899H160.306C160.817 301.899 161.27 301.792 161.666 301.578C162.062 301.347 162.375 301.042 162.606 300.663C162.853 300.284 162.977 299.855 162.977 299.377C162.977 298.883 162.845 298.454 162.581 298.091C162.334 297.729 161.988 297.449 161.542 297.251C161.114 297.053 160.628 296.954 160.084 296.954H155.287V301.899ZM183.816 311.048V293.74H192.569C193.921 293.74 195.058 293.913 195.982 294.259C196.905 294.589 197.597 295.075 198.059 295.718C198.537 296.361 198.776 297.127 198.776 298.017C198.776 298.99 198.504 299.806 197.96 300.465C197.416 301.124 196.608 301.594 195.537 301.874L195.611 301.38C196.352 301.545 197.037 301.825 197.663 302.221C198.289 302.6 198.784 303.094 199.147 303.704C199.509 304.314 199.69 305.031 199.69 305.855C199.69 306.811 199.509 307.627 199.147 308.303C198.784 308.963 198.281 309.49 197.638 309.886C197.012 310.281 196.303 310.578 195.512 310.776C194.721 310.957 193.896 311.048 193.039 311.048H183.816ZM187.377 307.833H193.039C193.633 307.833 194.152 307.759 194.597 307.611C195.042 307.446 195.388 307.207 195.635 306.894C195.883 306.564 196.006 306.169 196.006 305.707C196.006 305.213 195.85 304.817 195.537 304.52C195.24 304.207 194.852 303.984 194.374 303.853C193.913 303.704 193.427 303.63 192.916 303.63H187.377V307.833ZM187.377 300.688H192.495C192.99 300.688 193.435 300.613 193.83 300.465C194.243 300.3 194.556 300.078 194.77 299.798C194.984 299.517 195.091 299.179 195.091 298.784C195.091 298.157 194.836 297.696 194.325 297.399C193.814 297.102 193.138 296.954 192.297 296.954H187.377V300.688ZM207.21 311.32C206.369 311.32 205.743 311.139 205.331 310.776C204.919 310.397 204.713 309.877 204.713 309.218C204.713 308.658 204.927 308.171 205.356 307.759C205.784 307.347 206.402 307.141 207.21 307.141C208.018 307.141 208.628 307.331 209.04 307.71C209.452 308.072 209.658 308.575 209.658 309.218C209.658 309.795 209.444 310.29 209.015 310.702C208.603 311.114 208.001 311.32 207.21 311.32Z" fill="black"/>
<path d="M70.5927 272.709C69.2653 272.709 68.1331 272.416 67.1961 271.83C66.2721 271.245 65.5694 270.431 65.0879 269.39C64.6194 268.336 64.3852 267.1 64.3852 265.681C64.3852 264.263 64.6194 263.033 65.0879 261.992C65.5694 260.938 66.2721 260.118 67.1961 259.533C68.1331 258.947 69.2653 258.654 70.5927 258.654C71.9071 258.654 73.0197 258.947 73.9307 259.533C74.8417 260.118 75.5314 260.938 75.9999 261.992C76.4684 263.033 76.7026 264.263 76.7026 265.681C76.7026 267.1 76.4684 268.336 75.9999 269.39C75.5314 270.431 74.8417 271.245 73.9307 271.83C73.0197 272.416 71.9071 272.709 70.5927 272.709ZM70.5927 270.191C71.6338 270.191 72.4406 269.8 73.0132 269.019C73.5989 268.239 73.8917 267.126 73.8917 265.681C73.8917 264.211 73.5989 263.079 73.0132 262.285C72.4406 261.491 71.6338 261.094 70.5927 261.094C69.5126 261.094 68.6732 261.491 68.0745 262.285C67.4759 263.079 67.1766 264.211 67.1766 265.681C67.1766 267.126 67.4759 268.239 68.0745 269.019C68.6732 269.8 69.5126 270.191 70.5927 270.191ZM84.6746 272.65C83.6335 272.65 82.6705 272.449 81.7856 272.045C80.9007 271.629 80.1589 271.076 79.5602 270.386L81.1024 268.473C81.662 269.019 82.2346 269.436 82.8202 269.722C83.4058 269.996 83.9979 270.132 84.5965 270.132C85.1561 270.132 85.6507 270.041 86.0801 269.859C86.5096 269.664 86.8414 269.39 87.0757 269.039C87.3229 268.688 87.4465 268.284 87.4465 267.829C87.4465 267.399 87.3229 267.015 87.0757 266.677C86.8284 266.339 86.4965 266.072 86.0801 265.877C85.6767 265.668 85.2082 265.564 84.6746 265.564C84.2061 265.564 83.7832 265.61 83.4058 265.701C83.0414 265.779 82.7031 265.883 82.3907 266.013C82.0784 266.143 81.7921 266.28 81.5318 266.423L80.2044 264.725L81.0438 258.771H89.1644V261.289H82.5274L83.2106 260.43L82.5664 264.764L81.6685 264.315C81.8767 264.133 82.176 263.964 82.5664 263.808C82.9568 263.651 83.3863 263.521 83.8548 263.417C84.3233 263.313 84.7852 263.261 85.2407 263.261C86.1517 263.261 86.9781 263.456 87.7198 263.847C88.4616 264.224 89.0537 264.758 89.4962 265.447C89.9517 266.137 90.1794 266.944 90.1794 267.868C90.1794 268.766 89.9322 269.579 89.4376 270.308C88.9561 271.024 88.2989 271.596 87.4661 272.026C86.6332 272.442 85.7027 272.65 84.6746 272.65ZM92.1178 275.227L100.219 258.849H103.323L95.241 275.227H92.1178ZM106.397 272.514L105.714 270.757L109.892 266.755C110.217 266.443 110.549 266.117 110.887 265.779C111.239 265.441 111.557 265.096 111.844 264.744C112.143 264.393 112.377 264.055 112.546 263.729C112.729 263.391 112.82 263.072 112.82 262.773C112.82 262.448 112.748 262.168 112.605 261.934C112.475 261.699 112.267 261.524 111.98 261.406C111.694 261.276 111.349 261.211 110.946 261.211C110.555 261.211 110.171 261.296 109.794 261.465C109.417 261.621 109.052 261.868 108.701 262.207C108.363 262.532 108.05 262.955 107.764 263.476L105.597 262.187C105.962 261.485 106.417 260.866 106.964 260.333C107.523 259.786 108.167 259.357 108.896 259.044C109.638 258.732 110.425 258.576 111.258 258.576C112.143 258.576 112.924 258.745 113.601 259.084C114.277 259.409 114.798 259.858 115.162 260.43C115.54 261.003 115.728 261.667 115.728 262.422C115.728 262.812 115.663 263.196 115.533 263.573C115.416 263.951 115.247 264.328 115.026 264.705C114.804 265.07 114.538 265.434 114.225 265.799C113.926 266.163 113.601 266.534 113.249 266.911C112.898 267.276 112.527 267.64 112.137 268.004L108.74 271.225L108.525 269.878H116.294V272.514H106.397ZM124.021 272.65C122.98 272.65 122.017 272.449 121.132 272.045C120.247 271.629 119.505 271.076 118.906 270.386L120.448 268.473C121.008 269.019 121.581 269.436 122.166 269.722C122.752 269.996 123.344 270.132 123.943 270.132C124.502 270.132 124.997 270.041 125.426 269.859C125.856 269.664 126.188 269.39 126.422 269.039C126.669 268.688 126.793 268.284 126.793 267.829C126.793 267.399 126.669 267.015 126.422 266.677C126.175 266.339 125.843 266.072 125.426 265.877C125.023 265.668 124.554 265.564 124.021 265.564C123.552 265.564 123.129 265.61 122.752 265.701C122.388 265.779 122.049 265.883 121.737 266.013C121.425 266.143 121.138 266.28 120.878 266.423L119.551 264.725L120.39 258.771H128.51V261.289H121.873L122.557 260.43L121.913 264.764L121.015 264.315C121.223 264.133 121.522 263.964 121.913 263.808C122.303 263.651 122.732 263.521 123.201 263.417C123.669 263.313 124.131 263.261 124.587 263.261C125.498 263.261 126.324 263.456 127.066 263.847C127.808 264.224 128.4 264.758 128.842 265.447C129.298 266.137 129.526 266.944 129.526 267.868C129.526 268.766 129.278 269.579 128.784 270.308C128.302 271.024 127.645 271.596 126.812 272.026C125.979 272.442 125.049 272.65 124.021 272.65Z" fill="black"/>
<path d="M248.477 272.65C247.436 272.65 246.473 272.449 245.588 272.045C244.703 271.629 243.961 271.076 243.362 270.386L244.905 268.473C245.464 269.019 246.037 269.436 246.622 269.722C247.208 269.996 247.8 270.132 248.399 270.132C248.958 270.132 249.453 270.041 249.882 269.859C250.312 269.664 250.644 269.39 250.878 269.039C251.125 268.688 251.249 268.284 251.249 267.829C251.249 267.399 251.125 267.015 250.878 266.677C250.631 266.339 250.299 266.072 249.882 265.877C249.479 265.668 249.01 265.564 248.477 265.564C248.008 265.564 247.585 265.61 247.208 265.701C246.844 265.779 246.505 265.883 246.193 266.013C245.881 266.143 245.594 266.28 245.334 266.423L244.007 264.725L244.846 258.771H252.967V261.289H246.33L247.013 260.43L246.369 264.764L245.471 264.315C245.679 264.133 245.978 263.964 246.369 263.808C246.759 263.651 247.189 263.521 247.657 263.417C248.126 263.313 248.587 263.261 249.043 263.261C249.954 263.261 250.78 263.456 251.522 263.847C252.264 264.224 252.856 264.758 253.298 265.447C253.754 266.137 253.982 266.944 253.982 267.868C253.982 268.766 253.734 269.579 253.24 270.308C252.758 271.024 252.101 271.596 251.268 272.026C250.435 272.442 249.505 272.65 248.477 272.65ZM262.538 272.572C261.484 272.572 260.547 272.39 259.727 272.026C258.907 271.648 258.257 271.147 257.775 270.523C257.307 269.885 257.072 269.182 257.072 268.414C257.072 267.881 257.151 267.419 257.307 267.028C257.476 266.638 257.704 266.3 257.99 266.013C258.289 265.727 258.628 265.486 259.005 265.291C259.382 265.096 259.773 264.927 260.176 264.784L259.981 265.662C259.682 265.532 259.389 265.369 259.103 265.174C258.816 264.966 258.563 264.731 258.341 264.471C258.12 264.198 257.944 263.899 257.814 263.573C257.684 263.235 257.619 262.871 257.619 262.48C257.619 261.764 257.834 261.127 258.263 260.567C258.706 259.994 259.298 259.539 260.04 259.201C260.781 258.862 261.614 258.693 262.538 258.693C263.449 258.693 264.269 258.862 264.998 259.201C265.74 259.539 266.325 259.994 266.755 260.567C267.184 261.127 267.399 261.764 267.399 262.48C267.399 262.884 267.334 263.254 267.204 263.593C267.074 263.931 266.891 264.23 266.657 264.491C266.436 264.751 266.182 264.979 265.896 265.174C265.622 265.369 265.343 265.532 265.056 265.662L264.92 264.842C265.349 264.972 265.746 265.148 266.11 265.369C266.488 265.577 266.82 265.831 267.106 266.13C267.392 266.43 267.614 266.768 267.77 267.146C267.926 267.523 268.004 267.946 268.004 268.414C268.004 269.195 267.763 269.904 267.282 270.542C266.8 271.167 266.15 271.661 265.33 272.026C264.51 272.39 263.579 272.572 262.538 272.572ZM262.538 270.171C263.046 270.171 263.501 270.093 263.905 269.937C264.308 269.781 264.627 269.56 264.861 269.273C265.095 268.987 265.213 268.662 265.213 268.297C265.213 267.933 265.095 267.614 264.861 267.341C264.627 267.054 264.308 266.833 263.905 266.677C263.501 266.508 263.046 266.423 262.538 266.423C262.005 266.423 261.536 266.508 261.133 266.677C260.729 266.833 260.41 267.054 260.176 267.341C259.942 267.614 259.825 267.933 259.825 268.297C259.825 268.649 259.935 268.967 260.157 269.254C260.391 269.54 260.71 269.768 261.113 269.937C261.53 270.093 262.005 270.171 262.538 270.171ZM262.538 264.159C262.955 264.159 263.332 264.094 263.67 263.964C264.009 263.821 264.276 263.625 264.471 263.378C264.666 263.118 264.764 262.818 264.764 262.48C264.764 262.181 264.666 261.921 264.471 261.699C264.289 261.465 264.028 261.283 263.69 261.153C263.352 261.01 262.968 260.938 262.538 260.938C262.083 260.938 261.679 261.01 261.328 261.153C260.99 261.283 260.723 261.465 260.528 261.699C260.345 261.921 260.254 262.181 260.254 262.48C260.254 262.818 260.352 263.118 260.547 263.378C260.742 263.625 261.009 263.821 261.347 263.964C261.699 264.094 262.096 264.159 262.538 264.159ZM277.504 272.514V260.509L279.261 260.528L272.975 267.887L272.721 266.931H283.028V269.371H271.628L270.437 267.106L277.777 258.771H280.334V272.514H277.504Z" fill="black"/>
</g>
<path d="M335.524 340.084L333.374 340.996L335.028 342.632L353.44 360.842L348.224 366L329.811 347.79L328.157 346.154L327.235 348.281L321.468 361.592L311.331 324.354L348.983 334.38L335.524 340.084Z" fill="#FBBF24"/>
<path d="M354 361.396L353.999 361.394M310 324L310.004 324.001M335.524 340.084L333.374 340.996L335.028 342.632L353.44 360.842L348.224 366L329.811 347.79L328.157 346.154L327.235 348.281L321.468 361.592L311.331 324.354L348.983 334.38L335.524 340.084Z" stroke="black" stroke-width="4"/>
<defs>
<filter id="filter0_d_48_71" x="107.877" y="0.397217" width="404.726" height="254.562" filterUnits="userSpaceOnUse" color-interpolation-filters="sRGB">
<feFlood flood-opacity="0" result="BackgroundImageFix"/>
<feColorMatrix in="SourceAlpha" type="matrix" values="0 0 0 0 0 0 0 0 0 0 0 0 0 0 0 0 0 0 127 0" result="hardAlpha"/>
<feOffset dy="6"/>
<feComposite in2="hardAlpha" operator="out"/>
<feColorMatrix type="matrix" values="0 0 0 0 0 0 0 0 0 0 0 0 0 0 0 0 0 0 1 0"/>
<feBlend mode="normal" in2="BackgroundImageFix" result="effect1_dropShadow_48_71"/>
<feBlend mode="normal" in="SourceGraphic" in2="effect1_dropShadow_48_71" result="shape"/>
</filter>
<filter id="filter1_d_48_71" x="32.3974" y="93.4451" width="404.726" height="254.562" filterUnits="userSpaceOnUse" color-interpolation-filters="sRGB">
<feFlood flood-opacity="0" result="BackgroundImageFix"/>
<feColorMatrix in="SourceAlpha" type="matrix" values="0 0 0 0 0 0 0 0 0 0 0 0 0 0 0 0 0 0 127 0" result="hardAlpha"/>
<feOffset dy="6"/>
<feComposite in2="hardAlpha" operator="out"/>
<feColorMatrix type="matrix" values="0 0 0 0 0 0 0 0 0 0 0 0 0 0 0 0 0 0 1 0"/>
<feBlend mode="normal" in2="BackgroundImageFix" result="effect1_dropShadow_48_71"/>
<feBlend mode="normal" in="SourceGraphic" in2="effect1_dropShadow_48_71" result="shape"/>
</filter>
</defs>
</svg>
