<svg width="517" height="375" viewBox="0 0 517 375" fill="none" xmlns="http://www.w3.org/2000/svg">
    <path
        d="M435.85 259.7C439.633 259.7 442.7 256.633 442.7 252.85C442.7 249.067 439.633 246 435.85 246C432.067 246 429 249.067 429 252.85C429 256.633 432.067 259.7 435.85 259.7Z"
        fill="#FBBF24" />
    <path opacity="0.8"
        d="M435.85 300.8C439.633 300.8 442.7 297.733 442.7 293.95C442.7 290.167 439.633 287.1 435.85 287.1C432.067 287.1 429 290.167 429 293.95C429 297.733 432.067 300.8 435.85 300.8Z"
        fill="#FBBF24" />
    <path
        d="M435.85 280.25C439.633 280.25 442.7 277.183 442.7 273.4C442.7 269.617 439.633 266.55 435.85 266.55C432.067 266.55 429 269.617 429 273.4C429 277.183 432.067 280.25 435.85 280.25Z"
        fill="#FBBF24" />
    <path opacity="0.6"
        d="M435.85 321.35C439.633 321.35 442.7 318.283 442.7 314.5C442.7 310.717 439.633 307.65 435.85 307.65C432.067 307.65 429 310.717 429 314.5C429 318.283 432.067 321.35 435.85 321.35Z"
        fill="#FBBF24" />
    <path
        d="M456.4 259.7C460.183 259.7 463.25 256.633 463.25 252.85C463.25 249.067 460.183 246 456.4 246C452.617 246 449.55 249.067 449.55 252.85C449.55 256.633 452.617 259.7 456.4 259.7Z"
        fill="#FBBF24" />
    <path opacity="0.6"
        d="M456.4 300.8C460.183 300.8 463.25 297.733 463.25 293.95C463.25 290.167 460.183 287.1 456.4 287.1C452.617 287.1 449.55 290.167 449.55 293.95C449.55 297.733 452.617 300.8 456.4 300.8Z"
        fill="#FBBF24" />
    <path opacity="0.8"
        d="M456.4 280.25C460.183 280.25 463.25 277.183 463.25 273.4C463.25 269.617 460.183 266.55 456.4 266.55C452.617 266.55 449.55 269.617 449.55 273.4C449.55 277.183 452.617 280.25 456.4 280.25Z"
        fill="#FBBF24" />
    <path opacity="0.4"
        d="M456.4 321.35C460.183 321.35 463.25 318.283 463.25 314.5C463.25 310.717 460.183 307.65 456.4 307.65C452.617 307.65 449.55 310.717 449.55 314.5C449.55 318.283 452.617 321.35 456.4 321.35Z"
        fill="#FBBF24" />
    <path opacity="0.8"
        d="M476.95 259.7C480.733 259.7 483.8 256.633 483.8 252.85C483.8 249.067 480.733 246 476.95 246C473.167 246 470.1 249.067 470.1 252.85C470.1 256.633 473.167 259.7 476.95 259.7Z"
        fill="#FBBF24" />
    <path opacity="0.4"
        d="M476.95 300.8C480.733 300.8 483.8 297.733 483.8 293.95C483.8 290.167 480.733 287.1 476.95 287.1C473.167 287.1 470.1 290.167 470.1 293.95C470.1 297.733 473.167 300.8 476.95 300.8Z"
        fill="#FBBF24" />
    <path opacity="0.6"
        d="M476.95 280.25C480.733 280.25 483.8 277.183 483.8 273.4C483.8 269.617 480.733 266.55 476.95 266.55C473.167 266.55 470.1 269.617 470.1 273.4C470.1 277.183 473.167 280.25 476.95 280.25Z"
        fill="#FBBF24" />
    <path opacity="0.2"
        d="M476.95 321.35C480.733 321.35 483.8 318.283 483.8 314.5C483.8 310.717 480.733 307.65 476.95 307.65C473.167 307.65 470.1 310.717 470.1 314.5C470.1 318.283 473.167 321.35 476.95 321.35Z"
        fill="#FBBF24" />
    <path opacity="0.6"
        d="M497.5 259.7C501.283 259.7 504.35 256.633 504.35 252.85C504.35 249.067 501.283 246 497.5 246C493.717 246 490.65 249.067 490.65 252.85C490.65 256.633 493.717 259.7 497.5 259.7Z"
        fill="#FBBF24" />
    <path opacity="0.2"
        d="M497.5 300.8C501.283 300.8 504.35 297.733 504.35 293.95C504.35 290.167 501.283 287.1 497.5 287.1C493.717 287.1 490.65 290.167 490.65 293.95C490.65 297.733 493.717 300.8 497.5 300.8Z"
        fill="#FBBF24" />
    <path opacity="0.4"
        d="M497.5 280.25C501.283 280.25 504.35 277.183 504.35 273.4C504.35 269.617 501.283 266.55 497.5 266.55C493.717 266.55 490.65 269.617 490.65 273.4C490.65 277.183 493.717 280.25 497.5 280.25Z"
        fill="#FBBF24" />
    <path opacity="0.05"
        d="M497.5 321.35C501.283 321.35 504.35 318.283 504.35 314.5C504.35 310.717 501.283 307.65 497.5 307.65C493.717 307.65 490.65 310.717 490.65 314.5C490.65 318.283 493.717 321.35 497.5 321.35Z"
        fill="#FBBF24" />
    <rect x="32.0001" y="103" width="405.521" height="249.356" rx="25" fill="black" stroke="black"
        stroke-width="6" />
    <rect x="108" y="10" width="405.521" height="249.356" rx="25" fill="black" stroke="black"
        stroke-width="6" />
    <path
        d="M68.5002 124.65C64.717 124.65 61.6502 127.717 61.6502 131.5C61.6502 135.283 64.717 138.35 68.5002 138.35C72.2833 138.35 75.3502 135.283 75.3502 131.5C75.3502 127.717 72.2833 124.65 68.5002 124.65Z"
        fill="#FBBF24" />
    <path opacity="0.8"
        d="M68.5002 83.55C64.717 83.55 61.6502 86.6169 61.6502 90.4C61.6502 94.1832 64.717 97.25 68.5002 97.25C72.2833 97.25 75.3502 94.1832 75.3502 90.4C75.3502 86.6168 72.2833 83.55 68.5002 83.55Z"
        fill="#FBBF24" />
    <path
        d="M68.5002 104.1C64.717 104.1 61.6502 107.167 61.6502 110.95C61.6502 114.733 64.717 117.8 68.5002 117.8C72.2833 117.8 75.3502 114.733 75.3502 110.95C75.3502 107.167 72.2833 104.1 68.5002 104.1Z"
        fill="#FBBF24" />
    <path opacity="0.6"
        d="M68.5002 63.0002C64.717 63.0002 61.6502 66.067 61.6502 69.8502C61.6502 73.6333 64.717 76.7002 68.5002 76.7002C72.2833 76.7002 75.3502 73.6333 75.3502 69.8502C75.3502 66.067 72.2833 63.0002 68.5002 63.0002Z"
        fill="#FBBF24" />
    <path
        d="M47.9501 124.65C44.167 124.65 41.1001 127.717 41.1001 131.5C41.1001 135.283 44.167 138.35 47.9501 138.35C51.7333 138.35 54.8001 135.283 54.8001 131.5C54.8001 127.717 51.7333 124.65 47.9501 124.65Z"
        fill="#FBBF24" />
    <path opacity="0.6"
        d="M47.9501 83.5502C44.167 83.5502 41.1001 86.6171 41.1001 90.4002C41.1001 94.1834 44.167 97.2502 47.9501 97.2502C51.7333 97.2502 54.8001 94.1834 54.8001 90.4002C54.8001 86.6171 51.7333 83.5502 47.9501 83.5502Z"
        fill="#FBBF24" />
    <path opacity="0.8"
        d="M47.9501 104.1C44.167 104.1 41.1001 107.167 41.1001 110.95C41.1001 114.733 44.167 117.8 47.9501 117.8C51.7333 117.8 54.8001 114.733 54.8001 110.95C54.8001 107.167 51.7333 104.1 47.9501 104.1Z"
        fill="#FBBF24" />
    <path opacity="0.4"
        d="M47.9501 63.0002C44.167 63.0002 41.1001 66.067 41.1001 69.8502C41.1001 73.6333 44.167 76.7002 47.9501 76.7002C51.7333 76.7002 54.8001 73.6333 54.8001 69.8502C54.8001 66.067 51.7333 63.0002 47.9501 63.0002Z"
        fill="#FBBF24" />
    <path opacity="0.8"
        d="M27.4001 124.65C23.6169 124.65 20.5501 127.717 20.5501 131.5C20.5501 135.283 23.6169 138.35 27.4001 138.35C31.1832 138.35 34.2501 135.283 34.2501 131.5C34.2501 127.717 31.1832 124.65 27.4001 124.65Z"
        fill="#FBBF24" />
    <path opacity="0.4"
        d="M27.4001 83.5502C23.6169 83.5502 20.5501 86.6171 20.5501 90.4002C20.5501 94.1834 23.6169 97.2502 27.4001 97.2502C31.1832 97.2502 34.2501 94.1834 34.2501 90.4002C34.2501 86.6171 31.1832 83.5502 27.4001 83.5502Z"
        fill="#FBBF24" />
    <path opacity="0.6"
        d="M27.4001 104.1C23.6169 104.1 20.5501 107.167 20.5501 110.95C20.5501 114.733 23.6169 117.8 27.4001 117.8C31.1832 117.8 34.2501 114.733 34.2501 110.95C34.2501 107.167 31.1832 104.1 27.4001 104.1Z"
        fill="#FBBF24" />
    <path opacity="0.2"
        d="M27.4001 63.0002C23.6169 63.0002 20.5501 66.067 20.5501 69.8502C20.5501 73.6333 23.6169 76.7002 27.4001 76.7002C31.1832 76.7002 34.2501 73.6333 34.2501 69.8502C34.2501 66.067 31.1832 63.0002 27.4001 63.0002Z"
        fill="#FBBF24" />
    <path opacity="0.6"
        d="M6.85001 124.65C3.06686 124.65 1.14682e-05 127.717 1.17989e-05 131.5C1.21297e-05 135.283 3.06686 138.35 6.85001 138.35C10.6332 138.35 13.7 135.283 13.7 131.5C13.7 127.717 10.6332 124.65 6.85001 124.65Z"
        fill="#FBBF24" />
    <path opacity="0.2"
        d="M6.85001 83.5502C3.06686 83.5502 1.14682e-05 86.6171 1.17989e-05 90.4002C1.21297e-05 94.1834 3.06686 97.2502 6.85001 97.2502C10.6332 97.2502 13.7 94.1834 13.7 90.4002C13.7 86.6171 10.6332 83.5502 6.85001 83.5502Z"
        fill="#FBBF24" />
    <path opacity="0.4"
        d="M6.85001 104.1C3.06686 104.1 1.14682e-05 107.167 1.17989e-05 110.95C1.21297e-05 114.733 3.06686 117.8 6.85001 117.8C10.6332 117.8 13.7 114.733 13.7 110.95C13.7 107.167 10.6332 104.1 6.85001 104.1Z"
        fill="#FBBF24" />
    <path opacity="0.05"
        d="M6.85001 63.0002C3.06686 63.0002 1.14682e-05 66.067 1.17989e-05 69.8502C1.21297e-05 73.6333 3.06686 76.7002 6.85001 76.7002C10.6332 76.7002 13.7 73.6333 13.7 69.8502C13.7 66.067 10.6332 63.0002 6.85001 63.0002Z"
        fill="#FBBF24" />
    <rect x="108" y="3" width="405.521" height="249.356" rx="25" fill="white" stroke="black"
        stroke-width="6" />
    <rect x="138.329" y="103.329" width="62.4657" height="47.0679" rx="10.411" fill="black"
        stroke="black" stroke-width="2.60274" />
    <rect x="138.329" y="100.349" width="62.4657" height="47.0679" rx="10.411" fill="white"
        stroke="black" stroke-width="2.60274" />
    <rect x="165.151" y="136.986" width="26.7029" height="8.32479" rx="4.1624"
        transform="rotate(-90 165.151 136.986)" stroke="black" stroke-width="2.60274" />
    <path d="M174.28 117.426H202.096" stroke="black" stroke-width="2.60274" />
    <path d="M174.28 128.85H202.096" stroke="black" stroke-width="2.60274" />
    <path d="M137.524 117.674H164.346" stroke="black" stroke-width="2.60274" />
    <path d="M137.524 128.85H164.346" stroke="black" stroke-width="2.60274" />
    <path
        d="M145.161 47.7603C144.45 47.7603 143.79 47.6518 143.183 47.4349C142.576 47.2094 142.046 46.8883 141.595 46.4719C141.144 46.0468 140.793 45.5479 140.541 44.9753C140.29 44.3941 140.164 43.7564 140.164 43.0623C140.164 42.3943 140.294 41.7783 140.554 41.2144C140.823 40.6418 141.188 40.1472 141.647 39.7308C142.107 39.3057 142.641 38.9804 143.248 38.7548C143.855 38.5205 144.506 38.4034 145.2 38.4034C145.721 38.4034 146.224 38.4728 146.71 38.6116C147.196 38.7418 147.638 38.924 148.037 39.1582C148.436 39.3838 148.766 39.6354 149.026 39.913L147.998 41.2144C147.738 40.9715 147.46 40.7632 147.165 40.5897C146.87 40.4075 146.554 40.2687 146.215 40.1733C145.877 40.0778 145.512 40.0301 145.122 40.0301C144.697 40.0301 144.289 40.1039 143.899 40.2514C143.517 40.3902 143.174 40.5941 142.871 40.863C142.576 41.1233 142.337 41.4399 142.155 41.813C141.981 42.1861 141.895 42.6068 141.895 43.0753C141.895 43.5612 141.981 43.995 142.155 44.3767C142.337 44.7498 142.589 45.0708 142.91 45.3397C143.231 45.6 143.595 45.7995 144.003 45.9383C144.419 46.0772 144.857 46.1466 145.317 46.1466C145.742 46.1466 146.124 46.0945 146.462 45.9904C146.801 45.8776 147.104 45.7345 147.373 45.5609C147.651 45.3874 147.903 45.2096 148.128 45.0274L148.948 46.3808C148.714 46.5977 148.402 46.8146 148.011 47.0315C147.621 47.2397 147.178 47.4132 146.684 47.552C146.198 47.6909 145.69 47.7603 145.161 47.7603ZM150.777 47.6301L154.837 38.5205H156.542L160.589 47.6301H158.806L156.308 42.0082C156.238 41.8694 156.165 41.7046 156.087 41.5137C156.017 41.3228 155.943 41.1276 155.865 40.9281C155.787 40.7199 155.714 40.5203 155.644 40.3294C155.575 40.1299 155.514 39.952 155.462 39.7959L155.852 39.7829C155.792 39.9651 155.727 40.1559 155.657 40.3555C155.588 40.5463 155.514 40.7415 155.436 40.9411C155.358 41.1406 155.28 41.3315 155.202 41.5137C155.124 41.6959 155.05 41.8737 154.98 42.0472L152.495 47.6301H150.777ZM152.599 45.626L153.198 44.1555H158.065L158.481 45.626H152.599ZM163.131 47.6301V38.5205H167.842C168.423 38.5205 168.944 38.6463 169.404 38.8979C169.863 39.1409 170.228 39.4792 170.497 39.913C170.774 40.3468 170.913 40.8413 170.913 41.3966C170.913 41.9345 170.77 42.429 170.484 42.8801C170.197 43.3226 169.816 43.674 169.339 43.9342C168.861 44.1945 168.332 44.3246 167.751 44.3246H164.784V47.6301H163.131ZM169.339 47.6301L166.58 43.5178L168.349 43.1925L171.369 47.6431L169.339 47.6301ZM164.784 42.8541H167.673C167.95 42.8541 168.202 42.7934 168.428 42.6719C168.653 42.5418 168.831 42.3683 168.961 42.1514C169.1 41.9345 169.169 41.6915 169.169 41.4226C169.169 41.1536 169.096 40.9194 168.948 40.7199C168.801 40.5116 168.601 40.3468 168.349 40.2253C168.107 40.1039 167.829 40.0431 167.517 40.0431H164.784V42.8541ZM174.505 47.6301V38.5205H178.748C179.511 38.5205 180.192 38.6377 180.791 38.8719C181.39 39.0975 181.897 39.4185 182.313 39.8349C182.73 40.2514 183.042 40.7372 183.25 41.2925C183.467 41.839 183.576 42.4333 183.576 43.0753C183.576 43.726 183.467 44.329 183.25 44.8842C183.042 45.4308 182.73 45.9123 182.313 46.3288C181.897 46.7365 181.39 47.0575 180.791 47.2918C180.192 47.5173 179.511 47.6301 178.748 47.6301H174.505ZM176.197 46.3157L176.067 46.0685H178.683C179.212 46.0685 179.672 45.9947 180.062 45.8472C180.461 45.6911 180.791 45.4785 181.051 45.2096C181.311 44.9406 181.502 44.6283 181.624 44.2726C181.754 43.9082 181.819 43.5091 181.819 43.0753C181.819 42.6502 181.754 42.2598 181.624 41.9041C181.502 41.5397 181.307 41.223 181.038 40.9541C180.778 40.6765 180.453 40.4639 180.062 40.3164C179.672 40.1603 179.212 40.0822 178.683 40.0822H176.028L176.197 39.8609V46.3157ZM191.929 47.6301V38.5205H193.53L199.828 45.639L199.62 45.6911C199.577 45.4221 199.542 45.1488 199.516 44.8712C199.49 44.5936 199.464 44.3073 199.438 44.0123C199.42 43.7173 199.403 43.418 199.386 43.1144C199.377 42.8107 199.368 42.5071 199.36 42.2034C199.36 41.8911 199.36 41.5744 199.36 41.2534V38.5205H201.038V47.6301H199.412L193.087 40.6157L193.347 40.5246C193.373 40.8283 193.399 41.1103 193.425 41.3705C193.451 41.6221 193.473 41.8694 193.491 42.1123C193.517 42.3552 193.538 42.5895 193.556 42.8151C193.573 43.032 193.586 43.2488 193.595 43.4657C193.603 43.6826 193.608 43.8952 193.608 44.1034V47.6301H191.929ZM208.852 47.7082C208.019 47.7082 207.282 47.5347 206.64 47.1877C205.998 46.832 205.495 46.3461 205.13 45.7301C204.775 45.1141 204.597 44.4201 204.597 43.6479V38.5075H206.301V43.5699C206.301 44.0644 206.414 44.5068 206.64 44.8972C206.865 45.279 207.173 45.5826 207.564 45.8082C207.954 46.0251 208.384 46.1336 208.852 46.1336C209.355 46.1336 209.807 46.0251 210.206 45.8082C210.605 45.5826 210.917 45.279 211.143 44.8972C211.368 44.5068 211.481 44.0644 211.481 43.5699V38.5075H213.121V43.6479C213.121 44.4201 212.938 45.1141 212.574 45.7301C212.218 46.3461 211.72 46.832 211.078 47.1877C210.444 47.5347 209.702 47.7082 208.852 47.7082ZM216.673 47.6301V38.5205H218.273L222.06 43.7781L221.214 43.7651L225.014 38.5205H226.589V47.6301H224.91V44.1294C224.91 43.3833 224.928 42.6979 224.962 42.0733C224.997 41.4399 225.067 40.8023 225.171 40.1603L225.353 40.7589L222.034 45.1575H221.175L217.909 40.7589L218.091 40.1603C218.195 40.7849 218.265 41.4096 218.299 42.0342C218.334 42.6589 218.351 43.3573 218.351 44.1294V47.6301H216.673ZM230.258 47.6301V38.5205H234.787C235.49 38.5205 236.08 38.6116 236.557 38.7938C237.034 38.9673 237.394 39.2233 237.637 39.5616C237.88 39.9 238.001 40.3121 238.001 40.7979C238.001 41.2925 237.854 41.7132 237.559 42.0603C237.264 42.4073 236.835 42.6546 236.271 42.802L236.31 42.5418C236.709 42.6285 237.073 42.776 237.403 42.9842C237.732 43.1838 237.993 43.4484 238.184 43.7781C238.383 44.0991 238.483 44.4808 238.483 44.9233C238.483 45.4178 238.388 45.8386 238.197 46.1856C238.014 46.5326 237.759 46.8103 237.429 47.0185C237.108 47.2267 236.739 47.3829 236.323 47.487C235.915 47.5824 235.485 47.6301 235.034 47.6301H230.258ZM231.911 46.1075H235.034C235.39 46.1075 235.698 46.0641 235.958 45.9774C236.219 45.882 236.418 45.7431 236.557 45.5609C236.704 45.3701 236.778 45.1402 236.778 44.8712C236.778 44.5849 236.691 44.355 236.518 44.1815C236.344 44.008 236.119 43.8822 235.841 43.8041C235.564 43.7173 235.273 43.674 234.969 43.674H231.911V46.1075ZM231.911 42.2164H234.826C235.104 42.2164 235.355 42.173 235.581 42.0863C235.806 41.9909 235.98 41.8607 236.101 41.6959C236.232 41.531 236.297 41.3358 236.297 41.1103C236.297 40.7546 236.149 40.4899 235.854 40.3164C235.559 40.1342 235.173 40.0431 234.696 40.0431H231.911V42.2164ZM241.505 47.6301V38.5205H248.481V40.0562H243.171V46.0945H248.533V47.6301H241.505ZM242.364 43.726V42.2164H247.817V43.726H242.364ZM251.888 47.6301V38.5205H256.599C257.181 38.5205 257.701 38.6463 258.161 38.8979C258.621 39.1409 258.985 39.4792 259.254 39.913C259.532 40.3468 259.671 40.8413 259.671 41.3966C259.671 41.9345 259.528 42.429 259.241 42.8801C258.955 43.3226 258.573 43.674 258.096 43.9342C257.619 44.1945 257.09 44.3246 256.508 44.3246H253.541V47.6301H251.888ZM258.096 47.6301L255.337 43.5178L257.107 43.1925L260.126 47.6431L258.096 47.6301ZM253.541 42.8541H256.43C256.708 42.8541 256.959 42.7934 257.185 42.6719C257.411 42.5418 257.588 42.3683 257.719 42.1514C257.857 41.9345 257.927 41.6915 257.927 41.4226C257.927 41.1536 257.853 40.9194 257.706 40.7199C257.558 40.5116 257.359 40.3468 257.107 40.2253C256.864 40.1039 256.586 40.0431 256.274 40.0431H253.541V42.8541Z"
        fill="black" />
    <path
        d="M145.532 77.9391V63.8947L146.496 65.1804L142.417 67.2327L141.576 64.0183L146.298 61.5952H149.191V77.9391H145.532ZM141.947 79.1506V75.8126H152.455V79.1506H141.947ZM157.297 79.1506L156.432 76.9253L161.723 71.8565C162.135 71.4608 162.555 71.0487 162.984 70.6202C163.429 70.1916 163.833 69.7547 164.195 69.3097C164.575 68.8646 164.871 68.436 165.086 68.0239C165.316 67.5953 165.432 67.1915 165.432 66.8123C165.432 66.4002 165.341 66.0458 165.16 65.7491C164.995 65.4524 164.731 65.2299 164.369 65.0815C164.006 64.9167 163.569 64.8343 163.058 64.8343C162.564 64.8343 162.077 64.9414 161.599 65.1557C161.121 65.3535 160.66 65.6667 160.215 66.0953C159.786 66.5074 159.39 67.0431 159.028 67.7025L156.283 66.0706C156.745 65.1804 157.322 64.3974 158.014 63.7216C158.723 63.0293 159.539 62.4853 160.462 62.0897C161.401 61.6941 162.399 61.4962 163.454 61.4962C164.575 61.4962 165.564 61.7105 166.421 62.1391C167.278 62.5512 167.937 63.1199 168.399 63.8452C168.877 64.5705 169.116 65.4112 169.116 66.3673C169.116 66.8618 169.034 67.3481 168.869 67.8261C168.72 68.3041 168.506 68.7822 168.226 69.2602C167.946 69.7218 167.608 70.1833 167.212 70.6449C166.833 71.1064 166.421 71.5762 165.976 72.0543C165.531 72.5158 165.061 72.9774 164.566 73.4389L160.264 77.5187L159.992 75.8126H169.833V79.1506H157.297ZM179.768 79.3979C178.202 79.3979 176.859 79.0682 175.738 78.4089C174.617 77.7495 173.644 76.8017 172.82 75.5654L175.54 73.6367C175.87 74.0983 176.24 74.5351 176.653 74.9472C177.065 75.3428 177.534 75.6643 178.062 75.9115C178.589 76.1588 179.175 76.2824 179.818 76.2824C180.427 76.2824 181.004 76.1835 181.548 75.9857C182.092 75.7879 182.537 75.4912 182.884 75.0956C183.246 74.6835 183.428 74.1725 183.428 73.5626C183.428 72.9856 183.271 72.5158 182.958 72.1532C182.645 71.7905 182.241 71.5268 181.746 71.3619C181.252 71.1971 180.732 71.1147 180.188 71.1147C179.908 71.1147 179.62 71.1394 179.323 71.1889C179.043 71.2218 178.779 71.2795 178.532 71.3619C178.285 71.4279 178.037 71.502 177.79 71.5845L176.826 69.458L182.092 64.315L182.612 65.0321L173.957 64.9332V61.7435H185.752L186.444 63.598L180.015 69.8289L179.15 68.4195C179.331 68.3536 179.611 68.2959 179.991 68.2465C180.37 68.197 180.749 68.1723 181.128 68.1723C181.903 68.1723 182.628 68.3124 183.304 68.5926C183.996 68.8564 184.606 69.2273 185.134 69.7053C185.678 70.1668 186.098 70.7191 186.395 71.3619C186.708 72.0048 186.864 72.6971 186.864 73.4389C186.864 74.6093 186.543 75.6478 185.9 76.5544C185.274 77.4445 184.425 78.1451 183.353 78.6561C182.298 79.1506 181.103 79.3979 179.768 79.3979ZM198.736 79.1506V63.9441L200.961 63.9689L193 73.2906L192.678 72.079H205.733V75.1697H191.293L189.785 72.3015L199.082 61.7435H202.321V79.1506H198.736ZM225.643 79.3237C224.324 79.3237 223.104 79.0682 221.984 78.5572C220.863 78.0297 219.923 77.3292 219.165 76.4555L221.118 74.0323C221.827 74.7247 222.552 75.2522 223.294 75.6148C224.036 75.961 224.786 76.1341 225.544 76.1341C226.253 76.1341 226.879 76.0187 227.423 75.7879C227.967 75.5406 228.388 75.1945 228.684 74.7494C228.997 74.3043 229.154 73.7933 229.154 73.2164C229.154 72.6724 228.997 72.1861 228.684 71.7576C228.371 71.329 227.951 70.991 227.423 70.7438C226.912 70.48 226.319 70.3482 225.643 70.3482C225.05 70.3482 224.514 70.4059 224.036 70.5213C223.574 70.6202 223.146 70.752 222.75 70.9169C222.354 71.0817 221.992 71.2548 221.662 71.4361L219.981 69.2849L221.044 61.7435H231.33V64.9332H222.923L223.789 63.8452L222.973 69.3344L221.835 68.7657C222.099 68.5349 222.478 68.3206 222.973 68.1228C223.467 67.925 224.011 67.7602 224.604 67.6283C225.198 67.4964 225.783 67.4305 226.36 67.4305C227.514 67.4305 228.561 67.6778 229.5 68.1723C230.44 68.6503 231.19 69.3262 231.75 70.1998C232.327 71.0735 232.616 72.0955 232.616 73.2658C232.616 74.4032 232.303 75.4335 231.676 76.3566C231.066 77.2632 230.234 77.9885 229.179 78.5325C228.124 79.06 226.945 79.3237 225.643 79.3237ZM243.207 79.1506C242.267 79.1506 241.377 79.0023 240.536 78.7056C239.712 78.3924 238.987 77.9555 238.36 77.3951C237.734 76.8346 237.24 76.1835 236.877 75.4417C236.531 74.6835 236.358 73.851 236.358 72.9444C236.358 72.2356 236.448 71.5597 236.63 70.9169C236.811 70.274 237.058 69.6476 237.371 69.0377C237.685 68.4278 238.047 67.8261 238.459 67.2327C238.871 66.6228 239.317 66.0046 239.795 65.3782L242.712 61.5704H246.495L246.594 61.8177L242.465 66.8865C241.97 67.5294 241.509 68.1723 241.08 68.8152C240.668 69.4415 240.297 70.0844 239.968 70.7438C239.654 71.3867 239.391 72.046 239.176 72.7219L237.915 71.1641C238.146 70.6037 238.468 70.0762 238.88 69.5817C239.308 69.0871 239.803 68.6586 240.363 68.2959C240.924 67.9168 241.534 67.6201 242.193 67.4058C242.852 67.175 243.528 67.0596 244.221 67.0596C245.308 67.0596 246.298 67.3151 247.188 67.8261C248.078 68.3206 248.795 68.9965 249.339 69.8536C249.883 70.7108 250.155 71.6669 250.155 72.7219C250.155 73.9087 249.858 74.9884 249.265 75.961C248.688 76.9335 247.872 77.7083 246.817 78.2852C245.778 78.8622 244.575 79.1506 243.207 79.1506ZM243.256 76.0104C243.932 76.0104 244.542 75.8868 245.086 75.6395C245.63 75.3923 246.058 75.0461 246.372 74.601C246.685 74.1395 246.841 73.5955 246.841 72.9691C246.841 72.4581 246.685 71.9801 246.372 71.535C246.075 71.0899 245.655 70.7273 245.111 70.4471C244.583 70.1504 243.973 70.002 243.281 70.002C242.556 70.002 241.929 70.1339 241.402 70.3976C240.874 70.6614 240.462 71.024 240.165 71.4856C239.869 71.9306 239.72 72.4169 239.72 72.9444C239.72 73.5213 239.869 74.0406 240.165 74.5021C240.462 74.9637 240.866 75.3346 241.377 75.6148C241.905 75.8786 242.531 76.0104 243.256 76.0104ZM255.597 79.1506L262.594 63.4249L263.485 65.0321H253.569V61.7435H265.636L266.007 63.6474L259.38 79.1506H255.597ZM276.1 79.2248C274.765 79.2248 273.578 78.994 272.54 78.5325C271.501 78.0544 270.677 77.4198 270.067 76.6286C269.474 75.8209 269.177 74.9307 269.177 73.9582C269.177 73.2823 269.276 72.6971 269.474 72.2026C269.688 71.7081 269.976 71.2795 270.339 70.9169C270.718 70.5542 271.147 70.2493 271.625 70.002C272.103 69.7547 272.597 69.5405 273.108 69.3591L272.861 70.4718C272.482 70.307 272.111 70.1009 271.748 69.8536C271.386 69.5899 271.064 69.2932 270.784 68.9635C270.504 68.6173 270.281 68.2382 270.116 67.8261C269.952 67.3975 269.869 66.936 269.869 66.4415C269.869 65.5348 270.141 64.7271 270.685 64.0183C271.246 63.293 271.996 62.7161 272.935 62.2875C273.875 61.8589 274.93 61.6446 276.1 61.6446C277.254 61.6446 278.292 61.8589 279.216 62.2875C280.155 62.7161 280.897 63.293 281.441 64.0183C281.985 64.7271 282.257 65.5348 282.257 66.4415C282.257 66.9525 282.174 67.4223 282.01 67.8508C281.845 68.2794 281.614 68.6586 281.317 68.9882C281.037 69.3179 280.716 69.6064 280.353 69.8536C280.007 70.1009 279.652 70.307 279.29 70.4718L279.117 69.4333C279.661 69.5981 280.163 69.8207 280.625 70.1009C281.103 70.3647 281.523 70.6861 281.886 71.0652C282.249 71.4444 282.529 71.8729 282.727 72.351C282.924 72.829 283.023 73.3647 283.023 73.9582C283.023 74.9472 282.718 75.8456 282.109 76.6533C281.499 77.4445 280.674 78.0709 279.636 78.5325C278.597 78.994 277.419 79.2248 276.1 79.2248ZM276.1 76.1835C276.743 76.1835 277.32 76.0846 277.831 75.8868C278.342 75.689 278.746 75.4088 279.042 75.0461C279.339 74.6835 279.488 74.2714 279.488 73.8098C279.488 73.3483 279.339 72.9444 279.042 72.5982C278.746 72.2356 278.342 71.9554 277.831 71.7576C277.32 71.5433 276.743 71.4361 276.1 71.4361C275.424 71.4361 274.831 71.5433 274.32 71.7576C273.809 71.9554 273.405 72.2356 273.108 72.5982C272.812 72.9444 272.663 73.3483 272.663 73.8098C272.663 74.2549 272.803 74.6587 273.084 75.0214C273.38 75.384 273.784 75.6725 274.295 75.8868C274.823 76.0846 275.424 76.1835 276.1 76.1835ZM276.1 68.5679C276.628 68.5679 277.106 68.4855 277.534 68.3206C277.963 68.1393 278.301 67.892 278.548 67.5789C278.795 67.2492 278.919 66.87 278.919 66.4415C278.919 66.0623 278.795 65.7326 278.548 65.4524C278.317 65.1557 277.988 64.9249 277.559 64.7601C277.13 64.5788 276.644 64.4881 276.1 64.4881C275.523 64.4881 275.012 64.5788 274.567 64.7601C274.139 64.9249 273.801 65.1557 273.553 65.4524C273.323 65.7326 273.207 66.0623 273.207 66.4415C273.207 66.87 273.331 67.2492 273.578 67.5789C273.825 67.892 274.163 68.1393 274.592 68.3206C275.037 68.4855 275.54 68.5679 276.1 68.5679ZM305.092 79.3979C303.411 79.3979 301.977 79.027 300.79 78.2852C299.619 77.5434 298.729 76.5132 298.119 75.1945C297.526 73.8593 297.229 72.2933 297.229 70.4965C297.229 68.6998 297.526 67.142 298.119 65.8233C298.729 64.4881 299.619 63.4496 300.79 62.7078C301.977 61.966 303.411 61.5952 305.092 61.5952C306.757 61.5952 308.166 61.966 309.32 62.7078C310.474 63.4496 311.348 64.4881 311.941 65.8233C312.535 67.142 312.831 68.6998 312.831 70.4965C312.831 72.2933 312.535 73.8593 311.941 75.1945C311.348 76.5132 310.474 77.5434 309.32 78.2852C308.166 79.027 306.757 79.3979 305.092 79.3979ZM305.092 76.2082C306.411 76.2082 307.433 75.7137 308.158 74.7247C308.9 73.7356 309.271 72.3263 309.271 70.4965C309.271 68.6338 308.9 67.1997 308.158 66.1942C307.433 65.1887 306.411 64.6859 305.092 64.6859C303.724 64.6859 302.661 65.1887 301.902 66.1942C301.144 67.1997 300.765 68.6338 300.765 70.4965C300.765 72.3263 301.144 73.7356 301.902 74.7247C302.661 75.7137 303.724 76.2082 305.092 76.2082ZM324.264 79.3979C322.583 79.3979 321.149 79.027 319.962 78.2852C318.792 77.5434 317.902 76.5132 317.292 75.1945C316.698 73.8593 316.402 72.2933 316.402 70.4965C316.402 68.6998 316.698 67.142 317.292 65.8233C317.902 64.4881 318.792 63.4496 319.962 62.7078C321.149 61.966 322.583 61.5952 324.264 61.5952C325.929 61.5952 327.339 61.966 328.493 62.7078C329.647 63.4496 330.52 64.4881 331.114 65.8233C331.707 67.142 332.004 68.6998 332.004 70.4965C332.004 72.2933 331.707 73.8593 331.114 75.1945C330.52 76.5132 329.647 77.5434 328.493 78.2852C327.339 79.027 325.929 79.3979 324.264 79.3979ZM324.264 76.2082C325.583 76.2082 326.605 75.7137 327.331 74.7247C328.072 73.7356 328.443 72.3263 328.443 70.4965C328.443 68.6338 328.072 67.1997 327.331 66.1942C326.605 65.1887 325.583 64.6859 324.264 64.6859C322.896 64.6859 321.833 65.1887 321.075 66.1942C320.317 67.1997 319.937 68.6338 319.937 70.4965C319.937 72.3263 320.317 73.7356 321.075 74.7247C321.833 75.7137 322.896 76.2082 324.264 76.2082ZM343.437 79.3979C341.755 79.3979 340.321 79.027 339.134 78.2852C337.964 77.5434 337.074 76.5132 336.464 75.1945C335.871 73.8593 335.574 72.2933 335.574 70.4965C335.574 68.6998 335.871 67.142 336.464 65.8233C337.074 64.4881 337.964 63.4496 339.134 62.7078C340.321 61.966 341.755 61.5952 343.437 61.5952C345.102 61.5952 346.511 61.966 347.665 62.7078C348.819 63.4496 349.692 64.4881 350.286 65.8233C350.879 67.142 351.176 68.6998 351.176 70.4965C351.176 72.2933 350.879 73.8593 350.286 75.1945C349.692 76.5132 348.819 77.5434 347.665 78.2852C346.511 79.027 345.102 79.3979 343.437 79.3979ZM343.437 76.2082C344.756 76.2082 345.778 75.7137 346.503 74.7247C347.245 73.7356 347.616 72.3263 347.616 70.4965C347.616 68.6338 347.245 67.1997 346.503 66.1942C345.778 65.1887 344.756 64.6859 343.437 64.6859C342.069 64.6859 341.005 65.1887 340.247 66.1942C339.489 67.1997 339.11 68.6338 339.11 70.4965C339.11 72.3263 339.489 73.7356 340.247 74.7247C341.005 75.7137 342.069 76.2082 343.437 76.2082ZM362.609 79.3979C360.928 79.3979 359.494 79.027 358.307 78.2852C357.136 77.5434 356.246 76.5132 355.636 75.1945C355.043 73.8593 354.746 72.2933 354.746 70.4965C354.746 68.6998 355.043 67.142 355.636 65.8233C356.246 64.4881 357.136 63.4496 358.307 62.7078C359.494 61.966 360.928 61.5952 362.609 61.5952C364.274 61.5952 365.683 61.966 366.837 62.7078C367.991 63.4496 368.865 64.4881 369.458 65.8233C370.052 67.142 370.348 68.6998 370.348 70.4965C370.348 72.2933 370.052 73.8593 369.458 75.1945C368.865 76.5132 367.991 77.5434 366.837 78.2852C365.683 79.027 364.274 79.3979 362.609 79.3979ZM362.609 76.2082C363.928 76.2082 364.95 75.7137 365.675 74.7247C366.417 73.7356 366.788 72.3263 366.788 70.4965C366.788 68.6338 366.417 67.1997 365.675 66.1942C364.95 65.1887 363.928 64.6859 362.609 64.6859C361.241 64.6859 360.178 65.1887 359.419 66.1942C358.661 67.1997 358.282 68.6338 358.282 70.4965C358.282 72.3263 358.661 73.7356 359.419 74.7247C360.178 75.7137 361.241 76.2082 362.609 76.2082ZM392.213 79.3979C390.531 79.3979 389.097 79.027 387.91 78.2852C386.74 77.5434 385.85 76.5132 385.24 75.1945C384.647 73.8593 384.35 72.2933 384.35 70.4965C384.35 68.6998 384.647 67.142 385.24 65.8233C385.85 64.4881 386.74 63.4496 387.91 62.7078C389.097 61.966 390.531 61.5952 392.213 61.5952C393.878 61.5952 395.287 61.966 396.441 62.7078C397.595 63.4496 398.468 64.4881 399.062 65.8233C399.655 67.142 399.952 68.6998 399.952 70.4965C399.952 72.2933 399.655 73.8593 399.062 75.1945C398.468 76.5132 397.595 77.5434 396.441 78.2852C395.287 79.027 393.878 79.3979 392.213 79.3979ZM392.213 76.2082C393.531 76.2082 394.554 75.7137 395.279 74.7247C396.021 73.7356 396.391 72.3263 396.391 70.4965C396.391 68.6338 396.021 67.1997 395.279 66.1942C394.554 65.1887 393.531 64.6859 392.213 64.6859C390.845 64.6859 389.781 65.1887 389.023 66.1942C388.265 67.1997 387.886 68.6338 387.886 70.4965C387.886 72.3263 388.265 73.7356 389.023 74.7247C389.781 75.7137 390.845 76.2082 392.213 76.2082ZM411.385 79.3979C409.704 79.3979 408.27 79.027 407.083 78.2852C405.912 77.5434 405.022 76.5132 404.412 75.1945C403.819 73.8593 403.522 72.2933 403.522 70.4965C403.522 68.6998 403.819 67.142 404.412 65.8233C405.022 64.4881 405.912 63.4496 407.083 62.7078C408.27 61.966 409.704 61.5952 411.385 61.5952C413.05 61.5952 414.459 61.966 415.613 62.7078C416.767 63.4496 417.641 64.4881 418.234 65.8233C418.828 67.142 419.124 68.6998 419.124 70.4965C419.124 72.2933 418.828 73.8593 418.234 75.1945C417.641 76.5132 416.767 77.5434 415.613 78.2852C414.459 79.027 413.05 79.3979 411.385 79.3979ZM411.385 76.2082C412.704 76.2082 413.726 75.7137 414.451 74.7247C415.193 73.7356 415.564 72.3263 415.564 70.4965C415.564 68.6338 415.193 67.1997 414.451 66.1942C413.726 65.1887 412.704 64.6859 411.385 64.6859C410.017 64.6859 408.954 65.1887 408.195 66.1942C407.437 67.1997 407.058 68.6338 407.058 70.4965C407.058 72.3263 407.437 73.7356 408.195 74.7247C408.954 75.7137 410.017 76.2082 411.385 76.2082ZM430.557 79.3979C428.876 79.3979 427.442 79.027 426.255 78.2852C425.085 77.5434 424.195 76.5132 423.585 75.1945C422.991 73.8593 422.695 72.2933 422.695 70.4965C422.695 68.6998 422.991 67.142 423.585 65.8233C424.195 64.4881 425.085 63.4496 426.255 62.7078C427.442 61.966 428.876 61.5952 430.557 61.5952C432.222 61.5952 433.632 61.966 434.786 62.7078C435.939 63.4496 436.813 64.4881 437.407 65.8233C438 67.142 438.297 68.6998 438.297 70.4965C438.297 72.2933 438 73.8593 437.407 75.1945C436.813 76.5132 435.939 77.5434 434.786 78.2852C433.632 79.027 432.222 79.3979 430.557 79.3979ZM430.557 76.2082C431.876 76.2082 432.898 75.7137 433.623 74.7247C434.365 73.7356 434.736 72.3263 434.736 70.4965C434.736 68.6338 434.365 67.1997 433.623 66.1942C432.898 65.1887 431.876 64.6859 430.557 64.6859C429.189 64.6859 428.126 65.1887 427.368 66.1942C426.61 67.1997 426.23 68.6338 426.23 70.4965C426.23 72.3263 426.61 73.7356 427.368 74.7247C428.126 75.7137 429.189 76.2082 430.557 76.2082ZM449.73 79.3979C448.048 79.3979 446.614 79.027 445.427 78.2852C444.257 77.5434 443.367 76.5132 442.757 75.1945C442.164 73.8593 441.867 72.2933 441.867 70.4965C441.867 68.6998 442.164 67.142 442.757 65.8233C443.367 64.4881 444.257 63.4496 445.427 62.7078C446.614 61.966 448.048 61.5952 449.73 61.5952C451.395 61.5952 452.804 61.966 453.958 62.7078C455.112 63.4496 455.985 64.4881 456.579 65.8233C457.172 67.142 457.469 68.6998 457.469 70.4965C457.469 72.2933 457.172 73.8593 456.579 75.1945C455.985 76.5132 455.112 77.5434 453.958 78.2852C452.804 79.027 451.395 79.3979 449.73 79.3979ZM449.73 76.2082C451.048 76.2082 452.07 75.7137 452.796 74.7247C453.538 73.7356 453.908 72.3263 453.908 70.4965C453.908 68.6338 453.538 67.1997 452.796 66.1942C452.07 65.1887 451.048 64.6859 449.73 64.6859C448.362 64.6859 447.298 65.1887 446.54 66.1942C445.782 67.1997 445.403 68.6338 445.403 70.4965C445.403 72.3263 445.782 73.7356 446.54 74.7247C447.298 75.7137 448.362 76.2082 449.73 76.2082Z"
        fill="black" />
    <path
        d="M149.142 221.247C147.922 221.247 146.801 221.124 145.779 220.876C144.757 220.613 143.834 220.242 143.01 219.764C142.186 219.286 141.452 218.709 140.809 218.033L142.837 215.189C143.908 216.261 144.98 217.011 146.051 217.439C147.123 217.868 148.227 218.082 149.365 218.082C149.941 218.082 150.502 218.008 151.046 217.86C151.606 217.711 152.06 217.497 152.406 217.217C152.768 216.92 152.95 216.541 152.95 216.08C152.95 215.783 152.859 215.527 152.678 215.313C152.496 215.099 152.257 214.917 151.961 214.769C151.664 214.621 151.318 214.497 150.922 214.398C150.527 214.283 150.106 214.192 149.661 214.126C149.233 214.044 148.788 213.978 148.326 213.928C147.288 213.764 146.356 213.541 145.532 213.261C144.724 212.981 144.032 212.626 143.455 212.198C142.878 211.752 142.441 211.241 142.145 210.665C141.864 210.071 141.724 209.395 141.724 208.637C141.724 207.829 141.914 207.096 142.293 206.436C142.672 205.777 143.199 205.217 143.875 204.755C144.551 204.293 145.334 203.947 146.224 203.717C147.131 203.469 148.103 203.346 149.142 203.346C150.279 203.346 151.293 203.461 152.183 203.692C153.073 203.923 153.865 204.252 154.557 204.681C155.249 205.093 155.818 205.587 156.263 206.164L154.137 208.612C153.725 208.184 153.238 207.813 152.678 207.5C152.134 207.186 151.557 206.947 150.947 206.783C150.337 206.618 149.719 206.535 149.093 206.535C148.4 206.535 147.79 206.609 147.263 206.758C146.752 206.89 146.34 207.096 146.027 207.376C145.73 207.64 145.581 207.978 145.581 208.39C145.581 208.719 145.697 209.008 145.928 209.255C146.158 209.502 146.463 209.708 146.842 209.873C147.222 210.022 147.658 210.154 148.153 210.269C148.647 210.368 149.167 210.458 149.711 210.541C150.667 210.689 151.573 210.879 152.431 211.11C153.288 211.324 154.046 211.621 154.705 212C155.365 212.362 155.876 212.84 156.238 213.434C156.601 214.011 156.782 214.736 156.782 215.61C156.782 216.78 156.453 217.786 155.793 218.626C155.15 219.467 154.26 220.118 153.123 220.58C151.985 221.025 150.659 221.247 149.142 221.247ZM160.038 221L167.777 203.692H171.313L179.052 221H175.195L170.67 210.838C170.522 210.541 170.373 210.211 170.225 209.849C170.093 209.486 169.953 209.123 169.805 208.761C169.673 208.398 169.541 208.035 169.409 207.673C169.294 207.294 169.186 206.947 169.088 206.634L169.879 206.609C169.763 206.989 169.64 207.359 169.508 207.722C169.393 208.068 169.261 208.423 169.112 208.785C168.98 209.148 168.84 209.502 168.692 209.849C168.544 210.195 168.395 210.549 168.247 210.912L163.747 221H160.038ZM163.574 217.514L164.81 214.522H174.107L174.948 217.514H163.574ZM191.707 221.247C190.323 221.247 189.029 221.041 187.825 220.629C186.622 220.217 185.584 219.632 184.71 218.874C183.836 218.099 183.152 217.159 182.658 216.055C182.163 214.95 181.916 213.698 181.916 212.296C181.916 211.027 182.163 209.857 182.658 208.785C183.169 207.697 183.878 206.758 184.784 205.967C185.707 205.159 186.787 204.532 188.023 204.087C189.276 203.642 190.636 203.42 192.103 203.42C193.224 203.42 194.271 203.552 195.243 203.815C196.232 204.079 197.106 204.425 197.864 204.854C198.639 205.282 199.265 205.761 199.743 206.288L197.444 208.785C196.966 208.39 196.447 208.044 195.886 207.747C195.326 207.434 194.724 207.195 194.081 207.03C193.455 206.848 192.787 206.758 192.078 206.758C191.188 206.758 190.356 206.898 189.581 207.178C188.823 207.458 188.155 207.846 187.578 208.34C187.001 208.835 186.556 209.42 186.243 210.096C185.93 210.772 185.773 211.505 185.773 212.296C185.773 213.203 185.938 214.011 186.268 214.72C186.614 215.412 187.075 215.997 187.652 216.475C188.246 216.937 188.913 217.291 189.655 217.538C190.413 217.769 191.221 217.885 192.078 217.885C192.82 217.885 193.521 217.802 194.18 217.637C194.839 217.472 195.408 217.233 195.886 216.92C196.381 216.607 196.768 216.244 197.048 215.832C197.329 215.404 197.46 214.942 197.444 214.448L197.419 213.953L197.938 214.744H191.806V211.703H201.054C201.07 211.917 201.087 212.148 201.103 212.395C201.12 212.643 201.136 212.873 201.153 213.088C201.169 213.302 201.178 213.459 201.178 213.557C201.178 214.777 200.947 215.865 200.485 216.821C200.024 217.761 199.373 218.56 198.532 219.22C197.691 219.879 196.694 220.382 195.54 220.728C194.386 221.074 193.109 221.247 191.707 221.247ZM204.154 221L211.893 203.692H215.429L223.168 221H219.311L214.786 210.838C214.637 210.541 214.489 210.211 214.341 209.849C214.209 209.486 214.069 209.123 213.92 208.761C213.788 208.398 213.657 208.035 213.525 207.673C213.409 207.294 213.302 206.947 213.203 206.634L213.994 206.609C213.879 206.989 213.755 207.359 213.624 207.722C213.508 208.068 213.376 208.423 213.228 208.785C213.096 209.148 212.956 209.502 212.808 209.849C212.659 210.195 212.511 210.549 212.363 210.912L207.862 221H204.154ZM207.689 217.514L208.926 214.522H218.223L219.063 217.514H207.689ZM227.701 221V203.692H236.702C237.872 203.692 238.911 203.931 239.817 204.409C240.74 204.87 241.457 205.513 241.968 206.337C242.479 207.162 242.735 208.109 242.735 209.181C242.735 210.252 242.463 211.217 241.919 212.074C241.375 212.931 240.641 213.615 239.718 214.126C238.795 214.621 237.765 214.868 236.628 214.868H231.287V221H227.701ZM239.273 221L234.031 213.187L237.889 212.568L243.625 221.025L239.273 221ZM231.287 211.851H236.306C236.817 211.851 237.27 211.744 237.666 211.53C238.062 211.299 238.375 210.994 238.606 210.615C238.853 210.236 238.976 209.807 238.976 209.329C238.976 208.835 238.845 208.406 238.581 208.044C238.334 207.681 237.987 207.401 237.542 207.203C237.114 207.005 236.628 206.906 236.084 206.906H231.287V211.851Z"
        fill="black" />
    <path
        d="M146.593 182.661C145.265 182.661 144.133 182.368 143.196 181.783C142.272 181.197 141.569 180.384 141.088 179.343C140.619 178.288 140.385 177.052 140.385 175.634C140.385 174.215 140.619 172.985 141.088 171.944C141.569 170.89 142.272 170.07 143.196 169.485C144.133 168.899 145.265 168.606 146.593 168.606C147.907 168.606 149.02 168.899 149.931 169.485C150.842 170.07 151.531 170.89 152 171.944C152.468 172.985 152.703 174.215 152.703 175.634C152.703 177.052 152.468 178.288 152 179.343C151.531 180.384 150.842 181.197 149.931 181.783C149.02 182.368 147.907 182.661 146.593 182.661ZM146.593 180.143C147.634 180.143 148.441 179.752 149.013 178.972C149.599 178.191 149.892 177.078 149.892 175.634C149.892 174.163 149.599 173.031 149.013 172.237C148.441 171.443 147.634 171.046 146.593 171.046C145.512 171.046 144.673 171.443 144.074 172.237C143.476 173.031 143.177 174.163 143.177 175.634C143.177 177.078 143.476 178.191 144.074 178.972C144.673 179.752 145.512 180.143 146.593 180.143ZM160.675 182.602C159.633 182.602 158.67 182.401 157.785 181.997C156.901 181.581 156.159 181.028 155.56 180.338L157.102 178.425C157.662 178.972 158.234 179.388 158.82 179.674C159.406 179.948 159.998 180.084 160.596 180.084C161.156 180.084 161.651 179.993 162.08 179.811C162.509 179.616 162.841 179.343 163.076 178.991C163.323 178.64 163.446 178.236 163.446 177.781C163.446 177.351 163.323 176.968 163.076 176.629C162.828 176.291 162.496 176.024 162.08 175.829C161.677 175.621 161.208 175.517 160.675 175.517C160.206 175.517 159.783 175.562 159.406 175.653C159.041 175.731 158.703 175.835 158.391 175.965C158.078 176.096 157.792 176.232 157.532 176.375L156.204 174.677L157.044 168.723H165.164V171.242H158.527L159.21 170.383L158.566 174.716L157.668 174.267C157.877 174.085 158.176 173.916 158.566 173.76C158.957 173.603 159.386 173.473 159.855 173.369C160.323 173.265 160.785 173.213 161.241 173.213C162.152 173.213 162.978 173.408 163.72 173.799C164.462 174.176 165.054 174.71 165.496 175.399C165.952 176.089 166.179 176.896 166.179 177.82C166.179 178.718 165.932 179.531 165.438 180.26C164.956 180.976 164.299 181.548 163.466 181.978C162.633 182.394 161.703 182.602 160.675 182.602ZM168.118 185.179L176.219 168.801H179.322L171.241 185.179H168.118ZM182.397 182.466L181.714 180.709L185.892 176.707C186.217 176.395 186.549 176.07 186.887 175.731C187.239 175.393 187.557 175.048 187.844 174.697C188.143 174.345 188.377 174.007 188.546 173.682C188.729 173.343 188.82 173.024 188.82 172.725C188.82 172.4 188.748 172.12 188.605 171.886C188.475 171.651 188.267 171.476 187.98 171.359C187.694 171.228 187.349 171.163 186.946 171.163C186.555 171.163 186.171 171.248 185.794 171.417C185.417 171.573 185.052 171.821 184.701 172.159C184.362 172.484 184.05 172.907 183.764 173.428L181.597 172.139C181.961 171.437 182.417 170.819 182.964 170.285C183.523 169.738 184.167 169.309 184.896 168.997C185.638 168.684 186.425 168.528 187.258 168.528C188.143 168.528 188.924 168.697 189.6 169.036C190.277 169.361 190.798 169.81 191.162 170.383C191.54 170.955 191.728 171.619 191.728 172.374C191.728 172.764 191.663 173.148 191.533 173.525C191.416 173.903 191.247 174.28 191.025 174.658C190.804 175.022 190.537 175.386 190.225 175.751C189.926 176.115 189.6 176.486 189.249 176.863C188.898 177.228 188.527 177.592 188.136 177.957L184.74 181.177L184.525 179.831H192.294V182.466H182.397ZM200.021 182.602C198.98 182.602 198.017 182.401 197.132 181.997C196.247 181.581 195.505 181.028 194.906 180.338L196.448 178.425C197.008 178.972 197.581 179.388 198.166 179.674C198.752 179.948 199.344 180.084 199.943 180.084C200.502 180.084 200.997 179.993 201.426 179.811C201.856 179.616 202.187 179.343 202.422 178.991C202.669 178.64 202.793 178.236 202.793 177.781C202.793 177.351 202.669 176.968 202.422 176.629C202.174 176.291 201.843 176.024 201.426 175.829C201.023 175.621 200.554 175.517 200.021 175.517C199.552 175.517 199.129 175.562 198.752 175.653C198.387 175.731 198.049 175.835 197.737 175.965C197.424 176.096 197.138 176.232 196.878 176.375L195.55 174.677L196.39 168.723H204.51V171.242H197.873L198.557 170.383L197.912 174.716L197.014 174.267C197.223 174.085 197.522 173.916 197.912 173.76C198.303 173.603 198.732 173.473 199.201 173.369C199.669 173.265 200.131 173.213 200.587 173.213C201.498 173.213 202.324 173.408 203.066 173.799C203.808 174.176 204.4 174.71 204.842 175.399C205.298 176.089 205.525 176.896 205.525 177.82C205.525 178.718 205.278 179.531 204.784 180.26C204.302 180.976 203.645 181.548 202.812 181.978C201.979 182.394 201.049 182.602 200.021 182.602Z"
        fill="black" />
    <path
        d="M324.477 182.602C323.436 182.602 322.473 182.401 321.588 181.997C320.703 181.581 319.961 181.028 319.362 180.338L320.904 178.425C321.464 178.972 322.037 179.388 322.622 179.674C323.208 179.948 323.8 180.084 324.399 180.084C324.958 180.084 325.453 179.993 325.882 179.811C326.312 179.616 326.644 179.343 326.878 178.991C327.125 178.64 327.249 178.236 327.249 177.781C327.249 177.351 327.125 176.968 326.878 176.629C326.631 176.291 326.299 176.024 325.882 175.829C325.479 175.621 325.01 175.517 324.477 175.517C324.008 175.517 323.585 175.562 323.208 175.653C322.844 175.731 322.505 175.835 322.193 175.965C321.881 176.096 321.594 176.232 321.334 176.375L320.007 174.677L320.846 168.723H328.966V171.242H322.329L323.013 170.383L322.369 174.716L321.471 174.267C321.679 174.085 321.978 173.916 322.369 173.76C322.759 173.603 323.188 173.473 323.657 173.369C324.125 173.265 324.587 173.213 325.043 173.213C325.954 173.213 326.78 173.408 327.522 173.799C328.264 174.176 328.856 174.71 329.298 175.399C329.754 176.089 329.982 176.896 329.982 177.82C329.982 178.718 329.734 179.531 329.24 180.26C328.758 180.976 328.101 181.548 327.268 181.978C326.435 182.394 325.505 182.602 324.477 182.602ZM338.538 182.524C337.484 182.524 336.547 182.342 335.727 181.978C334.907 181.6 334.257 181.099 333.775 180.475C333.307 179.837 333.072 179.134 333.072 178.367C333.072 177.833 333.15 177.371 333.307 176.981C333.476 176.59 333.704 176.252 333.99 175.965C334.289 175.679 334.627 175.438 335.005 175.243C335.382 175.048 335.773 174.879 336.176 174.736L335.981 175.614C335.682 175.484 335.389 175.321 335.102 175.126C334.816 174.918 334.562 174.684 334.341 174.423C334.12 174.15 333.944 173.851 333.814 173.525C333.684 173.187 333.619 172.823 333.619 172.432C333.619 171.717 333.834 171.079 334.263 170.519C334.706 169.947 335.298 169.491 336.039 169.153C336.781 168.814 337.614 168.645 338.538 168.645C339.449 168.645 340.269 168.814 340.998 169.153C341.739 169.491 342.325 169.947 342.755 170.519C343.184 171.079 343.399 171.717 343.399 172.432C343.399 172.836 343.334 173.207 343.204 173.545C343.073 173.883 342.891 174.183 342.657 174.443C342.436 174.703 342.182 174.931 341.896 175.126C341.622 175.321 341.343 175.484 341.056 175.614L340.92 174.794C341.349 174.924 341.746 175.1 342.11 175.321C342.488 175.53 342.82 175.783 343.106 176.083C343.392 176.382 343.613 176.72 343.77 177.098C343.926 177.475 344.004 177.898 344.004 178.367C344.004 179.147 343.763 179.857 343.282 180.494C342.8 181.119 342.149 181.613 341.33 181.978C340.51 182.342 339.579 182.524 338.538 182.524ZM338.538 180.123C339.046 180.123 339.501 180.045 339.905 179.889C340.308 179.733 340.627 179.512 340.861 179.225C341.095 178.939 341.212 178.614 341.212 178.249C341.212 177.885 341.095 177.566 340.861 177.293C340.627 177.007 340.308 176.785 339.905 176.629C339.501 176.46 339.046 176.375 338.538 176.375C338.005 176.375 337.536 176.46 337.133 176.629C336.729 176.785 336.41 177.007 336.176 177.293C335.942 177.566 335.825 177.885 335.825 178.249C335.825 178.601 335.935 178.92 336.157 179.206C336.391 179.492 336.71 179.72 337.113 179.889C337.53 180.045 338.005 180.123 338.538 180.123ZM338.538 174.111C338.955 174.111 339.332 174.046 339.67 173.916C340.009 173.773 340.275 173.577 340.471 173.33C340.666 173.07 340.763 172.771 340.763 172.432C340.763 172.133 340.666 171.873 340.471 171.651C340.288 171.417 340.028 171.235 339.69 171.105C339.351 170.962 338.968 170.89 338.538 170.89C338.083 170.89 337.679 170.962 337.328 171.105C336.989 171.235 336.723 171.417 336.527 171.651C336.345 171.873 336.254 172.133 336.254 172.432C336.254 172.771 336.352 173.07 336.547 173.33C336.742 173.577 337.009 173.773 337.347 173.916C337.699 174.046 338.096 174.111 338.538 174.111ZM353.504 182.466V170.461L355.261 170.48L348.975 177.839L348.721 176.883H359.028V179.323H347.628L346.437 177.059L353.777 168.723H356.334V182.466H353.504Z"
        fill="black" />
    <rect x="32" y="96" width="405.521" height="249.356" rx="25" fill="#FBBF24" stroke="black"
        stroke-width="6" />
    <rect x="62.3015" y="196.301" width="62.3973" height="49.3973" rx="10.411" fill="black"
        stroke="black" stroke-width="2.60274" />
    <rect x="62.329" y="193.397" width="62.4657" height="47.0679" rx="10.411" fill="white"
        stroke="black" stroke-width="2.60274" />
    <rect x="89.1511" y="230.034" width="26.7029" height="8.32479" rx="4.1624"
        transform="rotate(-90 89.1511 230.034)" stroke="black" stroke-width="2.60274" />
    <path d="M98.2805 210.474H126.096" stroke="black" stroke-width="2.60274" />
    <path d="M98.2805 221.898H126.096" stroke="black" stroke-width="2.60274" />
    <path d="M61.5242 210.722H88.3463" stroke="black" stroke-width="2.60274" />
    <path d="M61.5242 221.898H88.3463" stroke="black" stroke-width="2.60274" />
    <path
        d="M69.1612 140.808C68.4498 140.808 67.7904 140.7 67.1831 140.483C66.5758 140.257 66.0466 139.936 65.5955 139.52C65.1443 139.095 64.7929 138.596 64.5413 138.023C64.2898 137.442 64.164 136.804 64.164 136.11C64.164 135.442 64.2941 134.826 64.5544 134.262C64.8233 133.69 65.1877 133.195 65.6475 132.779C66.1073 132.354 66.6409 132.028 67.2482 131.803C67.8555 131.568 68.5062 131.451 69.2003 131.451C69.7208 131.451 70.224 131.521 70.7098 131.659C71.1957 131.79 71.6382 131.972 72.0372 132.206C72.4363 132.432 72.766 132.683 73.0263 132.961L71.9982 134.262C71.7379 134.019 71.4603 133.811 71.1653 133.638C70.8703 133.455 70.5537 133.317 70.2153 133.221C69.877 133.126 69.5126 133.078 69.1222 133.078C68.6971 133.078 68.2893 133.152 67.8989 133.299C67.5171 133.438 67.1745 133.642 66.8708 133.911C66.5758 134.171 66.3372 134.488 66.155 134.861C65.9815 135.234 65.8948 135.655 65.8948 136.123C65.8948 136.609 65.9815 137.043 66.155 137.425C66.3372 137.798 66.5888 138.119 66.9098 138.388C67.2308 138.648 67.5952 138.847 68.003 138.986C68.4194 139.125 68.8576 139.194 69.3174 139.194C69.7425 139.194 70.1242 139.142 70.4626 139.038C70.8009 138.925 71.1046 138.782 71.3735 138.609C71.6512 138.435 71.9028 138.257 72.1283 138.075L72.9482 139.429C72.714 139.646 72.4016 139.862 72.0112 140.079C71.6208 140.288 71.1783 140.461 70.6838 140.6C70.198 140.739 69.6904 140.808 69.1612 140.808ZM74.7771 140.678L78.8374 131.568H80.5422L84.5895 140.678H82.8066L80.308 135.056C80.2385 134.917 80.1648 134.752 80.0867 134.562C80.0173 134.371 79.9436 134.175 79.8655 133.976C79.7874 133.768 79.7137 133.568 79.6443 133.377C79.5749 133.178 79.5141 133 79.4621 132.844L79.8525 132.831C79.7917 133.013 79.7267 133.204 79.6573 133.403C79.5879 133.594 79.5141 133.789 79.436 133.989C79.358 134.188 79.2799 134.379 79.2018 134.562C79.1237 134.744 79.05 134.922 78.9806 135.095L76.4949 140.678H74.7771ZM76.5991 138.674L77.1977 137.203H82.0648L82.4812 138.674H76.5991ZM87.1311 140.678V131.568H91.8421C92.4233 131.568 92.9439 131.694 93.4037 131.946C93.8635 132.189 94.2279 132.527 94.4969 132.961C94.7745 133.395 94.9133 133.889 94.9133 134.444C94.9133 134.982 94.7701 135.477 94.4838 135.928C94.1975 136.37 93.8158 136.722 93.3386 136.982C92.8615 137.242 92.3322 137.372 91.751 137.372H88.7838V140.678H87.1311ZM93.3386 140.678L90.5797 136.566L92.3496 136.24L95.3688 140.691L93.3386 140.678ZM88.7838 135.902H91.6729C91.9505 135.902 92.2021 135.841 92.4277 135.72C92.6532 135.59 92.8311 135.416 92.9612 135.199C93.1 134.982 93.1695 134.739 93.1695 134.47C93.1695 134.201 93.0957 133.967 92.9482 133.768C92.8007 133.559 92.6012 133.395 92.3496 133.273C92.1067 133.152 91.829 133.091 91.5167 133.091H88.7838V135.902ZM98.5054 140.678V131.568H102.748C103.511 131.568 104.192 131.686 104.791 131.92C105.39 132.145 105.897 132.466 106.314 132.883C106.73 133.299 107.042 133.785 107.251 134.34C107.467 134.887 107.576 135.481 107.576 136.123C107.576 136.774 107.467 137.377 107.251 137.932C107.042 138.479 106.73 138.96 106.314 139.377C105.897 139.784 105.39 140.105 104.791 140.34C104.192 140.565 103.511 140.678 102.748 140.678H98.5054ZM100.197 139.364L100.067 139.116H102.683C103.212 139.116 103.672 139.043 104.062 138.895C104.461 138.739 104.791 138.526 105.051 138.257C105.312 137.988 105.502 137.676 105.624 137.32C105.754 136.956 105.819 136.557 105.819 136.123C105.819 135.698 105.754 135.308 105.624 134.952C105.502 134.588 105.307 134.271 105.038 134.002C104.778 133.724 104.453 133.512 104.062 133.364C103.672 133.208 103.212 133.13 102.683 133.13H100.028L100.197 132.909V139.364ZM115.929 140.678V131.568H117.53L123.828 138.687L123.62 138.739C123.577 138.47 123.542 138.197 123.516 137.919C123.49 137.641 123.464 137.355 123.438 137.06C123.421 136.765 123.403 136.466 123.386 136.162C123.377 135.859 123.368 135.555 123.36 135.251C123.36 134.939 123.36 134.622 123.36 134.301V131.568H125.039V140.678H123.412L117.087 133.664L117.347 133.572C117.374 133.876 117.4 134.158 117.426 134.418C117.452 134.67 117.473 134.917 117.491 135.16C117.517 135.403 117.538 135.637 117.556 135.863C117.573 136.08 117.586 136.297 117.595 136.514C117.603 136.73 117.608 136.943 117.608 137.151V140.678H115.929ZM132.852 140.756C132.019 140.756 131.282 140.583 130.64 140.236C129.998 139.88 129.495 139.394 129.13 138.778C128.775 138.162 128.597 137.468 128.597 136.696V131.555H130.302V136.618C130.302 137.112 130.414 137.555 130.64 137.945C130.866 138.327 131.174 138.63 131.564 138.856C131.954 139.073 132.384 139.181 132.852 139.181C133.355 139.181 133.807 139.073 134.206 138.856C134.605 138.63 134.917 138.327 135.143 137.945C135.368 137.555 135.481 137.112 135.481 136.618V131.555H137.121V136.696C137.121 137.468 136.939 138.162 136.574 138.778C136.219 139.394 135.72 139.88 135.078 140.236C134.444 140.583 133.703 140.756 132.852 140.756ZM140.673 140.678V131.568H142.273L146.06 136.826L145.215 136.813L149.015 131.568H150.589V140.678H148.91V137.177C148.91 136.431 148.928 135.746 148.963 135.121C148.997 134.488 149.067 133.85 149.171 133.208L149.353 133.807L146.034 138.205H145.176L141.909 133.807L142.091 133.208C142.195 133.833 142.265 134.457 142.3 135.082C142.334 135.707 142.352 136.405 142.352 137.177V140.678H140.673ZM154.258 140.678V131.568H158.787C159.49 131.568 160.08 131.659 160.557 131.842C161.034 132.015 161.394 132.271 161.637 132.609C161.88 132.948 162.002 133.36 162.002 133.846C162.002 134.34 161.854 134.761 161.559 135.108C161.264 135.455 160.835 135.702 160.271 135.85L160.31 135.59C160.709 135.676 161.073 135.824 161.403 136.032C161.733 136.232 161.993 136.496 162.184 136.826C162.383 137.147 162.483 137.529 162.483 137.971C162.483 138.466 162.388 138.886 162.197 139.233C162.015 139.58 161.759 139.858 161.429 140.066C161.108 140.275 160.739 140.431 160.323 140.535C159.915 140.63 159.486 140.678 159.034 140.678H154.258ZM155.911 139.155H159.034C159.39 139.155 159.698 139.112 159.958 139.025C160.219 138.93 160.418 138.791 160.557 138.609C160.705 138.418 160.778 138.188 160.778 137.919C160.778 137.633 160.692 137.403 160.518 137.229C160.344 137.056 160.119 136.93 159.841 136.852C159.564 136.765 159.273 136.722 158.969 136.722H155.911V139.155ZM155.911 135.264H158.826C159.104 135.264 159.355 135.221 159.581 135.134C159.807 135.039 159.98 134.909 160.102 134.744C160.232 134.579 160.297 134.384 160.297 134.158C160.297 133.802 160.149 133.538 159.854 133.364C159.559 133.182 159.173 133.091 158.696 133.091H155.911V135.264ZM165.506 140.678V131.568H172.481V133.104H167.171V139.142H172.533V140.678H165.506ZM166.364 136.774V135.264H171.817V136.774H166.364ZM175.889 140.678V131.568H180.6C181.181 131.568 181.701 131.694 182.161 131.946C182.621 132.189 182.985 132.527 183.254 132.961C183.532 133.395 183.671 133.889 183.671 134.444C183.671 134.982 183.528 135.477 183.241 135.928C182.955 136.37 182.573 136.722 182.096 136.982C181.619 137.242 181.09 137.372 180.508 137.372H177.541V140.678H175.889ZM182.096 140.678L179.337 136.566L181.107 136.24L184.126 140.691L182.096 140.678ZM177.541 135.902H180.43C180.708 135.902 180.96 135.841 181.185 135.72C181.411 135.59 181.589 135.416 181.719 135.199C181.858 134.982 181.927 134.739 181.927 134.47C181.927 134.201 181.853 133.967 181.706 133.768C181.558 133.559 181.359 133.395 181.107 133.273C180.864 133.152 180.587 133.091 180.274 133.091H177.541V135.902Z"
        fill="black" />
    <path
        d="M69.5321 170.987V156.943L70.4964 158.228L66.4166 160.281L65.5759 157.066L70.2986 154.643H73.1916V170.987H69.5321ZM65.9468 172.198V168.86H76.4554V172.198H65.9468ZM81.2971 172.198L80.4316 169.973L85.723 164.904C86.1351 164.509 86.5555 164.097 86.984 163.668C87.4291 163.239 87.833 162.803 88.1956 162.358C88.5748 161.912 88.8715 161.484 89.0858 161.072C89.3165 160.643 89.4319 160.239 89.4319 159.86C89.4319 159.448 89.3413 159.094 89.1599 158.797C88.9951 158.5 88.7314 158.278 88.3687 158.129C88.0061 157.965 87.5692 157.882 87.0582 157.882C86.5637 157.882 86.0774 157.989 85.5994 158.204C85.1214 158.401 84.6598 158.715 84.2147 159.143C83.7861 159.555 83.3905 160.091 83.0279 160.75L80.2833 159.118C80.7448 158.228 81.3218 157.445 82.0141 156.769C82.7229 156.077 83.5389 155.533 84.462 155.138C85.4016 154.742 86.3989 154.544 87.4538 154.544C88.5748 154.544 89.5638 154.758 90.421 155.187C91.2781 155.599 91.9375 156.168 92.399 156.893C92.8771 157.618 93.1161 158.459 93.1161 159.415C93.1161 159.91 93.0337 160.396 92.8688 160.874C92.7205 161.352 92.5062 161.83 92.226 162.308C91.9457 162.77 91.6078 163.231 91.2122 163.693C90.8331 164.154 90.421 164.624 89.9759 165.102C89.5308 165.564 89.061 166.025 88.5665 166.487L84.2642 170.567L83.9922 168.86H93.8332V172.198H81.2971ZM103.768 172.446C102.202 172.446 100.859 172.116 99.7378 171.457C98.6169 170.797 97.6444 169.85 96.8202 168.613L99.54 166.685C99.8697 167.146 100.241 167.583 100.653 167.995C101.065 168.391 101.535 168.712 102.062 168.959C102.59 169.207 103.175 169.33 103.818 169.33C104.428 169.33 105.004 169.231 105.548 169.034C106.092 168.836 106.538 168.539 106.884 168.143C107.246 167.731 107.428 167.22 107.428 166.61C107.428 166.033 107.271 165.564 106.958 165.201C106.645 164.838 106.241 164.575 105.746 164.41C105.252 164.245 104.733 164.163 104.189 164.163C103.908 164.163 103.62 164.187 103.323 164.237C103.043 164.27 102.779 164.327 102.532 164.41C102.285 164.476 102.037 164.55 101.79 164.632L100.826 162.506L106.092 157.363L106.612 158.08L97.9576 157.981V154.791H109.752L110.444 156.646L104.015 162.877L103.15 161.467C103.331 161.401 103.612 161.344 103.991 161.294C104.37 161.245 104.749 161.22 105.128 161.22C105.903 161.22 106.628 161.36 107.304 161.64C107.996 161.904 108.606 162.275 109.134 162.753C109.678 163.215 110.098 163.767 110.395 164.41C110.708 165.053 110.865 165.745 110.865 166.487C110.865 167.657 110.543 168.696 109.9 169.602C109.274 170.492 108.425 171.193 107.353 171.704C106.298 172.198 105.103 172.446 103.768 172.446ZM122.736 172.198V156.992L124.961 157.017L117 166.338L116.678 165.127H129.734V168.218H115.294L113.785 165.349L123.082 154.791H126.321V172.198H122.736ZM149.643 172.372C148.324 172.372 147.105 172.116 145.984 171.605C144.863 171.078 143.923 170.377 143.165 169.503L145.118 167.08C145.827 167.773 146.552 168.3 147.294 168.663C148.036 169.009 148.786 169.182 149.544 169.182C150.253 169.182 150.879 169.067 151.423 168.836C151.967 168.588 152.388 168.242 152.684 167.797C152.998 167.352 153.154 166.841 153.154 166.264C153.154 165.72 152.998 165.234 152.684 164.805C152.371 164.377 151.951 164.039 151.423 163.792C150.912 163.528 150.319 163.396 149.643 163.396C149.05 163.396 148.514 163.454 148.036 163.569C147.574 163.668 147.146 163.8 146.75 163.965C146.355 164.13 145.992 164.303 145.662 164.484L143.981 162.333L145.044 154.791H155.33V157.981H146.923L147.789 156.893L146.973 162.382L145.835 161.814C146.099 161.583 146.478 161.368 146.973 161.171C147.467 160.973 148.011 160.808 148.605 160.676C149.198 160.544 149.783 160.478 150.36 160.478C151.514 160.478 152.561 160.726 153.5 161.22C154.44 161.698 155.19 162.374 155.75 163.248C156.327 164.121 156.616 165.143 156.616 166.314C156.616 167.451 156.303 168.481 155.676 169.404C155.066 170.311 154.234 171.036 153.179 171.58C152.124 172.108 150.945 172.372 149.643 172.372ZM167.207 172.198C166.267 172.198 165.377 172.05 164.536 171.753C163.712 171.44 162.987 171.003 162.361 170.443C161.734 169.882 161.24 169.231 160.877 168.49C160.531 167.731 160.358 166.899 160.358 165.992C160.358 165.283 160.448 164.608 160.63 163.965C160.811 163.322 161.058 162.695 161.372 162.086C161.685 161.476 162.047 160.874 162.459 160.281C162.872 159.671 163.317 159.052 163.795 158.426L166.712 154.618H170.495L170.594 154.866L166.465 159.934C165.971 160.577 165.509 161.22 165.08 161.863C164.668 162.489 164.297 163.132 163.968 163.792C163.655 164.435 163.391 165.094 163.177 165.77L161.916 164.212C162.146 163.652 162.468 163.124 162.88 162.63C163.308 162.135 163.803 161.706 164.363 161.344C164.924 160.965 165.534 160.668 166.193 160.454C166.852 160.223 167.528 160.107 168.221 160.107C169.309 160.107 170.298 160.363 171.188 160.874C172.078 161.368 172.795 162.044 173.339 162.901C173.883 163.759 174.155 164.715 174.155 165.77C174.155 166.957 173.858 168.036 173.265 169.009C172.688 169.981 171.872 170.756 170.817 171.333C169.778 171.91 168.575 172.198 167.207 172.198ZM167.256 169.058C167.932 169.058 168.542 168.935 169.086 168.687C169.63 168.44 170.059 168.094 170.372 167.649C170.685 167.187 170.842 166.643 170.842 166.017C170.842 165.506 170.685 165.028 170.372 164.583C170.075 164.138 169.655 163.775 169.111 163.495C168.583 163.198 167.973 163.05 167.281 163.05C166.556 163.05 165.929 163.182 165.402 163.445C164.874 163.709 164.462 164.072 164.166 164.533C163.869 164.978 163.721 165.465 163.721 165.992C163.721 166.569 163.869 167.088 164.166 167.55C164.462 168.012 164.866 168.382 165.377 168.663C165.905 168.926 166.531 169.058 167.256 169.058ZM179.597 172.198L186.595 156.473L187.485 158.08H177.57V154.791H189.636L190.007 156.695L183.38 172.198H179.597ZM200.1 172.273C198.765 172.273 197.578 172.042 196.54 171.58C195.501 171.102 194.677 170.468 194.067 169.676C193.474 168.869 193.177 167.979 193.177 167.006C193.177 166.33 193.276 165.745 193.474 165.25C193.688 164.756 193.976 164.327 194.339 163.965C194.718 163.602 195.147 163.297 195.625 163.05C196.103 162.803 196.597 162.588 197.108 162.407L196.861 163.52C196.482 163.355 196.111 163.149 195.748 162.901C195.386 162.638 195.064 162.341 194.784 162.011C194.504 161.665 194.281 161.286 194.117 160.874C193.952 160.445 193.869 159.984 193.869 159.489C193.869 158.583 194.141 157.775 194.685 157.066C195.246 156.341 195.996 155.764 196.935 155.335C197.875 154.907 198.93 154.692 200.1 154.692C201.254 154.692 202.293 154.907 203.216 155.335C204.155 155.764 204.897 156.341 205.441 157.066C205.985 157.775 206.257 158.583 206.257 159.489C206.257 160 206.175 160.47 206.01 160.899C205.845 161.327 205.614 161.706 205.317 162.036C205.037 162.366 204.716 162.654 204.353 162.901C204.007 163.149 203.653 163.355 203.29 163.52L203.117 162.481C203.661 162.646 204.164 162.869 204.625 163.149C205.103 163.413 205.523 163.734 205.886 164.113C206.249 164.492 206.529 164.921 206.727 165.399C206.925 165.877 207.024 166.413 207.024 167.006C207.024 167.995 206.719 168.893 206.109 169.701C205.499 170.492 204.675 171.119 203.636 171.58C202.598 172.042 201.419 172.273 200.1 172.273ZM200.1 169.231C200.743 169.231 201.32 169.132 201.831 168.935C202.342 168.737 202.746 168.457 203.043 168.094C203.339 167.731 203.488 167.319 203.488 166.858C203.488 166.396 203.339 165.992 203.043 165.646C202.746 165.283 202.342 165.003 201.831 164.805C201.32 164.591 200.743 164.484 200.1 164.484C199.424 164.484 198.831 164.591 198.32 164.805C197.809 165.003 197.405 165.283 197.108 165.646C196.812 165.992 196.663 166.396 196.663 166.858C196.663 167.303 196.803 167.707 197.084 168.069C197.38 168.432 197.784 168.72 198.295 168.935C198.823 169.132 199.424 169.231 200.1 169.231ZM200.1 161.616C200.628 161.616 201.106 161.533 201.534 161.368C201.963 161.187 202.301 160.94 202.548 160.627C202.795 160.297 202.919 159.918 202.919 159.489C202.919 159.11 202.795 158.78 202.548 158.5C202.317 158.204 201.988 157.973 201.559 157.808C201.13 157.627 200.644 157.536 200.1 157.536C199.523 157.536 199.012 157.627 198.567 157.808C198.139 157.973 197.801 158.204 197.553 158.5C197.323 158.78 197.207 159.11 197.207 159.489C197.207 159.918 197.331 160.297 197.578 160.627C197.825 160.94 198.163 161.187 198.592 161.368C199.037 161.533 199.54 161.616 200.1 161.616ZM229.092 172.446C227.411 172.446 225.977 172.075 224.79 171.333C223.62 170.591 222.729 169.561 222.12 168.242C221.526 166.907 221.229 165.341 221.229 163.544C221.229 161.748 221.526 160.19 222.12 158.871C222.729 157.536 223.62 156.497 224.79 155.756C225.977 155.014 227.411 154.643 229.092 154.643C230.757 154.643 232.167 155.014 233.32 155.756C234.474 156.497 235.348 157.536 235.941 158.871C236.535 160.19 236.832 161.748 236.832 163.544C236.832 165.341 236.535 166.907 235.941 168.242C235.348 169.561 234.474 170.591 233.32 171.333C232.167 172.075 230.757 172.446 229.092 172.446ZM229.092 169.256C230.411 169.256 231.433 168.762 232.158 167.773C232.9 166.783 233.271 165.374 233.271 163.544C233.271 161.682 232.9 160.248 232.158 159.242C231.433 158.237 230.411 157.734 229.092 157.734C227.724 157.734 226.661 158.237 225.903 159.242C225.144 160.248 224.765 161.682 224.765 163.544C224.765 165.374 225.144 166.783 225.903 167.773C226.661 168.762 227.724 169.256 229.092 169.256ZM248.265 172.446C246.583 172.446 245.149 172.075 243.962 171.333C242.792 170.591 241.902 169.561 241.292 168.242C240.698 166.907 240.402 165.341 240.402 163.544C240.402 161.748 240.698 160.19 241.292 158.871C241.902 157.536 242.792 156.497 243.962 155.756C245.149 155.014 246.583 154.643 248.265 154.643C249.929 154.643 251.339 155.014 252.493 155.756C253.647 156.497 254.52 157.536 255.114 158.871C255.707 160.19 256.004 161.748 256.004 163.544C256.004 165.341 255.707 166.907 255.114 168.242C254.52 169.561 253.647 170.591 252.493 171.333C251.339 172.075 249.929 172.446 248.265 172.446ZM248.265 169.256C249.583 169.256 250.605 168.762 251.331 167.773C252.072 166.783 252.443 165.374 252.443 163.544C252.443 161.682 252.072 160.248 251.331 159.242C250.605 158.237 249.583 157.734 248.265 157.734C246.896 157.734 245.833 158.237 245.075 159.242C244.317 160.248 243.938 161.682 243.938 163.544C243.938 165.374 244.317 166.783 245.075 167.773C245.833 168.762 246.896 169.256 248.265 169.256ZM267.437 172.446C265.756 172.446 264.321 172.075 263.135 171.333C261.964 170.591 261.074 169.561 260.464 168.242C259.871 166.907 259.574 165.341 259.574 163.544C259.574 161.748 259.871 160.19 260.464 158.871C261.074 157.536 261.964 156.497 263.135 155.756C264.321 155.014 265.756 154.643 267.437 154.643C269.102 154.643 270.511 155.014 271.665 155.756C272.819 156.497 273.693 157.536 274.286 158.871C274.879 160.19 275.176 161.748 275.176 163.544C275.176 165.341 274.879 166.907 274.286 168.242C273.693 169.561 272.819 170.591 271.665 171.333C270.511 172.075 269.102 172.446 267.437 172.446ZM267.437 169.256C268.756 169.256 269.778 168.762 270.503 167.773C271.245 166.783 271.616 165.374 271.616 163.544C271.616 161.682 271.245 160.248 270.503 159.242C269.778 158.237 268.756 157.734 267.437 157.734C266.069 157.734 265.006 158.237 264.247 159.242C263.489 160.248 263.11 161.682 263.11 163.544C263.11 165.374 263.489 166.783 264.247 167.773C265.006 168.762 266.069 169.256 267.437 169.256ZM286.609 172.446C284.928 172.446 283.494 172.075 282.307 171.333C281.137 170.591 280.246 169.561 279.637 168.242C279.043 166.907 278.746 165.341 278.746 163.544C278.746 161.748 279.043 160.19 279.637 158.871C280.246 157.536 281.137 156.497 282.307 155.756C283.494 155.014 284.928 154.643 286.609 154.643C288.274 154.643 289.684 155.014 290.837 155.756C291.991 156.497 292.865 157.536 293.458 158.871C294.052 160.19 294.349 161.748 294.349 163.544C294.349 165.341 294.052 166.907 293.458 168.242C292.865 169.561 291.991 170.591 290.837 171.333C289.684 172.075 288.274 172.446 286.609 172.446ZM286.609 169.256C287.928 169.256 288.95 168.762 289.675 167.773C290.417 166.783 290.788 165.374 290.788 163.544C290.788 161.682 290.417 160.248 289.675 159.242C288.95 158.237 287.928 157.734 286.609 157.734C285.241 157.734 284.178 158.237 283.42 159.242C282.661 160.248 282.282 161.682 282.282 163.544C282.282 165.374 282.661 166.783 283.42 167.773C284.178 168.762 285.241 169.256 286.609 169.256ZM316.213 172.446C314.532 172.446 313.097 172.075 311.911 171.333C310.74 170.591 309.85 169.561 309.24 168.242C308.647 166.907 308.35 165.341 308.35 163.544C308.35 161.748 308.647 160.19 309.24 158.871C309.85 157.536 310.74 156.497 311.911 155.756C313.097 155.014 314.532 154.643 316.213 154.643C317.878 154.643 319.287 155.014 320.441 155.756C321.595 156.497 322.469 157.536 323.062 158.871C323.655 160.19 323.952 161.748 323.952 163.544C323.952 165.341 323.655 166.907 323.062 168.242C322.469 169.561 321.595 170.591 320.441 171.333C319.287 172.075 317.878 172.446 316.213 172.446ZM316.213 169.256C317.532 169.256 318.554 168.762 319.279 167.773C320.021 166.783 320.392 165.374 320.392 163.544C320.392 161.682 320.021 160.248 319.279 159.242C318.554 158.237 317.532 157.734 316.213 157.734C314.845 157.734 313.782 158.237 313.023 159.242C312.265 160.248 311.886 161.682 311.886 163.544C311.886 165.374 312.265 166.783 313.023 167.773C313.782 168.762 314.845 169.256 316.213 169.256ZM335.385 172.446C333.704 172.446 332.27 172.075 331.083 171.333C329.913 170.591 329.022 169.561 328.412 168.242C327.819 166.907 327.522 165.341 327.522 163.544C327.522 161.748 327.819 160.19 328.412 158.871C329.022 157.536 329.913 156.497 331.083 155.756C332.27 155.014 333.704 154.643 335.385 154.643C337.05 154.643 338.459 155.014 339.613 155.756C340.767 156.497 341.641 157.536 342.234 158.871C342.828 160.19 343.124 161.748 343.124 163.544C343.124 165.341 342.828 166.907 342.234 168.242C341.641 169.561 340.767 170.591 339.613 171.333C338.459 172.075 337.05 172.446 335.385 172.446ZM335.385 169.256C336.704 169.256 337.726 168.762 338.451 167.773C339.193 166.783 339.564 165.374 339.564 163.544C339.564 161.682 339.193 160.248 338.451 159.242C337.726 158.237 336.704 157.734 335.385 157.734C334.017 157.734 332.954 158.237 332.196 159.242C331.437 160.248 331.058 161.682 331.058 163.544C331.058 165.374 331.437 166.783 332.196 167.773C332.954 168.762 334.017 169.256 335.385 169.256ZM354.558 172.446C352.876 172.446 351.442 172.075 350.255 171.333C349.085 170.591 348.195 169.561 347.585 168.242C346.991 166.907 346.695 165.341 346.695 163.544C346.695 161.748 346.991 160.19 347.585 158.871C348.195 157.536 349.085 156.497 350.255 155.756C351.442 155.014 352.876 154.643 354.558 154.643C356.222 154.643 357.632 155.014 358.786 155.756C359.94 156.497 360.813 157.536 361.407 158.871C362 160.19 362.297 161.748 362.297 163.544C362.297 165.341 362 166.907 361.407 168.242C360.813 169.561 359.94 170.591 358.786 171.333C357.632 172.075 356.222 172.446 354.558 172.446ZM354.558 169.256C355.876 169.256 356.898 168.762 357.624 167.773C358.365 166.783 358.736 165.374 358.736 163.544C358.736 161.682 358.365 160.248 357.624 159.242C356.898 158.237 355.876 157.734 354.558 157.734C353.189 157.734 352.126 158.237 351.368 159.242C350.61 160.248 350.23 161.682 350.23 163.544C350.23 165.374 350.61 166.783 351.368 167.773C352.126 168.762 353.189 169.256 354.558 169.256ZM373.73 172.446C372.049 172.446 370.614 172.075 369.428 171.333C368.257 170.591 367.367 169.561 366.757 168.242C366.164 166.907 365.867 165.341 365.867 163.544C365.867 161.748 366.164 160.19 366.757 158.871C367.367 157.536 368.257 156.497 369.428 155.756C370.614 155.014 372.049 154.643 373.73 154.643C375.395 154.643 376.804 155.014 377.958 155.756C379.112 156.497 379.986 157.536 380.579 158.871C381.172 160.19 381.469 161.748 381.469 163.544C381.469 165.341 381.172 166.907 380.579 168.242C379.986 169.561 379.112 170.591 377.958 171.333C376.804 172.075 375.395 172.446 373.73 172.446ZM373.73 169.256C375.049 169.256 376.071 168.762 376.796 167.773C377.538 166.783 377.909 165.374 377.909 163.544C377.909 161.682 377.538 160.248 376.796 159.242C376.071 158.237 375.049 157.734 373.73 157.734C372.362 157.734 371.298 158.237 370.54 159.242C369.782 160.248 369.403 161.682 369.403 163.544C369.403 165.374 369.782 166.783 370.54 167.773C371.298 168.762 372.362 169.256 373.73 169.256Z"
        fill="black" />
    <path
        d="M73.1421 314.295C71.9223 314.295 70.8014 314.171 69.7794 313.924C68.7574 313.66 67.8343 313.29 67.01 312.812C66.1858 312.334 65.4523 311.757 64.8094 311.081L66.837 308.237C67.9084 309.309 68.9799 310.059 70.0514 310.487C71.1228 310.916 72.2272 311.13 73.3646 311.13C73.9416 311.13 74.502 311.056 75.046 310.908C75.6065 310.759 76.0598 310.545 76.4059 310.265C76.7686 309.968 76.9499 309.589 76.9499 309.127C76.9499 308.831 76.8593 308.575 76.6779 308.361C76.4966 308.147 76.2576 307.965 75.9609 307.817C75.6642 307.669 75.318 307.545 74.9224 307.446C74.5268 307.331 74.1064 307.24 73.6614 307.174C73.2328 307.092 72.7877 307.026 72.3261 306.976C71.2877 306.811 70.3563 306.589 69.5321 306.309C68.7244 306.028 68.0321 305.674 67.4551 305.245C66.8782 304.8 66.4414 304.289 66.1446 303.712C65.8644 303.119 65.7243 302.443 65.7243 301.685C65.7243 300.877 65.9139 300.144 66.293 299.484C66.6721 298.825 67.1996 298.264 67.8755 297.803C68.5513 297.341 69.3343 296.995 70.2244 296.764C71.1311 296.517 72.1036 296.393 73.1421 296.393C74.2795 296.393 75.2933 296.509 76.1834 296.74C77.0735 296.97 77.8648 297.3 78.5571 297.729C79.2494 298.141 79.8181 298.635 80.2632 299.212L78.1368 301.66C77.7247 301.232 77.2384 300.861 76.6779 300.547C76.134 300.234 75.557 299.995 74.9471 299.83C74.3372 299.666 73.719 299.583 73.0927 299.583C72.4003 299.583 71.7904 299.657 71.2629 299.806C70.7519 299.938 70.3398 300.144 70.0266 300.424C69.7299 300.688 69.5816 301.025 69.5816 301.438C69.5816 301.767 69.6969 302.056 69.9277 302.303C70.1585 302.55 70.4635 302.756 70.8426 302.921C71.2217 303.069 71.6585 303.201 72.1531 303.317C72.6476 303.416 73.1668 303.506 73.7108 303.589C74.6669 303.737 75.5735 303.927 76.4307 304.157C77.2878 304.372 78.0461 304.668 78.7055 305.048C79.3648 305.41 79.8758 305.888 80.2385 306.482C80.6011 307.059 80.7824 307.784 80.7824 308.658C80.7824 309.828 80.4528 310.833 79.7934 311.674C79.1505 312.515 78.2604 313.166 77.123 313.628C75.9856 314.073 74.6586 314.295 73.1421 314.295ZM84.038 314.048L91.7772 296.74H95.313L103.052 314.048H99.195L94.6702 303.885C94.5218 303.589 94.3735 303.259 94.2251 302.896C94.0932 302.534 93.9531 302.171 93.8048 301.808C93.6729 301.446 93.541 301.083 93.4091 300.721C93.2938 300.341 93.1866 299.995 93.0877 299.682L93.8789 299.657C93.7635 300.036 93.6399 300.407 93.508 300.77C93.3927 301.116 93.2608 301.471 93.1124 301.833C92.9806 302.196 92.8404 302.55 92.6921 302.896C92.5437 303.243 92.3954 303.597 92.247 303.96L87.7469 314.048H84.038ZM87.5738 310.561L88.8101 307.57H98.1071L98.9478 310.561H87.5738ZM115.708 314.295C114.323 314.295 113.029 314.089 111.826 313.677C110.622 313.265 109.584 312.68 108.71 311.921C107.836 311.147 107.152 310.207 106.658 309.103C106.163 307.998 105.916 306.745 105.916 305.344C105.916 304.075 106.163 302.905 106.658 301.833C107.169 300.745 107.878 299.806 108.784 299.014C109.707 298.207 110.787 297.58 112.023 297.135C113.276 296.69 114.636 296.468 116.103 296.468C117.224 296.468 118.271 296.6 119.243 296.863C120.232 297.127 121.106 297.473 121.864 297.902C122.639 298.33 123.266 298.808 123.744 299.336L121.444 301.833C120.966 301.438 120.447 301.091 119.886 300.795C119.326 300.482 118.724 300.242 118.081 300.078C117.455 299.896 116.787 299.806 116.078 299.806C115.188 299.806 114.356 299.946 113.581 300.226C112.823 300.506 112.155 300.894 111.578 301.388C111.001 301.883 110.556 302.468 110.243 303.144C109.93 303.82 109.773 304.553 109.773 305.344C109.773 306.251 109.938 307.059 110.268 307.767C110.614 308.46 111.076 309.045 111.653 309.523C112.246 309.985 112.914 310.339 113.655 310.586C114.414 310.817 115.221 310.932 116.078 310.932C116.82 310.932 117.521 310.85 118.18 310.685C118.84 310.52 119.408 310.281 119.886 309.968C120.381 309.655 120.768 309.292 121.048 308.88C121.329 308.452 121.461 307.99 121.444 307.495L121.419 307.001L121.939 307.792H115.806V304.751H125.054C125.071 304.965 125.087 305.196 125.103 305.443C125.12 305.69 125.136 305.921 125.153 306.136C125.169 306.35 125.178 306.506 125.178 306.605C125.178 307.825 124.947 308.913 124.485 309.869C124.024 310.809 123.373 311.608 122.532 312.268C121.691 312.927 120.694 313.43 119.54 313.776C118.386 314.122 117.109 314.295 115.708 314.295ZM128.154 314.048L135.893 296.74H139.429L147.168 314.048H143.311L138.786 303.885C138.637 303.589 138.489 303.259 138.341 302.896C138.209 302.534 138.069 302.171 137.92 301.808C137.789 301.446 137.657 301.083 137.525 300.721C137.409 300.341 137.302 299.995 137.203 299.682L137.995 299.657C137.879 300.036 137.756 300.407 137.624 300.77C137.508 301.116 137.376 301.471 137.228 301.833C137.096 302.196 136.956 302.55 136.808 302.896C136.659 303.243 136.511 303.597 136.363 303.96L131.863 314.048H128.154ZM131.689 310.561L132.926 307.57H142.223L143.063 310.561H131.689ZM151.702 314.048V296.74H160.702C161.872 296.74 162.911 296.979 163.817 297.457C164.74 297.918 165.457 298.561 165.968 299.385C166.479 300.21 166.735 301.157 166.735 302.229C166.735 303.3 166.463 304.265 165.919 305.122C165.375 305.979 164.641 306.663 163.718 307.174C162.795 307.669 161.765 307.916 160.628 307.916H155.287V314.048H151.702ZM163.273 314.048L158.031 306.234L161.889 305.616L167.625 314.073L163.273 314.048ZM155.287 304.899H160.306C160.817 304.899 161.271 304.792 161.666 304.578C162.062 304.347 162.375 304.042 162.606 303.663C162.853 303.284 162.977 302.855 162.977 302.377C162.977 301.883 162.845 301.454 162.581 301.091C162.334 300.729 161.988 300.449 161.542 300.251C161.114 300.053 160.628 299.954 160.084 299.954H155.287V304.899ZM183.816 314.048V296.74H192.569C193.921 296.74 195.058 296.913 195.982 297.259C196.905 297.589 197.597 298.075 198.059 298.718C198.537 299.361 198.776 300.127 198.776 301.017C198.776 301.99 198.504 302.806 197.96 303.465C197.416 304.124 196.608 304.594 195.537 304.874L195.611 304.38C196.352 304.545 197.037 304.825 197.663 305.221C198.289 305.6 198.784 306.094 199.147 306.704C199.509 307.314 199.691 308.031 199.691 308.855C199.691 309.811 199.509 310.627 199.147 311.303C198.784 311.963 198.281 312.49 197.638 312.886C197.012 313.281 196.303 313.578 195.512 313.776C194.721 313.957 193.896 314.048 193.039 314.048H183.816ZM187.377 310.833H193.039C193.633 310.833 194.152 310.759 194.597 310.611C195.042 310.446 195.388 310.207 195.635 309.894C195.883 309.564 196.006 309.169 196.006 308.707C196.006 308.213 195.85 307.817 195.537 307.52C195.24 307.207 194.852 306.984 194.374 306.853C193.913 306.704 193.427 306.63 192.916 306.63H187.377V310.833ZM187.377 303.688H192.495C192.99 303.688 193.435 303.613 193.83 303.465C194.243 303.3 194.556 303.078 194.77 302.798C194.984 302.517 195.091 302.179 195.091 301.784C195.091 301.157 194.836 300.696 194.325 300.399C193.814 300.102 193.138 299.954 192.297 299.954H187.377V303.688ZM207.21 314.32C206.369 314.32 205.743 314.139 205.331 313.776C204.919 313.397 204.713 312.877 204.713 312.218C204.713 311.658 204.927 311.171 205.356 310.759C205.784 310.347 206.402 310.141 207.21 310.141C208.018 310.141 208.628 310.331 209.04 310.71C209.452 311.072 209.658 311.575 209.658 312.218C209.658 312.795 209.444 313.29 209.015 313.702C208.603 314.114 208.001 314.32 207.21 314.32Z"
        fill="black" />
    <path
        d="M70.5927 275.709C69.2653 275.709 68.1331 275.416 67.1961 274.83C66.2722 274.245 65.5694 273.431 65.0879 272.39C64.6194 271.336 64.3852 270.1 64.3852 268.681C64.3852 267.263 64.6194 266.033 65.0879 264.992C65.5694 263.938 66.2722 263.118 67.1961 262.533C68.1331 261.947 69.2653 261.654 70.5927 261.654C71.9071 261.654 73.0198 261.947 73.9307 262.533C74.8417 263.118 75.5314 263.938 75.9999 264.992C76.4684 266.033 76.7027 267.263 76.7027 268.681C76.7027 270.1 76.4684 271.336 75.9999 272.39C75.5314 273.431 74.8417 274.245 73.9307 274.83C73.0198 275.416 71.9071 275.709 70.5927 275.709ZM70.5927 273.191C71.6338 273.191 72.4407 272.8 73.0133 272.019C73.5989 271.239 73.8917 270.126 73.8917 268.681C73.8917 267.211 73.5989 266.079 73.0133 265.285C72.4407 264.491 71.6338 264.094 70.5927 264.094C69.5126 264.094 68.6732 264.491 68.0746 265.285C67.4759 266.079 67.1766 267.211 67.1766 268.681C67.1766 270.126 67.4759 271.239 68.0746 272.019C68.6732 272.8 69.5126 273.191 70.5927 273.191ZM84.6747 275.65C83.6336 275.65 82.6706 275.449 81.7856 275.045C80.9007 274.629 80.1589 274.076 79.5603 273.386L81.1024 271.473C81.662 272.019 82.2346 272.436 82.8202 272.722C83.4058 272.996 83.9979 273.132 84.5966 273.132C85.1562 273.132 85.6507 273.041 86.0801 272.859C86.5096 272.664 86.8414 272.39 87.0757 272.039C87.3229 271.688 87.4466 271.284 87.4466 270.829C87.4466 270.399 87.3229 270.015 87.0757 269.677C86.8284 269.339 86.4966 269.072 86.0801 268.877C85.6767 268.668 85.2082 268.564 84.6747 268.564C84.2062 268.564 83.7832 268.61 83.4058 268.701C83.0414 268.779 82.7031 268.883 82.3908 269.013C82.0784 269.143 81.7921 269.28 81.5319 269.423L80.2045 267.725L81.0438 261.771H89.1644V264.289H82.5274L83.2106 263.43L82.5664 267.764L81.6685 267.315C81.8767 267.133 82.176 266.964 82.5664 266.808C82.9569 266.651 83.3863 266.521 83.8548 266.417C84.3233 266.313 84.7853 266.261 85.2408 266.261C86.1517 266.261 86.9781 266.456 87.7199 266.847C88.4616 267.224 89.0538 267.758 89.4962 268.447C89.9517 269.137 90.1795 269.944 90.1795 270.868C90.1795 271.766 89.9322 272.579 89.4377 273.308C88.9562 274.024 88.299 274.596 87.4661 275.026C86.6332 275.442 85.7027 275.65 84.6747 275.65ZM92.1178 278.227L100.219 261.849H103.323L95.2411 278.227H92.1178ZM106.398 275.514L105.714 273.757L109.892 269.755C110.217 269.443 110.549 269.117 110.887 268.779C111.239 268.441 111.557 268.096 111.844 267.744C112.143 267.393 112.377 267.055 112.546 266.729C112.729 266.391 112.82 266.072 112.82 265.773C112.82 265.448 112.748 265.168 112.605 264.934C112.475 264.699 112.267 264.524 111.98 264.406C111.694 264.276 111.349 264.211 110.946 264.211C110.555 264.211 110.171 264.296 109.794 264.465C109.417 264.621 109.052 264.868 108.701 265.207C108.363 265.532 108.05 265.955 107.764 266.476L105.597 265.187C105.962 264.485 106.417 263.866 106.964 263.333C107.523 262.786 108.167 262.357 108.896 262.044C109.638 261.732 110.425 261.576 111.258 261.576C112.143 261.576 112.924 261.745 113.601 262.084C114.277 262.409 114.798 262.858 115.162 263.43C115.54 264.003 115.728 264.667 115.728 265.422C115.728 265.812 115.663 266.196 115.533 266.573C115.416 266.951 115.247 267.328 115.026 267.705C114.804 268.07 114.538 268.434 114.225 268.799C113.926 269.163 113.601 269.534 113.249 269.911C112.898 270.276 112.527 270.64 112.137 271.004L108.74 274.225L108.525 272.878H116.294V275.514H106.398ZM124.021 275.65C122.98 275.65 122.017 275.449 121.132 275.045C120.247 274.629 119.505 274.076 118.906 273.386L120.449 271.473C121.008 272.019 121.581 272.436 122.166 272.722C122.752 272.996 123.344 273.132 123.943 273.132C124.502 273.132 124.997 273.041 125.426 272.859C125.856 272.664 126.188 272.39 126.422 272.039C126.669 271.688 126.793 271.284 126.793 270.829C126.793 270.399 126.669 270.015 126.422 269.677C126.175 269.339 125.843 269.072 125.426 268.877C125.023 268.668 124.554 268.564 124.021 268.564C123.552 268.564 123.129 268.61 122.752 268.701C122.388 268.779 122.049 268.883 121.737 269.013C121.425 269.143 121.138 269.28 120.878 269.423L119.551 267.725L120.39 261.771H128.51V264.289H121.874L122.557 263.43L121.913 267.764L121.015 267.315C121.223 267.133 121.522 266.964 121.913 266.808C122.303 266.651 122.732 266.521 123.201 266.417C123.669 266.313 124.131 266.261 124.587 266.261C125.498 266.261 126.324 266.456 127.066 266.847C127.808 267.224 128.4 267.758 128.842 268.447C129.298 269.137 129.526 269.944 129.526 270.868C129.526 271.766 129.278 272.579 128.784 273.308C128.302 274.024 127.645 274.596 126.812 275.026C125.979 275.442 125.049 275.65 124.021 275.65Z"
        fill="black" />
    <path
        d="M248.477 275.65C247.436 275.65 246.473 275.449 245.588 275.045C244.703 274.629 243.961 274.076 243.363 273.386L244.905 271.473C245.464 272.019 246.037 272.436 246.623 272.722C247.208 272.996 247.8 273.132 248.399 273.132C248.958 273.132 249.453 273.041 249.882 272.859C250.312 272.664 250.644 272.39 250.878 272.039C251.125 271.688 251.249 271.284 251.249 270.829C251.249 270.399 251.125 270.015 250.878 269.677C250.631 269.339 250.299 269.072 249.882 268.877C249.479 268.668 249.011 268.564 248.477 268.564C248.008 268.564 247.586 268.61 247.208 268.701C246.844 268.779 246.505 268.883 246.193 269.013C245.881 269.143 245.594 269.28 245.334 269.423L244.007 267.725L244.846 261.771H252.967V264.289H246.33L247.013 263.43L246.369 267.764L245.471 267.315C245.679 267.133 245.978 266.964 246.369 266.808C246.759 266.651 247.189 266.521 247.657 266.417C248.126 266.313 248.588 266.261 249.043 266.261C249.954 266.261 250.78 266.456 251.522 266.847C252.264 267.224 252.856 267.758 253.299 268.447C253.754 269.137 253.982 269.944 253.982 270.868C253.982 271.766 253.735 272.579 253.24 273.308C252.758 274.024 252.101 274.596 251.268 275.026C250.436 275.442 249.505 275.65 248.477 275.65ZM262.538 275.572C261.484 275.572 260.547 275.39 259.727 275.026C258.907 274.648 258.257 274.147 257.775 273.523C257.307 272.885 257.073 272.182 257.073 271.414C257.073 270.881 257.151 270.419 257.307 270.028C257.476 269.638 257.704 269.3 257.99 269.013C258.289 268.727 258.628 268.486 259.005 268.291C259.382 268.096 259.773 267.927 260.176 267.784L259.981 268.662C259.682 268.532 259.389 268.369 259.103 268.174C258.816 267.966 258.563 267.731 258.341 267.471C258.12 267.198 257.944 266.899 257.814 266.573C257.684 266.235 257.619 265.871 257.619 265.48C257.619 264.764 257.834 264.127 258.263 263.567C258.706 262.994 259.298 262.539 260.04 262.201C260.781 261.862 261.614 261.693 262.538 261.693C263.449 261.693 264.269 261.862 264.998 262.201C265.74 262.539 266.325 262.994 266.755 263.567C267.184 264.127 267.399 264.764 267.399 265.48C267.399 265.884 267.334 266.254 267.204 266.593C267.074 266.931 266.891 267.23 266.657 267.491C266.436 267.751 266.182 267.979 265.896 268.174C265.623 268.369 265.343 268.532 265.056 268.662L264.92 267.842C265.349 267.972 265.746 268.148 266.111 268.369C266.488 268.577 266.82 268.831 267.106 269.13C267.392 269.43 267.614 269.768 267.77 270.146C267.926 270.523 268.004 270.946 268.004 271.414C268.004 272.195 267.763 272.904 267.282 273.542C266.8 274.167 266.15 274.661 265.33 275.026C264.51 275.39 263.579 275.572 262.538 275.572ZM262.538 273.171C263.046 273.171 263.501 273.093 263.905 272.937C264.308 272.781 264.627 272.56 264.861 272.273C265.096 271.987 265.213 271.662 265.213 271.297C265.213 270.933 265.096 270.614 264.861 270.341C264.627 270.054 264.308 269.833 263.905 269.677C263.501 269.508 263.046 269.423 262.538 269.423C262.005 269.423 261.536 269.508 261.133 269.677C260.729 269.833 260.411 270.054 260.176 270.341C259.942 270.614 259.825 270.933 259.825 271.297C259.825 271.649 259.936 271.967 260.157 272.254C260.391 272.54 260.71 272.768 261.113 272.937C261.53 273.093 262.005 273.171 262.538 273.171ZM262.538 267.159C262.955 267.159 263.332 267.094 263.671 266.964C264.009 266.821 264.276 266.625 264.471 266.378C264.666 266.118 264.764 265.818 264.764 265.48C264.764 265.181 264.666 264.921 264.471 264.699C264.289 264.465 264.028 264.283 263.69 264.153C263.352 264.01 262.968 263.938 262.538 263.938C262.083 263.938 261.679 264.01 261.328 264.153C260.99 264.283 260.723 264.465 260.528 264.699C260.346 264.921 260.254 265.181 260.254 265.48C260.254 265.818 260.352 266.118 260.547 266.378C260.742 266.625 261.009 266.821 261.348 266.964C261.699 267.094 262.096 267.159 262.538 267.159ZM277.504 275.514V263.509L279.261 263.528L272.975 270.887L272.721 269.931H283.028V272.371H271.628L270.437 270.106L277.777 261.771H280.334V275.514H277.504Z"
        fill="black" />
    <path
        d="M314.524 346.084L312.374 346.996L314.028 348.632L332.44 366.842L327.224 372L308.811 353.79L307.157 352.154L306.235 354.281L300.468 367.592L290.331 330.354L327.983 340.38L314.524 346.084Z"
        fill="white" />
    <path
        d="M333 367.396L332.998 367.394M289 330L289.004 330.001M314.524 346.084L312.374 346.996L314.028 348.632L332.44 366.842L327.224 372L308.811 353.79L307.157 352.154L306.235 354.281L300.468 367.592L290.331 330.354L327.983 340.38L314.524 346.084Z"
        stroke="black" stroke-width="4" />
</svg>
    