<svg width="28" height="30" viewBox="0 0 28 30" fill="none" xmlns="http://www.w3.org/2000/svg">
    <path fill-rule="evenodd" clip-rule="evenodd"
        d="M5.48876 20.0824L0.701081 15.3622C0.0616588 14.7322 -0.157633 13.7962 0.114727 12.9527C0.390879 12.0974 1.13318 11.4815 2.01478 11.3497L2.01661 11.3494L8.60632 10.38L11.5604 4.32368C11.9583 3.51606 12.7783 3 13.6866 3C14.5905 3 15.4201 3.5125 15.8149 4.32778L15.8155 4.32901L18.7669 10.38L25.3633 11.3497C26.2493 11.4821 26.9809 12.1007 27.2614 12.9467C27.5441 13.7989 27.3129 14.7359 26.677 15.3622L21.8896 20.0821L23.0253 26.7577C23.174 27.6463 22.8014 28.5363 22.0748 29.0629C21.3385 29.5965 20.3709 29.6513 19.5798 29.2352L19.5764 29.2335L13.6915 26.1027L7.80318 29.2352C7.00771 29.6536 6.04297 29.5879 5.31253 29.066C4.579 28.5418 4.20957 27.6431 4.35767 26.7577L4.35795 26.756L5.48876 20.0824Z"
        fill="black" />
    <path
        d="M15.0924 1.87543C14.8337 1.34044 14.287 1 13.6867 1C13.0863 1 12.5446 1.34044 12.281 1.87543L9.14256 8.3098L2.13358 9.34086C1.54788 9.4284 1.05978 9.83693 0.879191 10.3962C0.698598 10.9555 0.845025 11.5732 1.26478 11.9866L6.35069 17.0008L5.14998 24.0869C5.05237 24.6705 5.29641 25.2639 5.77962 25.6092C6.26283 25.9545 6.90223 25.9983 7.42937 25.721L13.6916 22.3896L19.9538 25.721C20.4809 25.9983 21.1203 25.9593 21.6035 25.6092C22.0867 25.259 22.3308 24.6705 22.2332 24.0869L21.0276 17.0008L26.1135 11.9866C26.5332 11.5732 26.6845 10.9555 26.4991 10.3962C26.3136 9.83693 25.8304 9.4284 25.2447 9.34086L18.2308 8.3098L15.0924 1.87543Z"
        fill="white" />
    <path fill-rule="evenodd" clip-rule="evenodd"
        d="M2.13352 9.34089L9.1425 8.30984L12.2809 1.87546C12.5445 1.34048 13.0863 1.00003 13.6866 1.00003C14.287 1.00003 14.8336 1.34048 15.0923 1.87546L18.2307 8.30984L25.2446 9.34089C25.8303 9.42844 26.3135 9.83697 26.499 10.3963C26.6845 10.9556 26.5332 11.5732 26.1134 11.9866L21.0275 17.0009L22.2331 24.0869C22.3307 24.6706 22.0867 25.259 21.6035 25.6092C21.1202 25.9594 20.4808 25.9983 19.9537 25.7211L13.6915 22.3896L7.4293 25.7211C6.90216 25.9983 6.26276 25.9545 5.77955 25.6092C5.29634 25.2639 5.0523 24.6706 5.14992 24.0869L6.35062 17.0009L1.26472 11.9866C0.844958 11.5732 0.698531 10.9556 0.879125 10.3963C1.05972 9.83697 1.54781 9.42844 2.13352 9.34089ZM5.48876 17.2792L0.701081 12.5589C0.700978 12.5588 0.701185 12.559 0.701081 12.5589C0.0616588 11.929 -0.157633 10.993 0.114727 10.1494C0.390879 9.2942 1.13318 8.67823 2.01478 8.54646L2.01661 8.54619L8.60632 7.57681L11.5604 1.52046C11.9583 0.712842 12.7783 0.196777 13.6866 0.196777C14.5905 0.196777 15.4201 0.709281 15.8149 1.52455C15.8151 1.52496 15.8153 1.52537 15.8155 1.52578L18.7669 7.57676L25.3633 8.54646C26.2493 8.67888 26.9809 9.29746 27.2614 10.1434C27.5441 10.9957 27.3129 11.9327 26.677 12.5589L21.8896 17.2789L23.0253 23.9544C23.174 24.8431 22.8014 25.7331 22.0748 26.2596C21.3385 26.7932 20.3709 26.848 19.5798 26.432L19.5764 26.4302L13.6915 23.2994L7.80318 26.432C7.00771 26.8503 6.04297 26.7847 5.31253 26.2627C4.579 25.7386 4.20957 24.8398 4.35767 23.9544L4.35795 23.9527L5.48876 17.2792Z"
        fill="black" />
</svg>
    