<svg width="28" height="30" viewBox="0 0 28 30" fill="none" xmlns="http://www.w3.org/2000/svg">
    <path fill-rule="evenodd" clip-rule="evenodd"
        d="M5.68554 20.0824L0.897859 15.3622C0.258436 14.7322 0.0391443 13.7962 0.311505 12.9527C0.587656 12.0974 1.32995 11.4815 2.21156 11.3497L2.21339 11.3494L8.8031 10.38L11.7571 4.32368C12.155 3.51606 12.9751 3 13.8834 3C14.7873 3 15.6169 3.5125 16.0117 4.32778L16.0123 4.32901L18.9637 10.38L25.5601 11.3497C26.4461 11.4821 27.1777 12.1007 27.4582 12.9467C27.7408 13.7989 27.5097 14.7359 26.8738 15.3622L22.0864 20.0821L23.2221 26.7577C23.3708 27.6463 22.9981 28.5363 22.2716 29.0629C21.5352 29.5965 20.5677 29.6513 19.7766 29.2352L19.7732 29.2335L13.8883 26.1027L7.99996 29.2352C7.20449 29.6536 6.23974 29.5879 5.50931 29.066C4.77577 28.5418 4.40634 27.6431 4.55444 26.7577L4.55472 26.756L5.68554 20.0824Z"
        fill="black" />
    <path
        d="M15.2892 1.87543C15.0305 1.34044 14.4838 1 13.8835 1C13.2831 1 12.7413 1.34044 12.4778 1.87543L9.33934 8.3098L2.33036 9.34086C1.74465 9.4284 1.25656 9.83693 1.07597 10.3962C0.895375 10.9555 1.0418 11.5732 1.46156 11.9866L6.54746 17.0008L5.34676 24.0869C5.24914 24.6705 5.49319 25.2639 5.9764 25.6092C6.45961 25.9545 7.09901 25.9983 7.62614 25.721L13.8883 22.3896L20.1505 25.721C20.6777 25.9983 21.3171 25.9593 21.8003 25.6092C22.2835 25.259 22.5275 24.6705 22.4299 24.0869L21.2243 17.0008L26.3103 11.9866C26.73 11.5732 26.8813 10.9555 26.6958 10.3962C26.5104 9.83693 26.0272 9.4284 25.4415 9.34086L18.4276 8.3098L15.2892 1.87543Z"
        fill="#FFC700" />
    <path fill-rule="evenodd" clip-rule="evenodd"
        d="M2.33029 9.34089L9.33928 8.30984L12.4777 1.87546C12.7413 1.34048 13.283 1.00003 13.8834 1.00003C14.4838 1.00003 15.0304 1.34048 15.2891 1.87546L18.4275 8.30984L25.4414 9.34089C26.0271 9.42844 26.5103 9.83697 26.6958 10.3963C26.8813 10.9556 26.7299 11.5732 26.3102 11.9866L21.2243 17.0009L22.4299 24.0869C22.5275 24.6706 22.2834 25.259 21.8002 25.6092C21.317 25.9594 20.6776 25.9983 20.1505 25.7211L13.8883 22.3896L7.62608 25.7211C7.09894 25.9983 6.45954 25.9545 5.97633 25.6092C5.49312 25.2639 5.24908 24.6706 5.34669 24.0869L6.5474 17.0009L1.46149 11.9866C1.04174 11.5732 0.895309 10.9556 1.0759 10.3963C1.2565 9.83697 1.74459 9.42844 2.33029 9.34089ZM5.68554 17.2792L0.897859 12.5589C0.897755 12.5588 0.897962 12.559 0.897859 12.5589C0.258436 11.929 0.0391443 10.993 0.311505 10.1494C0.587656 9.2942 1.32995 8.67823 2.21156 8.54646L2.21339 8.54619L8.8031 7.57681L11.7571 1.52046C12.155 0.712842 12.9751 0.196777 13.8834 0.196777C14.7873 0.196777 15.6169 0.709281 16.0117 1.52455C16.0119 1.52496 16.0121 1.52537 16.0123 1.52578L18.9637 7.57676L25.5601 8.54646C26.4461 8.67888 27.1777 9.29746 27.4582 10.1434C27.7408 10.9957 27.5097 11.9327 26.8738 12.5589L22.0864 17.2789L23.2221 23.9544C23.3708 24.8431 22.9981 25.7331 22.2716 26.2596C21.5352 26.7932 20.5677 26.848 19.7766 26.432L19.7732 26.4302L13.8883 23.2994L7.99996 26.432C7.20449 26.8503 6.23974 26.7847 5.50931 26.2627C4.77577 25.7386 4.40634 24.8398 4.55444 23.9544L4.55472 23.9527L5.68554 17.2792Z"
        fill="black" />
</svg>
    