<svg width="28" height="30" viewBox="0 0 28 30" fill="none" xmlns="http://www.w3.org/2000/svg">
<path fill-rule="evenodd" clip-rule="evenodd" d="M5.48876 19.8856L0.701081 15.1654C0.0616588 14.5354 -0.157633 13.5994 0.114727 12.7559C0.390879 11.9007 1.13318 11.2847 2.01478 11.1529L2.01661 11.1526L8.60632 10.1833L11.5604 4.12691C11.9583 3.31929 12.7783 2.80322 13.6866 2.80322C14.5905 2.80322 15.4201 3.31573 15.8149 4.131L15.8155 4.13223L18.7669 10.1832L25.3633 11.1529C26.2493 11.2853 26.9809 11.9039 27.2614 12.7499C27.5441 13.6022 27.3129 14.5391 26.677 15.1654L21.8896 19.8854L23.0253 26.5609C23.174 27.4495 22.8014 28.3396 22.0748 28.8661C21.3385 29.3997 20.3709 29.4545 19.5798 29.0385L19.5764 29.0367L13.6915 25.9059L7.80318 29.0385C7.00771 29.4568 6.04297 29.3912 5.31253 28.8692C4.579 28.345 4.20957 27.4463 4.35767 26.5609L4.35795 26.5592L5.48876 19.8856Z" fill="black"/>
<path d="M15.0924 1.67865C14.8337 1.14367 14.287 0.803223 13.6867 0.803223C13.0863 0.803223 12.5446 1.14367 12.281 1.67865L9.14256 8.11302L2.13358 9.14408C1.54788 9.23162 1.05978 9.64015 0.879191 10.1995C0.698598 10.7588 0.845025 11.3764 1.26478 11.7898L6.35069 16.8041L5.14998 23.8901C5.05237 24.4737 5.29641 25.0671 5.77962 25.4124C6.26283 25.7577 6.90223 25.8015 7.42937 25.5243L13.6916 22.1928L19.9538 25.5243C20.4809 25.8015 21.1203 25.7626 21.6035 25.4124C22.0867 25.0622 22.3308 24.4737 22.2332 23.8901L21.0276 16.8041L26.1135 11.7898C26.5332 11.3764 26.6845 10.7588 26.4991 10.1995C26.3136 9.64015 25.8304 9.23162 25.2447 9.14408L18.2308 8.11302L15.0924 1.67865Z" fill="white"/>
<path fill-rule="evenodd" clip-rule="evenodd" d="M2.13352 9.14412L9.1425 8.11306L12.2809 1.67868C12.5445 1.1437 13.0863 0.803258 13.6866 0.803258C14.287 0.803258 14.8336 1.1437 15.0923 1.67868L18.2307 8.11306L25.2446 9.14412C25.8303 9.23166 26.3135 9.64019 26.499 10.1995C26.6845 10.7588 26.5332 11.3764 26.1134 11.7898L21.0275 16.8041L22.2331 23.8902C22.3307 24.4738 22.0867 25.0623 21.6035 25.4124C21.1202 25.7626 20.4808 25.8015 19.9537 25.5243L13.6915 22.1928L7.4293 25.5243C6.90216 25.8015 6.26276 25.7577 5.77955 25.4124C5.29634 25.0671 5.0523 24.4738 5.14992 23.8902L6.35062 16.8041L1.26472 11.7898C0.844958 11.3764 0.698531 10.7588 0.879125 10.1995C1.05972 9.64019 1.54781 9.23166 2.13352 9.14412ZM5.48876 17.0824L0.701081 12.3622C0.700978 12.3621 0.701185 12.3623 0.701081 12.3622C0.0616588 11.7322 -0.157633 10.7962 0.114727 9.95267C0.390879 9.09743 1.13318 8.48145 2.01478 8.34968L2.01661 8.34941L8.60632 7.38003L11.5604 1.32368C11.9583 0.516065 12.7783 0 13.6866 0C14.5905 0 15.4201 0.512503 15.8149 1.32778C15.8151 1.32819 15.8153 1.3286 15.8155 1.32901L18.7669 7.37998L25.3633 8.34968C26.2493 8.48211 26.9809 9.10068 27.2614 9.94665C27.5441 10.7989 27.3129 11.7359 26.677 12.3622L21.8896 17.0821L23.0253 23.7577C23.174 24.6463 22.8014 25.5363 22.0748 26.0629C21.3385 26.5965 20.3709 26.6513 19.5798 26.2352L19.5764 26.2335L13.6915 23.1027L7.80318 26.2352C7.00771 26.6536 6.04297 26.5879 5.31253 26.066C4.579 25.5418 4.20957 24.6431 4.35767 23.7577L4.35795 23.756L5.48876 17.0824Z" fill="black"/>
<mask id="mask0_127_3" style="mask-type:alpha" maskUnits="userSpaceOnUse" x="0" y="0" width="27" height="26">
<path d="M15.0924 1.67865C14.8337 1.14367 14.287 0.803223 13.6867 0.803223C13.0863 0.803223 12.5446 1.14367 12.281 1.67865L9.14256 8.11302L2.13358 9.14408C1.54788 9.23162 1.05978 9.64015 0.879191 10.1995C0.698598 10.7588 0.845025 11.3764 1.26478 11.7898L6.35069 16.8041L5.14998 23.8901C5.05237 24.4737 5.29641 25.0671 5.77962 25.4124C6.26283 25.7577 6.90223 25.8015 7.42937 25.5243L13.6916 22.1928L19.9538 25.5243C20.4809 25.8015 21.1203 25.7626 21.6035 25.4124C22.0867 25.0622 22.3308 24.4737 22.2332 23.8901L21.0276 16.8041L26.1135 11.7898C26.5332 11.3764 26.6845 10.7588 26.4991 10.1995C26.3136 9.64015 25.8304 9.23162 25.2447 9.14408L18.2308 8.11302L15.0924 1.67865Z" fill="#FFC700"/>
</mask>
<g mask="url(#mask0_127_3)">
<rect width="14" height="26" fill="#FFC700"/>
</g>
</svg>
